<?xml version="1.0" encoding="UTF-8"?><svg id="NEMA3R" xmlns="http://www.w3.org/2000/svg" viewBox="0 0 226 26"><defs><style>.cls-1{fill:none;stroke:#000;stroke-linecap:round;stroke-linejoin:round;}</style></defs><g id="LINE"><line class="cls-1" x1="7.66" y1="4.6" x2="7.66" y2="7.24"/></g><g id="LINE-2"><line class="cls-1" x1="7.66" y1="7.24" x2="5.04" y2="7.24"/></g><g id="LINE-3"><line class="cls-1" x1="5.04" y1="7.24" x2="5.04" y2="4.6"/></g><g id="LINE-4"><line class="cls-1" x1="5.04" y1="4.6" x2="7.66" y2="4.6"/></g><g id="LINE-5"><line class="cls-1" x1="7.66" y1="18.76" x2="7.66" y2="21.4"/></g><g id="LINE-6"><line class="cls-1" x1="7.66" y1="21.4" x2="5.04" y2="21.4"/></g><g id="LINE-7"><line class="cls-1" x1="5.04" y1="21.4" x2="5.04" y2="18.76"/></g><g id="LINE-8"><line class="cls-1" x1="5.04" y1="18.76" x2="7.66" y2="18.76"/></g><g id="LINE-9"><line class="cls-1" x1="220.52" y1="4.6" x2="220.52" y2="7.24"/></g><g id="LINE-10"><line class="cls-1" x1="220.52" y1="7.24" x2="217.9" y2="7.24"/></g><g id="LINE-11"><line class="cls-1" x1="217.9" y1="7.24" x2="217.9" y2="4.6"/></g><g id="LINE-12"><line class="cls-1" x1="217.9" y1="4.6" x2="220.52" y2="4.6"/></g><g id="LINE-13"><line class="cls-1" x1="220.52" y1="18.76" x2="220.52" y2="21.4"/></g><g id="LINE-14"><line class="cls-1" x1="220.52" y1="21.4" x2="217.9" y2="21.4"/></g><g id="LINE-15"><line class="cls-1" x1="217.9" y1="21.4" x2="217.9" y2="18.76"/></g><g id="LINE-16"><line class="cls-1" x1="217.9" y1="18.76" x2="220.52" y2="18.76"/></g><g><g id="LINE-17"><line class="cls-1" y1="26" x2="225.82" y2="26"/></g><g id="LINE-18"><line class="cls-1" x1="225.91" x2=".09"/></g><g id="LINE-19"><line class="cls-1" x1="226" y1="26" x2="226"/></g><g id="LINE-20"><line class="cls-1" y2="26"/></g></g></svg>