<?xml version="1.0" encoding="UTF-8"?><svg xmlns="http://www.w3.org/2000/svg" viewBox="0 0 226 600"><defs><style>.cls-1{fill:#fff;}.cls-1,.cls-2,.cls-3,.cls-4,.cls-5,.cls-6,.cls-7{stroke-miterlimit:10;}.cls-1,.cls-4,.cls-5,.cls-6{stroke:#c6c6c6;}.cls-2,.cls-3,.cls-4,.cls-5,.cls-6,.cls-7{fill:none;}.cls-2,.cls-7{stroke:#434b9f;}.cls-3{stroke:#ec1c24;}.cls-3,.cls-4,.cls-6{stroke-width:2.5px;}.cls-4{stroke-linecap:square;}.cls-8{fill:#ec1c24;}.cls-9{fill:#231f20;font-family:ArialMT, Arial;font-size:23.31px;}.cls-7{stroke-width:2px;}.cls-10{fill:#c6c6c6;}.cls-11{letter-spacing:-.02em;}</style></defs><g id="Layer_22"><rect class="cls-1" x=".05" width="226" height="600"/></g><g id="Layer_16"><g id="Cable_-_bottom_top_feed"><line class="cls-4" x1="182.58" y1="559.48" x2="182.58" y2="541.02"/><path class="cls-10" d="m186.39,534.54l-3.8,5.24-3.8-5.24h7.61m3.92-2h-15.45l2.3,3.17,3.8,5.24,1.62,2.23,1.62-2.23,3.8-5.24,2.3-3.17h0Zm-3.92,4h0,0Z"/><line class="cls-4" x1="113.01" y1="559.48" x2="182.58" y2="559.48"/></g><line id="Center_right" class="cls-6" x1="52.84" y1="306.49" x2="173.26" y2="306.49"/><g id="Breaker_-_bottom"><g><line class="cls-3" x1="113.01" y1="433.65" x2="113.01" y2="421.21"/><polygon class="cls-8" points="120.68 427.43 119.31 428.71 113.02 421.93 106.72 428.71 105.35 427.43 113.02 419.18 120.68 427.43"/></g><polygon class="cls-8" points="120.68 422.06 119.31 423.34 113.02 416.57 106.72 423.34 105.35 422.06 113.02 413.81 120.68 422.06"/><line class="cls-3" x1="113.01" y1="416.1" x2="113.01" y2="307.19"/><polygon class="cls-3" points="106.42 446.05 119.61 446.05 119.61 432.98 112.71 432.98 106.42 432.98 106.42 446.05"/><g><line class="cls-3" x1="113.01" y1="445.27" x2="113.01" y2="457.71"/><polygon class="cls-8" points="105.35 451.49 106.72 450.21 113.01 456.99 119.31 450.21 120.68 451.49 113.01 459.74 105.35 451.49"/></g><polygon class="cls-8" points="105.29 456.3 106.66 455.02 112.96 461.79 119.25 455.02 120.63 456.3 112.96 464.54 105.29 456.3"/><line class="cls-3" x1="113.01" y1="559.48" x2="113.01" y2="462.89"/></g><g id="Breaker_-_top"><g><line class="cls-6" x1="113" y1="164.55" x2="113" y2="178.76"/><polygon class="cls-10" points="105.33 172.55 106.7 171.27 113 178.04 119.29 171.27 120.67 172.55 113 180.79 105.33 172.55"/></g><polygon class="cls-10" points="105.33 178.57 106.7 177.29 113 184.06 119.29 177.29 120.67 178.57 113 186.82 105.33 178.57"/><line class="cls-6" x1="113" y1="184.25" x2="113" y2="306.49"/><polygon class="cls-6" points="119.59 150.64 106.41 150.64 106.41 165.31 113.31 165.31 119.59 165.31 119.59 150.64"/><g><line class="cls-6" x1="113" y1="151.51" x2="113" y2="137.31"/><polygon class="cls-10" points="120.67 143.52 119.29 144.8 113 138.02 106.71 144.8 105.33 143.52 113 135.27 120.67 143.52"/></g><polygon class="cls-10" points="120.72 138.13 119.35 139.4 113.06 132.63 106.76 139.4 105.39 138.13 113.06 129.88 120.72 138.13"/><line class="cls-6" x1="113" y1="46.59" x2="113" y2="131.74"/></g><g id="Cable_-_top_top_feed"><line class="cls-4" x1="182.57" y1="46.59" x2="182.57" y2="28.13"/><path class="cls-10" d="m186.37,21.65l-3.8,5.24-3.8-5.24h7.61m3.92-2h-15.45l2.3,3.17,3.8,5.24,1.62,2.23,1.62-2.23,3.8-5.24,2.3-3.17h0Zm-3.92,4h0,0Z"/><line class="cls-4" x1="113" y1="46.59" x2="182.57" y2="46.59"/></g></g><g id="CT2"><g id="gct2"><g><path class="cls-7" d="m105.83,385.28c-2.82,0-5.1-2.28-5.1-5.1s2.28-5.1,5.1-5.1"/><path class="cls-7" d="m105.83,395.48c-2.82,0-5.1-2.28-5.1-5.1s2.28-5.1,5.1-5.1"/><line class="cls-7" x1="105.83" y1="375.08" x2="136.65" y2="375.08"/><line class="cls-7" x1="105.83" y1="395.48" x2="124.37" y2="395.48"/><line class="cls-7" x1="105.83" y1="385.28" x2="117.91" y2="385.28"/></g><line class="cls-2" x1="124.37" y1="391.48" x2="124.37" y2="399.49"/><line class="cls-2" x1="127.18" y1="392.68" x2="127.18" y2="398.28"/><line class="cls-2" x1="129.9" y1="394.07" x2="129.9" y2="396.9"/><text class="cls-9" transform="translate(57.18 394.07)"><tspan x="0" y="0">C</tspan><tspan class="cls-11" x="16.83" y="0">T</tspan></text></g><rect class="cls-5" width="226" height="600"/></g></svg>