<?xml version="1.0" encoding="UTF-8"?><svg id="Front_View" xmlns="http://www.w3.org/2000/svg" viewBox="0 0 226 600"><defs><style>.cls-1,.cls-2,.cls-3,.cls-4{fill:none;stroke:#231f20;stroke-miterlimit:10;}.cls-5{letter-spacing:-.08em;}.cls-2{stroke-linecap:round;}.cls-3{stroke-linecap:square;}.cls-6{fill:#231f20;font-family:Calibri, Calibri;font-size:21px;}.cls-7{letter-spacing:-.01em;}.cls-8{letter-spacing:0em;}.cls-4{stroke-width:.5px;}</style></defs><rect id="Frame" class="cls-1" y=".7" width="226.43" height="600"/><g id="BR-Btm"><rect class="cls-1" x="8.1" y="361.64" width="215.44" height="234.92"/><rect class="cls-1" x="2.93" y="369.53" width="5.17" height="27.28"/><rect class="cls-1" x="2.93" y="561.82" width="5.17" height="27.28"/><rect class="cls-1" x="210.9" y="474.05" width="7.14" height="38.97"/><rect class="cls-1" x="75.1" y="491.48" width="76.73" height="52.91" rx="12" ry="12"/><rect class="cls-1" x="210.9" y="473.85" width="6.98" height="39.15"/><line class="cls-4" x1="91.75" y1="533.01" x2="130.64" y2="499.34"/><line class="cls-4" x1="96.82" y1="536.53" x2="135.71" y2="502.85"/><line class="cls-4" x1="80.99" y1="506.74" x2="93.58" y2="495.84"/><line class="cls-4" x1="82" y1="510.54" x2="94.59" y2="499.64"/><line class="cls-4" x1="131.4" y1="537.17" x2="143.99" y2="526.27"/><line class="cls-4" x1="132.42" y1="540.97" x2="145.01" y2="530.07"/><g><polyline class="cls-1" points="130.64 580.27 130.64 587.92 97.79 587.92 97.79 567.95 130.64 567.95 130.64 574.96"/><circle class="cls-1" cx="113.47" cy="577.93" r="4.45"/><line class="cls-2" x1="130.64" y1="574.96" x2="146.24" y2="574.96"/><line class="cls-2" x1="123.88" y1="574.96" x2="130.64" y2="574.96"/><line class="cls-2" x1="146.24" y1="579.01" x2="146.24" y2="574.96"/><line class="cls-2" x1="130.64" y1="580.27" x2="133.29" y2="579.01"/><line class="cls-2" x1="128.71" y1="581.17" x2="130.64" y2="580.27"/><line class="cls-2" x1="146.24" y1="579.01" x2="133.29" y2="579.01"/><line class="cls-2" x1="128.71" y1="581.17" x2="123.88" y2="581.17"/><line class="cls-3" x1="123.88" y1="574.96" x2="123.88" y2="581.17"/></g></g><g id="PT-1"><rect class="cls-1" x="8.31" y="4.72" width="215" height="113.87"/><rect class="cls-1" x="3.14" y="13.04" width="5.17" height="27.07"/><rect class="cls-1" x="3.14" y="85.43" width="4.73" height="26.93"/><text class="cls-6" transform="translate(68.3 49.34)"><tspan class="cls-7" x="0" y="0">P</tspan><tspan class="cls-8" x="10.55" y="0">T</tspan></text></g><g id="LV-Medium"><rect class="cls-1" x="8.31" y="122.9" width="215" height="233.64"/><rect class="cls-1" x="3.14" y="315.93" width="4.73" height="27.28"/><rect class="cls-1" x="210.78" y="180.63" width="7.21" height="40.2"/><rect class="cls-1" x="3.15" y="148.08" width="4.73" height="27.28"/><text class="cls-6" transform="translate(64.18 196.59)"><tspan class="cls-5" x="0" y="0">L</tspan><tspan class="cls-8" x="7.11" y="0">V</tspan></text></g></svg>