<?xml version="1.0" encoding="UTF-8"?><svg id="CLICK_ME" xmlns="http://www.w3.org/2000/svg" viewBox="0 0 226 600"><defs><style>.cls-1,.cls-2{fill:none;stroke:#d1d3d4;stroke-miterlimit:10;stroke-width:2.5px;}.cls-2{stroke-linecap:square;}.cls-3{fill:#d1d3d4;}</style></defs><g id="Cable_-_bottom_top_feed"><line class="cls-2" x1="182.84" y1="553.05" x2="182.84" y2="534.59"/><path class="cls-3" d="m186.64,528.11l-3.8,5.24-3.8-5.24h7.61m3.92-2h-15.45l2.3,3.17,3.8,5.24,1.62,2.23,1.62-2.23,3.8-5.24,2.3-3.17h0Zm-3.92,4h0,0Z"/><line class="cls-2" x1="113.27" y1="553.05" x2="182.84" y2="553.05"/></g><line id="Center_right" class="cls-1" x1=".27" y1="40.1" x2="226" y2="40.1"/><g><line class="cls-1" x1="113.27" y1="427.22" x2="113.27" y2="414.79"/><polygon class="cls-3" points="120.94 421 119.56 422.28 113.27 415.51 106.98 422.28 105.6 421 113.27 412.75 120.94 421"/></g><polygon class="cls-3" points="120.94 415.63 119.56 416.91 113.27 410.14 106.98 416.91 105.6 415.63 113.27 407.38 120.94 415.63"/><line class="cls-1" x1="113.27" y1="409.67" x2="113.27" y2="40.16"/><polygon class="cls-1" points="106.68 439.62 119.86 439.62 119.86 426.55 112.96 426.55 106.68 426.55 106.68 439.62"/><g><line class="cls-1" x1="113.27" y1="438.84" x2="113.27" y2="451.28"/><polygon class="cls-3" points="105.6 445.07 106.97 443.79 113.27 450.56 119.56 443.79 120.94 445.07 113.27 453.31 105.6 445.07"/></g><polygon class="cls-3" points="105.55 449.87 106.92 448.59 113.21 455.36 119.51 448.59 120.88 449.87 113.21 458.12 105.55 449.87"/><line class="cls-1" x1="113.27" y1="553.05" x2="113.27" y2="456.46"/></svg>