<?xml version="1.0" encoding="UTF-8"?><svg id="VT" xmlns="http://www.w3.org/2000/svg" viewBox="0 0 458 600"><defs><style>.cls-1{fill:#2e3192;}.cls-2{letter-spacing:-.02em;}.cls-3{fill:#231f20;font-family:ArialMT, Arial;font-size:14px;}.cls-4{fill:none;stroke:#2e3192;stroke-linecap:round;stroke-miterlimit:10;}</style></defs><g id="VT1"><g id="VT1_4"><text class="cls-3" transform="translate(236.26 512.04)"><tspan x="0" y="0">(3) V</tspan><tspan class="cls-2" x="30.34" y="0">T</tspan><tspan x="38.64" y="0" xml:space="preserve"> -</tspan><tspan class="cls-2" x="47.19" y="0" xml:space="preserve"> Y</tspan></text><line class="cls-4" x1="160.07" y1="516.51" x2="150.47" y2="516.51"/><rect class="cls-4" x="166.57" y="505.12" width="9.82" height="22.82" transform="translate(-345.05 688) rotate(-90)"/><line class="cls-4" x1="163.07" y1="520.98" x2="163.07" y2="511.62"/><line class="cls-4" x1="179.94" y1="521.43" x2="179.94" y2="511.62"/><line class="cls-4" x1="192.25" y1="522.68" x2="187.65" y2="522.68"/><line class="cls-4" x1="192.25" y1="509.91" x2="187.65" y2="509.91"/><path class="cls-4" d="m192.25,516.3c2.15,0,3.89,1.43,3.89,3.19s-1.74,3.19-3.89,3.19"/><path class="cls-4" d="m192.25,509.91c2.15,0,3.89,1.43,3.89,3.19s-1.74,3.19-3.89,3.19"/><line class="cls-4" x1="192.25" y1="516.3" x2="182.89" y2="516.3"/><line class="cls-4" x1="147.48" y1="516.46" x2="150.28" y2="512.14"/><line class="cls-4" x1="150.47" y1="516.51" x2="153.46" y2="512.09"/><line class="cls-4" x1="202.65" y1="509.91" x2="207.26" y2="509.91"/><line class="cls-4" x1="202.65" y1="522.68" x2="207.26" y2="522.68"/><path class="cls-4" d="m202.65,516.3c-2.15,0-3.89-1.43-3.89-3.19s1.74-3.19,3.89-3.19"/><path class="cls-4" d="m202.65,522.68c-2.15,0-3.89-1.43-3.89-3.19s1.74-3.19,3.89-3.19"/><line class="cls-4" x1="153.28" y1="520.85" x2="150.47" y2="516.52"/><line class="cls-4" x1="150.47" y1="520.88" x2="147.48" y2="516.46"/><g><line class="cls-4" x1="3" y1="516.38" x2="147.48" y2="516.38"/><circle class="cls-1" cx="3" cy="516.38" r="2.26" transform="translate(-475.22 321.54) rotate(-67.5)"/></g><g><line class="cls-4" x1="202.65" y1="516.28" x2="215.38" y2="516.26"/><line class="cls-4" x1="215.38" y1="516.26" x2="212.39" y2="520.67"/><line class="cls-4" x1="212.57" y1="511.91" x2="215.38" y2="516.24"/><line class="cls-4" x1="218.37" y1="516.27" x2="220.39" y2="516.27"/><line class="cls-4" x1="218.37" y1="516.27" x2="215.38" y2="520.68"/><line class="cls-4" x1="215.56" y1="511.92" x2="218.37" y2="516.25"/></g></g></g></svg>