<?xml version="1.0" encoding="UTF-8"?><svg id="CPT" xmlns="http://www.w3.org/2000/svg" viewBox="0 0 226 600"><defs><style>.cls-1{letter-spacing:-.07em;}.cls-2{letter-spacing:-.06em;}.cls-3{letter-spacing:0em;}.cls-4{letter-spacing:-.02em;}.cls-5{fill:none;stroke:#2e3192;stroke-miterlimit:10;}.cls-6{letter-spacing:0em;}.cls-7{fill:#231f20;font-family:ArialMT, Arial;font-size:14px;}.cls-8{letter-spacing:-.02em;}</style></defs><g id="CPT3"><g id="PT"><line class="cls-5" x1="113" y1="300.7" x2="112.88" y2="397.87"/><line class="cls-5" x1="113.01" y1="397.89" x2="107.28" y2="401.61"/><line class="cls-5" x1="112.89" y1="402.01" x2="107.05" y2="405.97"/><line class="cls-5" x1="112.89" y1="413.14" x2="112.89" y2="402.01"/><rect class="cls-5" x="107.83" y="413.14" width="9.82" height="14.68"/><line class="cls-5" x1="108.29" y1="416.07" x2="117.65" y2="416.07"/><line class="cls-5" x1="107.83" y1="425.27" x2="117.65" y2="425.27"/><line class="cls-5" x1="105.9" y1="470.97" x2="105.9" y2="468"/><line class="cls-5" x1="120.07" y1="470.97" x2="120.07" y2="468"/><path class="cls-5" d="m112.99,470.97c0,1.38-1.59,2.5-3.54,2.5s-3.54-1.12-3.54-2.5"/><path class="cls-5" d="m120.07,470.97c0,1.38-1.59,2.5-3.54,2.5s-3.54-1.12-3.54-2.5"/><line class="cls-5" x1="112.87" y1="397.88" x2="118.6" y2="401.6"/><line class="cls-5" x1="112.99" y1="402" x2="118.83" y2="405.96"/><line class="cls-5" x1="105.9" y1="478.58" x2="105.9" y2="481.54"/><line class="cls-5" x1="120.07" y1="478.58" x2="120.07" y2="481.54"/><path class="cls-5" d="m112.99,478.58c0-1.38-1.59-2.5-3.54-2.5s-3.54,1.12-3.54,2.5"/><path class="cls-5" d="m120.07,478.58c0-1.38-1.59-2.5-3.54-2.5s-3.54,1.12-3.54,2.5"/><line class="cls-5" x1="112.99" y1="478.58" x2="112.99" y2="495.58"/><line class="cls-5" x1="112.87" y1="427.81" x2="112.87" y2="438.21"/><line class="cls-5" x1="112.94" y1="442.81" x2="112.94" y2="470.97"/><line class="cls-5" x1="112.94" y1="442.81" x2="107.21" y2="439.1"/><line class="cls-5" x1="112.8" y1="442.82" x2="118.53" y2="439.1"/><line class="cls-5" x1="112.82" y1="438.85" x2="106.98" y2="434.9"/><line class="cls-5" x1="112.92" y1="438.86" x2="118.76" y2="434.9"/></g><text class="cls-7" transform="translate(127.69 425.27)"><tspan x="0" y="0">(1) FUSE</tspan><tspan class="cls-4" x="58.34" y="0"> </tspan><tspan class="cls-3" x="61.97" y="0">TR.</tspan></text><text class="cls-7" transform="translate(128.54 478.58)"><tspan x="0" y="0">(1) CP</tspan><tspan class="cls-8" x="40.45" y="0">T</tspan><tspan class="cls-6" x="48.75" y="0" xml:space="preserve"> FIX</tspan><tspan x="0" y="16.8">25-75 k</tspan><tspan class="cls-1" x="46.7" y="16.8">V</tspan><tspan class="cls-2" x="55" y="16.8">A</tspan></text></g></svg>