<?xml version="1.0" encoding="UTF-8"?><svg id="SIDE_VIEW" xmlns="http://www.w3.org/2000/svg" viewBox="0 0 581 600"><defs><style>.cls-1{fill:#010101;font-family:ArialMT, Arial;font-size:17.8px;}.cls-2{fill:none;stroke:#010101;stroke-linecap:round;stroke-linejoin:round;}.cls-3{letter-spacing:-.02em;}</style></defs><g id="VT"><g id="VT2"><g id="LINE"><line class="cls-2" x1="532.88" y1="465.37" x2="467.21" y2="465.37"/></g><g id="CIRCLE"><circle class="cls-2" cx="537.45" cy="471.6" r="7.72"/></g><g id="CIRCLE-2"><circle class="cls-2" cx="462.67" cy="471.62" r="7.72"/></g><g id="LINE-2"><line class="cls-2" x1="548.38" y1="476.1" x2="569.41" y2="476.1"/></g><g id="LINE-3"><line class="cls-2" x1="569.41" y1="476.1" x2="569.41" y2="465.37"/></g><g id="LWPOLYLINE"><line class="cls-2" x1="531.18" y1="476.1" x2="468.97" y2="476.1"/></g><g id="LWPOLYLINE-2"><polyline class="cls-2" points="456.38 476.1 453.64 476.1 453.64 465.37 458.13 465.37"/></g><g id="LWPOLYLINE-3"><line class="cls-2" x1="467.21" y1="465.37" x2="532.88" y2="465.37"/></g><g id="LINE-4"><line class="cls-2" x1="447.05" y1="394.75" x2="447.05" y2="413.73"/></g><g id="LWPOLYLINE-4"><rect class="cls-2" x="415.26" y="401.89" width="31.78" height="4.95"/></g><g id="LINE-5"><line class="cls-2" x1="415.26" y1="401.89" x2="413.07" y2="404.25"/></g><g id="LINE-6"><line class="cls-2" x1="413.07" y1="404.25" x2="415.26" y2="406.84"/></g><g id="LINE-7"><line class="cls-2" x1="542.03" y1="465.37" x2="569.41" y2="465.37"/></g><g id="LINE-8"><line class="cls-2" x1="543.73" y1="476.1" x2="548.38" y2="476.1"/></g><g id="LWPOLYLINE-5"><rect class="cls-2" x="467.25" y="419.06" width="62.65" height="46.31"/></g><g id="LWPOLYLINE-6"><rect class="cls-2" x="447.05" y="394.75" width="93.88" height="24.31"/></g><g id="MTEXT"><text class="cls-1" transform="translate(386.97 449.63)"><tspan x="0" y="0">V</tspan><tspan class="cls-3" x="11.87" y="0">T</tspan></text></g></g></g></svg>