<?xml version="1.0" encoding="UTF-8"?>
<svg id="CPT" xmlns="http://www.w3.org/2000/svg" viewBox="0 0 458 600">
    <defs>
        <style>.cls-1{stroke-linejoin:round;}.cls-1,.cls-2{fill:none;stroke:#2e3192;stroke-linecap:round;}.cls-3{letter-spacing:-.07em;}.cls-4{letter-spacing:-.06em;}.cls-5{fill:#2e3192;}.cls-6{letter-spacing:0em;}.cls-7{fill:#231f20;font-family:ArialMT,
            Arial;font-size:14px;}.cls-2{stroke-miterlimit:10;}.cls-8{letter-spacing:-.02em;}</style>
    </defs>
    <g id="CPT24">
        <text class="cls-7" transform="translate(238.93 94.04)">
            <tspan x="0" y="0">(1) CP</tspan>
            <tspan class="cls-8" x="40.45" y="0">T</tspan>
        </text>
        <g>
            <line class="cls-2" x1="136.73" y1="98.89" x2="149.71" y2="98.89" />
            <line class="cls-2" x1="162.3" y1="98.93" x2="152.7" y2="98.93" />
            <rect class="cls-2" x="168.8" y="87.54" width="9.82" height="22.82"
                transform="translate(74.76 272.66) rotate(-90)" />
            <line class="cls-2" x1="165.3" y1="103.4" x2="165.3" y2="94.04" />
            <line class="cls-2" x1="182.12" y1="103.86" x2="182.12" y2="94.04" />
            <line class="cls-2" x1="194.49" y1="105.11" x2="189.88" y2="105.11" />
            <line class="cls-2" x1="194.49" y1="92.34" x2="189.88" y2="92.34" />
            <path class="cls-2" d="m194.49,98.72c2.15,0,3.89,1.43,3.89,3.19s-1.74,3.19-3.89,3.19" />
            <path class="cls-2" d="m194.49,92.34c2.15,0,3.89,1.43,3.89,3.19s-1.74,3.19-3.89,3.19" />
            <line class="cls-2" x1="194.49" y1="98.72" x2="185.12" y2="98.72" />
            <line class="cls-2" x1="149.71" y1="98.89" x2="152.52" y2="94.56" />
            <line class="cls-2" x1="152.7" y1="98.93" x2="155.69" y2="94.52" />
            <line class="cls-2" x1="204.88" y1="92.34" x2="209.49" y2="92.34" />
            <line class="cls-2" x1="204.88" y1="105.11" x2="209.49" y2="105.11" />
            <path class="cls-2" d="m204.88,98.72c-2.15,0-3.89-1.43-3.89-3.19s1.74-3.19,3.89-3.19" />
            <path class="cls-2" d="m204.88,105.11c-2.15,0-3.89-1.43-3.89-3.19s1.74-3.19,3.89-3.19" />
            <line class="cls-2" x1="155.51" y1="103.28" x2="152.7" y2="98.95" />
            <line class="cls-2" x1="152.7" y1="103.3" x2="149.71" y2="98.89" />
            <g>
                <line class="cls-2" x1="204.38" y1="98.72" x2="217.11" y2="98.7" />
                <line class="cls-2" x1="217.11" y1="98.7" x2="214.12" y2="103.12" />
                <line class="cls-2" x1="214.3" y1="94.36" x2="217.11" y2="98.68" />
                <line class="cls-2" x1="220.1" y1="98.71" x2="222.11" y2="98.71" />
                <line class="cls-2" x1="220.1" y1="98.71" x2="217.11" y2="103.12" />
                <line class="cls-2" x1="217.29" y1="94.36" x2="220.1" y2="98.69" />
            </g>
        </g>
        <line class="cls-1" x1="136.76" y1="70.01" x2="136.73" y2="98.89" />
        <g>
            <line class="cls-2" x1="3" y1="70.12" x2="136.76" y2="70.01" />
            <path class="cls-5"
                d="m3,72.38c-1.25,0-2.26-1.01-2.26-2.25,0-1.25,1.01-2.26,2.25-2.26,1.25,0,2.26,1.01,2.26,2.25,0,1.25-1.01,2.26-2.25,2.26Z" />
        </g>
    </g>
</svg>