<?xml version="1.0" encoding="UTF-8"?>
<svg id="CPT" xmlns="http://www.w3.org/2000/svg" viewBox="0 0 458 600">
    <defs>
        <style>.cls-1{stroke-linejoin:round;}.cls-1,.cls-2{fill:none;stroke:#2e3192;stroke-linecap:round;}.cls-3{letter-spacing:-.07em;}.cls-4{letter-spacing:-.06em;}.cls-5{fill:#2e3192;}.cls-6{letter-spacing:0em;}.cls-7{fill:#231f20;font-family:ArialMT,
            Arial;font-size:14px;}.cls-2{stroke-miterlimit:10;}.cls-8{letter-spacing:-.02em;}</style>
    </defs>
    <g id="CPT25">
        <text class="cls-7" transform="translate(238.93 94.04)">
            <tspan x="0" y="0">(1) CP</tspan>
            <tspan class="cls-8" x="40.45" y="0">T</tspan>
        </text>
        <g>
            <line class="cls-2" x1="346.98" y1="98.59" x2="209.14" y2="98.59" />
            <line class="cls-2" x1="196.55" y1="98.53" x2="206.15" y2="98.55" />
            <rect class="cls-2" x="180.23" y="87.09" width="9.82" height="22.82"
                transform="translate(283.87 -86.51) rotate(90.07)" />
            <line class="cls-2" x1="193.55" y1="94.06" x2="193.54" y2="103.42" />
            <line class="cls-2" x1="176.73" y1="93.58" x2="176.72" y2="103.4" />
            <line class="cls-2" x1="164.37" y1="92.32" x2="168.97" y2="92.33" />
            <line class="cls-2" x1="164.35" y1="105.09" x2="168.96" y2="105.09" />
            <path class="cls-2" d="m164.36,98.7c-2.15,0-3.89-1.43-3.89-3.2s1.75-3.19,3.9-3.19" />
            <path class="cls-2" d="m164.35,105.09c-2.15,0-3.89-1.43-3.89-3.2s1.75-3.19,3.9-3.19" />
            <line class="cls-2" x1="164.36" y1="98.7" x2="173.73" y2="98.72" />
            <line class="cls-2" x1="209.14" y1="98.59" x2="206.32" y2="102.92" />
            <line class="cls-2" x1="206.15" y1="98.55" x2="203.15" y2="102.96" />
            <line class="cls-2" x1="153.95" y1="105.08" x2="149.34" y2="105.07" />
            <line class="cls-2" x1="153.97" y1="92.31" x2="149.36" y2="92.3" />
            <path class="cls-2" d="m153.96,98.69c2.15,0,3.89,1.43,3.89,3.2s-1.75,3.19-3.9,3.19" />
            <path class="cls-2" d="m153.97,92.31c2.15,0,3.89,1.43,3.89,3.2s-1.75,3.19-3.9,3.19" />
            <line class="cls-2" x1="203.34" y1="94.2" x2="206.15" y2="98.53" />
            <line class="cls-2" x1="206.15" y1="94.18" x2="209.14" y2="98.59" />
            <g>
                <line class="cls-2" x1="154.46" y1="98.69" x2="141.74" y2="98.7" />
                <line class="cls-2" x1="141.74" y1="98.7" x2="144.73" y2="94.29" />
                <line class="cls-2" x1="144.54" y1="103.05" x2="141.74" y2="98.72" />
                <line class="cls-2" x1="138.75" y1="98.69" x2="136.73" y2="98.68" />
                <line class="cls-2" x1="138.75" y1="98.69" x2="141.74" y2="94.28" />
                <line class="cls-2" x1="141.55" y1="103.03" x2="138.75" y2="98.7" />
            </g>
        </g>
        <line class="cls-1" x1="346.96" y1="69.38" x2="347" y2="98.26" />
        <g>
            <line class="cls-2" x1="455" y1="69.52" x2="346.96" y2="69.38" />
            <path class="cls-5"
                d="m455,67.26c1.25,0,2.25,1.01,2.25,2.26,0,1.25-1.01,2.25-2.26,2.25-1.25,0-2.25-1.01-2.25-2.26,0-1.25,1.01-2.25,2.26-2.25Z" />
        </g>
    </g>
</svg>