<?xml version="1.0" encoding="UTF-8"?><svg xmlns="http://www.w3.org/2000/svg" viewBox="0 0 227.43 601"><defs><style>.cls-1,.cls-2{stroke:#ed1c24;stroke-width:2.5px;}.cls-1,.cls-2,.cls-3{fill:none;stroke-miterlimit:10;}.cls-4{letter-spacing:0em;}.cls-2{stroke-linecap:square;}.cls-5{fill:#ed1c24;}.cls-6{letter-spacing:-.02em;}.cls-3{stroke:#2e3192;}.cls-7{fill:#231f20;font-family:ArialMT, Arial;font-size:14px;}.cls-8{letter-spacing:-.04em;}</style></defs><g id="VT"><g id="VT2"><g id="PT"><line class="cls-3" x1="113.51" y1="411.04" x2="98.17" y2="411.27"/><line class="cls-3" x1="98.17" y1="411.27" x2="94.46" y2="405.54"/><line class="cls-3" x1="94.05" y1="411.15" x2="90.1" y2="405.31"/><line class="cls-3" x1="87.5" y1="411.15" x2="94.05" y2="411.15"/><rect class="cls-3" x="75.26" y="403.8" width="9.82" height="14.68" transform="translate(491.3 330.97) rotate(90)"/><line class="cls-3" x1="84.57" y1="406.68" x2="84.57" y2="416.04"/><line class="cls-3" x1="75.36" y1="406.23" x2="75.36" y2="416.04"/><line class="cls-3" x1="65.93" y1="404.28" x2="68.89" y2="404.28"/><line class="cls-3" x1="65.93" y1="418.45" x2="68.89" y2="418.45"/><path class="cls-3" d="m65.93,411.36c-1.38,0-2.5-1.59-2.5-3.54s1.12-3.54,2.5-3.54"/><path class="cls-3" d="m65.93,418.45c-1.38,0-2.5-1.59-2.5-3.54s1.12-3.54,2.5-3.54"/><line class="cls-3" x1="65.93" y1="411.36" x2="72.83" y2="411.36"/><line class="cls-3" x1="98.18" y1="411.13" x2="94.46" y2="416.86"/><line class="cls-3" x1="94.06" y1="411.25" x2="90.1" y2="417.09"/><line class="cls-3" x1="58.32" y1="404.28" x2="55.36" y2="404.28"/><line class="cls-3" x1="58.32" y1="418.45" x2="55.36" y2="418.45"/><path class="cls-3" d="m58.32,411.36c1.38,0,2.5-1.59,2.5-3.54s-1.12-3.54-2.5-3.54"/><path class="cls-3" d="m58.32,418.45c1.38,0,2.5-1.59,2.5-3.54s-1.12-3.54-2.5-3.54"/><line class="cls-3" x1="58.32" y1="411.36" x2="47.93" y2="411.36"/><line class="cls-3" x1="39.03" y1="411.43" x2="43.32" y2="411.43"/><line class="cls-3" x1="43.32" y1="411.43" x2="47.04" y2="405.7"/><line class="cls-3" x1="43.32" y1="411.3" x2="47.03" y2="417.02"/><line class="cls-3" x1="47.28" y1="411.31" x2="51.24" y2="405.47"/><line class="cls-3" x1="47.27" y1="411.41" x2="51.23" y2="417.25"/><line class="cls-3" x1="59.81" y1="424.89" x2="64.68" y2="430.45"/><line class="cls-3" x1="69.55" y1="425.12" x2="64.68" y2="430.45"/><line class="cls-3" x1="64.68" y1="436.67" x2="64.68" y2="430.45"/><line class="cls-3" x1="74.43" y1="430.45" x2="64.68" y2="430.45"/><line class="cls-3" x1="74.43" y1="441.16" x2="74.43" y2="430.45"/><line class="cls-3" x1="80.04" y1="441.16" x2="68.82" y2="441.16"/><line class="cls-3" x1="78.4" y1="443.3" x2="70.46" y2="443.3"/><line class="cls-3" x1="76.76" y1="445.43" x2="72.1" y2="445.43"/></g><text class="cls-7" transform="translate(120.31 418.3)"><tspan x="0" y="0">(3) V</tspan><tspan class="cls-6" x="30.34" y="0">T</tspan><tspan x="38.64" y="0" xml:space="preserve"> -</tspan><tspan class="cls-6" x="47.19" y="0" xml:space="preserve"> Y</tspan><tspan x="0" y="16.8">13.8k</tspan><tspan class="cls-8" x="34.25" y="16.8">V</tspan><tspan class="cls-4" x="43.07" y="16.8">:120V</tspan></text></g></g><g id="BUSBARS"><g id="Cable_-_bottom_bottom_feed"><line class="cls-2" x1="183.27" y1="552.79" x2="183.27" y2="571.25"/><path class="cls-5" d="m183.27,572.49l3.8,5.24h-7.61l3.8-5.24m0-3.41l-1.62,2.23-3.8,5.24-2.3,3.17h15.45l-2.3-3.17-3.8-5.24-1.62-2.23h0Z"/><line class="cls-2" x1="113.7" y1="552.79" x2="183.27" y2="552.79"/></g><line id="Center_left" class="cls-1" x1=".72" y1="300.5" x2="113.72" y2="300.5"/><line id="Center_right" class="cls-1" x1="113.7" y1="300.5" x2="226.7" y2="300.5"/><line id="No_breaker-_bottom" class="cls-1" x1="113.72" y1="300.5" x2="113.7" y2="552.79"/></g></svg>