<?xml version="1.0" encoding="UTF-8"?><svg id="SIDE_VIEW" xmlns="http://www.w3.org/2000/svg" viewBox="0 0 581 600"><defs><style>.cls-1{fill:#010101;font-family:ArialMT, Arial;font-size:17.8px;}.cls-2{fill:none;stroke:#010101;stroke-linecap:round;stroke-linejoin:round;}.cls-3{letter-spacing:-.02em;}</style></defs><g id="VT"><g id="VT1"><g id="LINE"><line class="cls-2" x1="532.9" y1="585.18" x2="467.23" y2="585.18"/></g><g id="CIRCLE"><circle class="cls-2" cx="537.47" cy="591.41" r="7.72"/></g><g id="CIRCLE-2"><circle class="cls-2" cx="462.69" cy="591.43" r="7.72"/></g><g id="LINE-2"><line class="cls-2" x1="548.4" y1="595.91" x2="569.43" y2="595.91"/></g><g id="LINE-3"><line class="cls-2" x1="569.43" y1="595.91" x2="569.43" y2="585.18"/></g><g id="LWPOLYLINE"><line class="cls-2" x1="531.19" y1="595.91" x2="468.99" y2="595.91"/></g><g id="LWPOLYLINE-2"><polyline class="cls-2" points="456.4 595.91 453.66 595.91 453.66 585.18 458.15 585.18"/></g><g id="LWPOLYLINE-3"><line class="cls-2" x1="467.23" y1="585.18" x2="532.9" y2="585.18"/></g><g id="LINE-4"><line class="cls-2" x1="447.07" y1="514.56" x2="447.07" y2="533.54"/></g><g id="LWPOLYLINE-4"><rect class="cls-2" x="415.28" y="521.71" width="31.78" height="4.95"/></g><g id="LINE-5"><line class="cls-2" x1="415.28" y1="521.71" x2="413.09" y2="524.06"/></g><g id="LINE-6"><line class="cls-2" x1="413.09" y1="524.06" x2="415.28" y2="526.66"/></g><g id="LINE-7"><line class="cls-2" x1="542.04" y1="585.18" x2="569.43" y2="585.18"/></g><g id="LINE-8"><line class="cls-2" x1="543.75" y1="595.91" x2="548.4" y2="595.91"/></g><g id="LWPOLYLINE-5"><rect class="cls-2" x="467.27" y="538.87" width="62.65" height="46.31"/></g><g id="LWPOLYLINE-6"><rect class="cls-2" x="447.07" y="514.56" width="93.88" height="24.31"/></g><g id="MTEXT"><text class="cls-1" transform="translate(386.9 569.44)"><tspan x="0" y="0">V</tspan><tspan class="cls-3" x="11.87" y="0">T</tspan></text></g></g></g></svg>