<?xml version="1.0" encoding="UTF-8"?><svg xmlns="http://www.w3.org/2000/svg" viewBox="0 0 227.43 601"><defs><style>.cls-1{stroke:#231f20;}.cls-1,.cls-2,.cls-3,.cls-4{fill:none;stroke-miterlimit:10;}.cls-2,.cls-3{stroke:#ed1c24;stroke-width:2.5px;}.cls-5{letter-spacing:-.07em;}.cls-6{letter-spacing:-.06em;}.cls-3{stroke-linecap:square;}.cls-7{fill:#ed1c24;}.cls-4{stroke:#2e3192;}.cls-8{letter-spacing:0em;}.cls-9{fill:#231f20;font-family:ArialMT, Arial;font-size:14px;}.cls-10{letter-spacing:-.02em;}</style></defs><g id="CPT"><g id="CPT3"><g id="PT"><line class="cls-4" x1="113.72" y1="300.5" x2="113.59" y2="397.67"/><line class="cls-4" x1="113.72" y1="397.69" x2="108" y2="401.41"/><line class="cls-4" x1="113.61" y1="401.81" x2="107.77" y2="405.77"/><line class="cls-4" x1="113.61" y1="412.94" x2="113.61" y2="401.81"/><rect class="cls-4" x="108.55" y="412.94" width="9.82" height="14.68"/><line class="cls-4" x1="109" y1="415.87" x2="118.36" y2="415.87"/><line class="cls-4" x1="108.55" y1="425.07" x2="118.36" y2="425.07"/><line class="cls-4" x1="106.62" y1="470.77" x2="106.62" y2="467.8"/><line class="cls-4" x1="120.79" y1="470.77" x2="120.79" y2="467.8"/><path class="cls-4" d="m113.7,470.77c0,1.38-1.59,2.5-3.54,2.5s-3.54-1.12-3.54-2.5"/><path class="cls-4" d="m120.79,470.77c0,1.38-1.59,2.5-3.54,2.5s-3.54-1.12-3.54-2.5"/><line class="cls-4" x1="113.59" y1="397.68" x2="119.32" y2="401.4"/><line class="cls-4" x1="113.7" y1="401.8" x2="119.54" y2="405.76"/><line class="cls-4" x1="106.62" y1="478.38" x2="106.62" y2="481.34"/><line class="cls-4" x1="120.79" y1="478.38" x2="120.79" y2="481.34"/><path class="cls-4" d="m113.7,478.38c0-1.38-1.59-2.5-3.54-2.5s-3.54,1.12-3.54,2.5"/><path class="cls-4" d="m120.79,478.38c0-1.38-1.59-2.5-3.54-2.5s-3.54,1.12-3.54,2.5"/><line class="cls-4" x1="113.7" y1="478.38" x2="113.7" y2="495.38"/><line class="cls-4" x1="113.59" y1="427.61" x2="113.59" y2="438.01"/><line class="cls-4" x1="113.65" y1="442.61" x2="113.65" y2="470.77"/><line class="cls-4" x1="113.65" y1="442.61" x2="107.93" y2="438.89"/><line class="cls-4" x1="113.52" y1="442.62" x2="119.25" y2="438.9"/><line class="cls-4" x1="113.54" y1="438.65" x2="107.7" y2="434.7"/><line class="cls-4" x1="113.64" y1="438.66" x2="119.48" y2="434.7"/></g><text class="cls-9" transform="translate(128.4 425.07)"><tspan x="0" y="0">(1) FUSE</tspan><tspan x="0" y="16.8">TRUCK 15kV</tspan></text><text class="cls-9" transform="translate(129.26 478.38)"><tspan x="0" y="0">(1) CP</tspan><tspan class="cls-10" x="40.45" y="0">T</tspan><tspan class="cls-8" x="48.75" y="0" xml:space="preserve"> FIX</tspan><tspan x="0" y="16.8">25-75 k</tspan><tspan class="cls-5" x="46.7" y="16.8">V</tspan><tspan class="cls-6" x="55" y="16.8">A</tspan></text></g></g><g id="FRAME"><rect id="Frame" class="cls-1" x=".5" y=".5" width="226.43" height="600"/></g><g id="BUSBARS"><line id="Center_left" class="cls-2" x1=".72" y1="300.5" x2="113.72" y2="300.5"/><line id="Center_right" class="cls-2" x1="113.7" y1="300.5" x2="226.7" y2="300.5"/><line id="No_breaker_-_top" class="cls-2" x1="113.72" y1="39.9" x2="113.7" y2="300.5"/><g id="Cable_-_top_top_feed"><line class="cls-3" x1="183.27" y1="39.9" x2="183.27" y2="21.44"/><path class="cls-7" d="m187.08,14.96l-3.8,5.24-3.8-5.24h7.61m3.92-2h-15.45l2.3,3.17,3.8,5.24,1.62,2.23,1.62-2.23,3.8-5.24,2.3-3.17h0Zm-3.92,4h0,0Z"/><line class="cls-3" x1="113.7" y1="39.9" x2="183.27" y2="39.9"/></g></g></svg>