<?xml version="1.0" encoding="UTF-8"?><svg id="VT" xmlns="http://www.w3.org/2000/svg" viewBox="0 0 226 600"><defs><style>.cls-1{stroke-linejoin:round;}.cls-1,.cls-2{fill:none;stroke:#2e3192;stroke-linecap:round;}.cls-3{fill:#2e3192;}.cls-4{letter-spacing:-.02em;}.cls-5{fill:#231f20;font-family:ArialMT, Arial;font-size:14px;}.cls-2{stroke-miterlimit:10;}</style></defs><g id="VT4"><g id="VT4_3"><text class="cls-5" transform="translate(120.22 65.87)"><tspan x="0" y="0">(3) V</tspan><tspan class="cls-4" x="30.34" y="0">T</tspan><tspan x="38.64" y="0" xml:space="preserve"> -</tspan><tspan class="cls-4" x="47.19" y="0" xml:space="preserve"> Y</tspan></text><line class="cls-1" x1="16.04" y1="516.05" x2="16.04" y2="70.13"/><g><line class="cls-1" x1="112.99" y1="516.05" x2="16.04" y2="516.05"/><path class="cls-3" d="m112.99,513.79c1.25,0,2.26,1.01,2.26,2.26s-1.01,2.26-2.26,2.26-2.26-1.01-2.26-2.26,1.01-2.26,2.26-2.26Z"/></g><line class="cls-2" x1="16.04" y1="70.13" x2="30.86" y2="70.16"/><line class="cls-2" x1="44.03" y1="70.16" x2="34.43" y2="70.16"/><rect class="cls-2" x="50.53" y="58.72" width="9.82" height="22.82" transform="translate(-14.69 125.56) rotate(-90)"/><line class="cls-2" x1="47.03" y1="74.58" x2="47.03" y2="65.22"/><line class="cls-2" x1="63.84" y1="75.03" x2="63.84" y2="65.22"/><line class="cls-2" x1="76.21" y1="76.51" x2="71.61" y2="76.51"/><line class="cls-2" x1="76.21" y1="63.74" x2="71.61" y2="63.74"/><path class="cls-2" d="m76.21,70.13c2.15,0,3.89,1.43,3.89,3.19s-1.74,3.19-3.89,3.19"/><path class="cls-2" d="m76.21,63.74c2.15,0,3.89,1.43,3.89,3.19s-1.74,3.19-3.89,3.19"/><line class="cls-2" x1="76.21" y1="70.13" x2="66.84" y2="70.13"/><line class="cls-2" x1="34.43" y1="70.16" x2="37.42" y2="65.75"/><line class="cls-2" x1="86.61" y1="63.74" x2="91.22" y2="63.74"/><line class="cls-2" x1="86.61" y1="76.51" x2="91.22" y2="76.51"/><path class="cls-2" d="m86.61,70.13c-2.15,0-3.89-1.43-3.89-3.19s1.74-3.19,3.89-3.19"/><path class="cls-2" d="m86.61,76.51c-2.15,0-3.89-1.43-3.89-3.19s1.74-3.19,3.89-3.19"/><line class="cls-2" x1="37.24" y1="74.51" x2="34.43" y2="70.18"/><line class="cls-2" x1="30.86" y1="70.2" x2="33.85" y2="65.78"/><line class="cls-2" x1="33.67" y1="74.54" x2="30.86" y2="70.21"/><g><line class="cls-2" x1="86.61" y1="70.11" x2="99.34" y2="70.09"/><line class="cls-2" x1="99.34" y1="70.09" x2="96.35" y2="74.5"/><line class="cls-2" x1="96.53" y1="65.74" x2="99.34" y2="70.07"/><line class="cls-2" x1="102.33" y1="70.1" x2="104.34" y2="70.1"/><line class="cls-2" x1="102.33" y1="70.1" x2="99.34" y2="74.51"/><line class="cls-2" x1="99.52" y1="65.75" x2="102.33" y2="70.08"/></g></g></g></svg>