<?xml version="1.0" encoding="UTF-8"?><svg id="BASE-NEMA3R" xmlns="http://www.w3.org/2000/svg" viewBox="0 0 226 646.27"><defs><style>.cls-1{fill:none;stroke:#000;stroke-linecap:round;stroke-linejoin:round;}</style></defs><g id="Base-Nema3R"><g id="LINE"><line class="cls-1" x1="34.69" y1="6.66" x2="34.69" y2="2.74"/></g><g id="LINE-2"><line class="cls-1" x1="34.69" y1="2.74" x2="40.95" y2="2.74"/></g><g id="LINE-3"><line class="cls-1" x1="40.95" y1="2.74" x2="40.95" y2="6.66"/></g><g id="LINE-4"><line class="cls-1" x1="40.95" y1="6.66" x2="34.69" y2="6.66"/></g><g id="LINE-5"><line class="cls-1" x1="185.05" y1="6.66" x2="185.05" y2="2.74"/></g><g id="LINE-6"><line class="cls-1" x1="185.05" y1="2.74" x2="191.31" y2="2.74"/></g><g id="LINE-7"><line class="cls-1" x1="191.31" y1="2.74" x2="191.31" y2="6.66"/></g><g id="LINE-8"><line class="cls-1" x1="191.31" y1="6.66" x2="185.05" y2="6.66"/></g><g id="LINE-9"><line class="cls-1" x1=".23" y1="0" x2="225.77"/></g><g id="LINE-10"><line class="cls-1" x1=".23" y1="18.8" x2="225.77" y2="18.8"/></g><g id="LINE-11"><line class="cls-1" x1="191.31" y1="639.61" x2="191.31" y2="643.53"/></g><g id="LINE-12"><line class="cls-1" x1="191.31" y1="643.53" x2="185.05" y2="643.53"/></g><g id="LINE-13"><line class="cls-1" x1="185.05" y1="643.53" x2="185.05" y2="639.61"/></g><g id="LINE-14"><line class="cls-1" x1="185.05" y1="639.61" x2="191.31" y2="639.61"/></g><g id="LINE-15"><line class="cls-1" x1="40.95" y1="639.61" x2="40.95" y2="643.53"/></g><g id="LINE-16"><line class="cls-1" x1="40.95" y1="643.53" x2="34.69" y2="643.53"/></g><g id="LINE-17"><line class="cls-1" x1="34.69" y1="643.53" x2="34.69" y2="639.61"/></g><g id="LINE-18"><line class="cls-1" x1="34.69" y1="639.61" x2="40.95" y2="639.61"/></g><g id="LINE-19"><line class="cls-1" x1="225.77" y1="646.27" x2=".23" y2="646.27"/></g><g id="LINE-20"><line class="cls-1" x1="225.77" y1="627.47" x2=".23" y2="627.47"/></g><g id="LINE-21"><line class="cls-1" x1="5.71" y1="564.34" x2="9.62" y2="564.34"/></g><g id="LINE-22"><line class="cls-1" x1="5.71" y1="570.61" x2="5.71" y2="564.34"/></g><g id="LINE-23"><line class="cls-1" x1="9.62" y1="570.61" x2="5.71" y2="570.61"/></g><g id="LINE-24"><line class="cls-1" x1="9.62" y1="564.34" x2="9.62" y2="570.61"/></g><g id="LINE-25"><line class="cls-1" x1="5.71" y1="157.11" x2="9.62" y2="157.11"/></g><g id="LINE-26"><line class="cls-1" x1="5.71" y1="163.37" x2="5.71" y2="157.11"/></g><g id="LINE-27"><line class="cls-1" x1="9.62" y1="163.37" x2="5.71" y2="163.37"/></g><g id="LINE-28"><line class="cls-1" x1="9.62" y1="157.11" x2="9.62" y2="163.37"/></g><g id="LINE-29"><line class="cls-1" x1="5.71" y1="482.9" x2="9.62" y2="482.9"/></g><g id="LINE-30"><line class="cls-1" x1="5.71" y1="489.16" x2="5.71" y2="482.9"/></g><g id="LINE-31"><line class="cls-1" x1="9.62" y1="489.16" x2="5.71" y2="489.16"/></g><g id="LINE-32"><line class="cls-1" x1="9.62" y1="482.9" x2="9.62" y2="489.16"/></g><g id="LINE-33"><line class="cls-1" x1="5.71" y1="238.55" x2="9.62" y2="238.55"/></g><g id="LINE-34"><line class="cls-1" x1="5.71" y1="244.82" x2="5.71" y2="238.55"/></g><g id="LINE-35"><line class="cls-1" x1="9.62" y1="244.82" x2="5.71" y2="244.82"/></g><g id="LINE-36"><line class="cls-1" x1="9.62" y1="238.55" x2="9.62" y2="244.82"/></g><g id="LINE-37"><line class="cls-1" x1="5.71" y1="401.45" x2="9.62" y2="401.45"/></g><g id="LINE-38"><line class="cls-1" x1="5.71" y1="407.71" x2="5.71" y2="401.45"/></g><g id="LINE-39"><line class="cls-1" x1="9.62" y1="407.71" x2="5.71" y2="407.71"/></g><g id="LINE-40"><line class="cls-1" x1="9.62" y1="401.45" x2="9.62" y2="407.71"/></g><g id="LINE-41"><line class="cls-1" x1="5.71" y1="75.66" x2="9.62" y2="75.66"/></g><g id="LINE-42"><line class="cls-1" x1="5.71" y1="81.92" x2="5.71" y2="75.66"/></g><g id="LINE-43"><line class="cls-1" x1="9.62" y1="81.92" x2="5.71" y2="81.92"/></g><g id="LINE-44"><line class="cls-1" x1="9.62" y1="75.66" x2="9.62" y2="81.92"/></g><g id="LINE-45"><line class="cls-1" x1="5.71" y1="320" x2="9.62" y2="320"/></g><g id="LINE-46"><line class="cls-1" x1="5.71" y1="326.27" x2="5.71" y2="320"/></g><g id="LINE-47"><line class="cls-1" x1="9.62" y1="326.27" x2="5.71" y2="326.27"/></g><g id="LINE-48"><line class="cls-1" x1="9.62" y1="320" x2="9.62" y2="326.27"/></g><g id="LINE-49"><line class="cls-1" x1="15.11" y1="627.47" x2="15.11" y2="18.8"/></g><g id="LINE-50"><line class="cls-1" x1=".23" y1="646.27" x2=".23" y2="0"/></g><g id="LINE-51"><line class="cls-1" x1="220.29" y1="81.92" x2="216.38" y2="81.92"/></g><g id="LINE-52"><line class="cls-1" x1="220.29" y1="75.66" x2="220.29" y2="81.92"/></g><g id="LINE-53"><line class="cls-1" x1="216.38" y1="75.66" x2="220.29" y2="75.66"/></g><g id="LINE-54"><line class="cls-1" x1="216.38" y1="81.92" x2="216.38" y2="75.66"/></g><g id="LINE-55"><line class="cls-1" x1="220.29" y1="489.16" x2="216.38" y2="489.16"/></g><g id="LINE-56"><line class="cls-1" x1="220.29" y1="482.9" x2="220.29" y2="489.16"/></g><g id="LINE-57"><line class="cls-1" x1="216.38" y1="482.9" x2="220.29" y2="482.9"/></g><g id="LINE-58"><line class="cls-1" x1="216.38" y1="489.16" x2="216.38" y2="482.9"/></g><g id="LINE-59"><line class="cls-1" x1="220.29" y1="163.37" x2="216.38" y2="163.37"/></g><g id="LINE-60"><line class="cls-1" x1="220.29" y1="157.11" x2="220.29" y2="163.37"/></g><g id="LINE-61"><line class="cls-1" x1="216.38" y1="157.11" x2="220.29" y2="157.11"/></g><g id="LINE-62"><line class="cls-1" x1="216.38" y1="163.37" x2="216.38" y2="157.11"/></g><g id="LINE-63"><line class="cls-1" x1="220.29" y1="407.71" x2="216.38" y2="407.71"/></g><g id="LINE-64"><line class="cls-1" x1="220.29" y1="401.45" x2="220.29" y2="407.71"/></g><g id="LINE-65"><line class="cls-1" x1="216.38" y1="401.45" x2="220.29" y2="401.45"/></g><g id="LINE-66"><line class="cls-1" x1="216.38" y1="407.71" x2="216.38" y2="401.45"/></g><g id="LINE-67"><line class="cls-1" x1="220.29" y1="244.82" x2="216.38" y2="244.82"/></g><g id="LINE-68"><line class="cls-1" x1="220.29" y1="238.55" x2="220.29" y2="244.82"/></g><g id="LINE-69"><line class="cls-1" x1="216.38" y1="238.55" x2="220.29" y2="238.55"/></g><g id="LINE-70"><line class="cls-1" x1="216.38" y1="244.82" x2="216.38" y2="238.55"/></g><g id="LINE-71"><line class="cls-1" x1="220.29" y1="570.61" x2="216.38" y2="570.61"/></g><g id="LINE-72"><line class="cls-1" x1="220.29" y1="564.34" x2="220.29" y2="570.61"/></g><g id="LINE-73"><line class="cls-1" x1="216.38" y1="564.34" x2="220.29" y2="564.34"/></g><g id="LINE-74"><line class="cls-1" x1="216.38" y1="570.61" x2="216.38" y2="564.34"/></g><g id="LINE-75"><line class="cls-1" x1="220.29" y1="326.27" x2="216.38" y2="326.27"/></g><g id="LINE-76"><line class="cls-1" x1="220.29" y1="320" x2="220.29" y2="326.27"/></g><g id="LINE-77"><line class="cls-1" x1="216.38" y1="320" x2="220.29" y2="320"/></g><g id="LINE-78"><line class="cls-1" x1="216.38" y1="326.27" x2="216.38" y2="320"/></g><g id="LINE-79"><line class="cls-1" x1="210.89" y1="18.8" x2="210.89" y2="627.47"/></g><g id="LINE-80"><line class="cls-1" x1="225.77" x2="225.77" y2="646.27"/></g></g></svg>