<?xml version="1.0" encoding="UTF-8"?><svg id="BASE-NEMA1" xmlns="http://www.w3.org/2000/svg" viewBox="0 0 226 571.09"><defs><style>.cls-1{fill:none;stroke:#000;stroke-linecap:round;stroke-linejoin:round;}</style></defs><g id="Base-Nema1"><g id="LINE"><line class="cls-1" x1="34.91" y1="6.66" x2="34.91" y2="2.74"/></g><g id="LINE-2"><line class="cls-1" x1="34.91" y1="2.74" x2="41.18" y2="2.74"/></g><g id="LINE-3"><line class="cls-1" x1="41.18" y1="2.74" x2="41.18" y2="6.66"/></g><g id="LINE-4"><line class="cls-1" x1="41.18" y1="6.66" x2="34.91" y2="6.66"/></g><g id="LINE-5"><line class="cls-1" x1="185.28" y1="6.66" x2="185.28" y2="2.74"/></g><g id="LINE-6"><line class="cls-1" x1="185.28" y1="2.74" x2="191.54" y2="2.74"/></g><g id="LINE-7"><line class="cls-1" x1="191.54" y1="2.74" x2="191.54" y2="6.66"/></g><g id="LINE-8"><line class="cls-1" x1="191.54" y1="6.66" x2="185.28" y2="6.66"/></g><g id="LINE-9"><line class="cls-1" x1=".45" x2="226" y2="0"/></g><g id="LINE-10"><line class="cls-1" x1=".45" y1="18.8" x2="226" y2="18.8"/></g><g id="LINE-11"><line class="cls-1" x1="191.54" y1="564.43" x2="191.54" y2="568.35"/></g><g id="LINE-12"><line class="cls-1" x1="191.54" y1="568.35" x2="185.28" y2="568.35"/></g><g id="LINE-13"><line class="cls-1" x1="185.28" y1="568.35" x2="185.28" y2="564.43"/></g><g id="LINE-14"><line class="cls-1" x1="185.28" y1="564.43" x2="191.54" y2="564.43"/></g><g id="LINE-15"><line class="cls-1" x1="41.18" y1="564.43" x2="41.18" y2="568.35"/></g><g id="LINE-16"><line class="cls-1" x1="41.18" y1="568.35" x2="34.91" y2="568.35"/></g><g id="LINE-17"><line class="cls-1" x1="34.91" y1="568.35" x2="34.91" y2="564.43"/></g><g id="LINE-18"><line class="cls-1" x1="34.91" y1="564.43" x2="41.18" y2="564.43"/></g><g id="LINE-19"><line class="cls-1" x1="226" y1="571.09" x2=".45" y2="571.09"/></g><g id="LINE-20"><line class="cls-1" x1="226" y1="552.29" x2=".45" y2="552.29"/></g><g id="LINE-21"><line class="cls-1" x1="5.94" y1="526.75" x2="9.85" y2="526.75"/></g><g id="LINE-22"><line class="cls-1" x1="5.94" y1="533.02" x2="5.94" y2="526.75"/></g><g id="LINE-23"><line class="cls-1" x1="9.85" y1="533.02" x2="5.94" y2="533.02"/></g><g id="LINE-24"><line class="cls-1" x1="9.85" y1="526.75" x2="9.85" y2="533.02"/></g><g id="LINE-25"><line class="cls-1" x1="5.94" y1="119.52" x2="9.85" y2="119.52"/></g><g id="LINE-26"><line class="cls-1" x1="5.94" y1="125.78" x2="5.94" y2="119.52"/></g><g id="LINE-27"><line class="cls-1" x1="9.85" y1="125.78" x2="5.94" y2="125.78"/></g><g id="LINE-28"><line class="cls-1" x1="9.85" y1="119.52" x2="9.85" y2="125.78"/></g><g id="LINE-29"><line class="cls-1" x1="5.94" y1="445.31" x2="9.85" y2="445.31"/></g><g id="LINE-30"><line class="cls-1" x1="5.94" y1="451.57" x2="5.94" y2="445.31"/></g><g id="LINE-31"><line class="cls-1" x1="9.85" y1="451.57" x2="5.94" y2="451.57"/></g><g id="LINE-32"><line class="cls-1" x1="9.85" y1="445.31" x2="9.85" y2="451.57"/></g><g id="LINE-33"><line class="cls-1" x1="5.94" y1="200.96" x2="9.85" y2="200.96"/></g><g id="LINE-34"><line class="cls-1" x1="5.94" y1="207.23" x2="5.94" y2="200.96"/></g><g id="LINE-35"><line class="cls-1" x1="9.85" y1="207.23" x2="5.94" y2="207.23"/></g><g id="LINE-36"><line class="cls-1" x1="9.85" y1="200.96" x2="9.85" y2="207.23"/></g><g id="LINE-37"><line class="cls-1" x1="5.94" y1="363.86" x2="9.85" y2="363.86"/></g><g id="LINE-38"><line class="cls-1" x1="5.94" y1="370.12" x2="5.94" y2="363.86"/></g><g id="LINE-39"><line class="cls-1" x1="9.85" y1="370.12" x2="5.94" y2="370.12"/></g><g id="LINE-40"><line class="cls-1" x1="9.85" y1="363.86" x2="9.85" y2="370.12"/></g><g id="LINE-41"><line class="cls-1" x1="5.94" y1="38.07" x2="9.85" y2="38.07"/></g><g id="LINE-42"><line class="cls-1" x1="5.94" y1="44.33" x2="5.94" y2="38.07"/></g><g id="LINE-43"><line class="cls-1" x1="9.85" y1="44.33" x2="5.94" y2="44.33"/></g><g id="LINE-44"><line class="cls-1" x1="9.85" y1="38.07" x2="9.85" y2="44.33"/></g><g id="LINE-45"><line class="cls-1" x1="5.94" y1="282.41" x2="9.85" y2="282.41"/></g><g id="LINE-46"><line class="cls-1" x1="5.94" y1="288.68" x2="5.94" y2="282.41"/></g><g id="LINE-47"><line class="cls-1" x1="9.85" y1="288.68" x2="5.94" y2="288.68"/></g><g id="LINE-48"><line class="cls-1" x1="9.85" y1="282.41" x2="9.85" y2="288.68"/></g><g id="LINE-49"><line class="cls-1" x1="15.33" y1="552.29" x2="15.33" y2="18.8"/></g><g id="LINE-50"><line class="cls-1" x1=".45" y1="571.09" x2=".45"/></g><g id="LINE-51"><line class="cls-1" x1="220.52" y1="44.33" x2="216.6" y2="44.33"/></g><g id="LINE-52"><line class="cls-1" x1="220.52" y1="38.07" x2="220.52" y2="44.33"/></g><g id="LINE-53"><line class="cls-1" x1="216.6" y1="38.07" x2="220.52" y2="38.07"/></g><g id="LINE-54"><line class="cls-1" x1="216.6" y1="44.33" x2="216.6" y2="38.07"/></g><g id="LINE-55"><line class="cls-1" x1="220.52" y1="451.57" x2="216.6" y2="451.57"/></g><g id="LINE-56"><line class="cls-1" x1="220.52" y1="445.31" x2="220.52" y2="451.57"/></g><g id="LINE-57"><line class="cls-1" x1="216.6" y1="445.31" x2="220.52" y2="445.31"/></g><g id="LINE-58"><line class="cls-1" x1="216.6" y1="451.57" x2="216.6" y2="445.31"/></g><g id="LINE-59"><line class="cls-1" x1="220.52" y1="125.78" x2="216.6" y2="125.78"/></g><g id="LINE-60"><line class="cls-1" x1="220.52" y1="119.52" x2="220.52" y2="125.78"/></g><g id="LINE-61"><line class="cls-1" x1="216.6" y1="119.52" x2="220.52" y2="119.52"/></g><g id="LINE-62"><line class="cls-1" x1="216.6" y1="125.78" x2="216.6" y2="119.52"/></g><g id="LINE-63"><line class="cls-1" x1="220.52" y1="370.12" x2="216.6" y2="370.12"/></g><g id="LINE-64"><line class="cls-1" x1="220.52" y1="363.86" x2="220.52" y2="370.12"/></g><g id="LINE-65"><line class="cls-1" x1="216.6" y1="363.86" x2="220.52" y2="363.86"/></g><g id="LINE-66"><line class="cls-1" x1="216.6" y1="370.12" x2="216.6" y2="363.86"/></g><g id="LINE-67"><line class="cls-1" x1="220.52" y1="207.23" x2="216.6" y2="207.23"/></g><g id="LINE-68"><line class="cls-1" x1="220.52" y1="200.96" x2="220.52" y2="207.23"/></g><g id="LINE-69"><line class="cls-1" x1="216.6" y1="200.96" x2="220.52" y2="200.96"/></g><g id="LINE-70"><line class="cls-1" x1="216.6" y1="207.23" x2="216.6" y2="200.96"/></g><g id="LINE-71"><line class="cls-1" x1="220.52" y1="533.02" x2="216.6" y2="533.02"/></g><g id="LINE-72"><line class="cls-1" x1="220.52" y1="526.75" x2="220.52" y2="533.02"/></g><g id="LINE-73"><line class="cls-1" x1="216.6" y1="526.75" x2="220.52" y2="526.75"/></g><g id="LINE-74"><line class="cls-1" x1="216.6" y1="533.02" x2="216.6" y2="526.75"/></g><g id="LINE-75"><line class="cls-1" x1="220.52" y1="288.68" x2="216.6" y2="288.68"/></g><g id="LINE-76"><line class="cls-1" x1="220.52" y1="282.41" x2="220.52" y2="288.68"/></g><g id="LINE-77"><line class="cls-1" x1="216.6" y1="282.41" x2="220.52" y2="282.41"/></g><g id="LINE-78"><line class="cls-1" x1="216.6" y1="288.68" x2="216.6" y2="282.41"/></g><g id="LINE-79"><line class="cls-1" x1="211.12" y1="18.8" x2="211.12" y2="552.29"/></g><g id="LINE-80"><line class="cls-1" x1="226" y1="0" x2="226" y2="571.09"/></g></g></svg>