<?xml version="1.0" encoding="UTF-8"?><svg id="SIDE_VIEW" xmlns="http://www.w3.org/2000/svg" viewBox="0 0 581 600"><defs><style>.cls-1{fill:none;stroke:#2e3192;stroke-miterlimit:10;}.cls-2{fill:#231f20;}</style></defs><g id="CPT_CONNECTION"><g id="CPT14_CPT15"><line class="cls-1" x1="187.44" y1="513.65" x2="289" y2="513.65"/><g><path class="cls-2" d="m215.1,523.81l.85.22c-.18.7-.5,1.23-.96,1.6-.46.37-1.03.55-1.7.55s-1.26-.14-1.69-.42c-.44-.28-.77-.69-.99-1.23-.23-.54-.34-1.11-.34-1.73,0-.67.13-1.26.38-1.76.26-.5.62-.88,1.09-1.14.47-.26.99-.39,1.56-.39.64,0,1.19.16,1.63.49s.75.79.92,1.38l-.84.2c-.15-.47-.37-.81-.65-1.02s-.64-.32-1.07-.32c-.5,0-.91.12-1.24.36-.33.24-.57.56-.7.96-.13.4-.2.81-.2,1.24,0,.55.08,1.03.24,1.43.16.41.41.71.75.92s.7.3,1.09.3c.48,0,.88-.14,1.21-.41.33-.28.55-.68.67-1.23Z"/><path class="cls-2" d="m216.74,522.93c0-1.07.29-1.91.86-2.51.57-.6,1.31-.91,2.22-.91.59,0,1.13.14,1.61.43.48.29.84.68,1.09,1.19.25.51.38,1.08.38,1.73s-.13,1.24-.39,1.75-.64.91-1.12,1.17c-.48.27-1,.4-1.56.4-.61,0-1.15-.15-1.63-.44s-.84-.69-1.08-1.2-.37-1.04-.37-1.61Zm.88.01c0,.78.21,1.39.63,1.83.42.45.94.67,1.57.67s1.17-.23,1.58-.68c.41-.45.62-1.09.62-1.92,0-.52-.09-.98-.27-1.37-.18-.39-.44-.69-.78-.91-.34-.21-.72-.32-1.15-.32-.6,0-1.12.21-1.56.62-.44.42-.65,1.11-.65,2.08Z"/><path class="cls-2" d="m223.99,526.07v-6.44h.88l3.38,5.06v-5.06h.82v6.44h-.88l-3.38-5.06v5.06h-.82Z"/><path class="cls-2" d="m230.49,526.07v-6.44h.88l3.38,5.06v-5.06h.82v6.44h-.88l-3.38-5.06v5.06h-.82Z"/><path class="cls-2" d="m237.01,526.07v-6.44h4.66v.76h-3.81v1.97h3.56v.76h-3.56v2.19h3.96v.76h-4.81Z"/><path class="cls-2" d="m247.6,523.81l.85.22c-.18.7-.5,1.23-.96,1.6-.46.37-1.03.55-1.7.55s-1.26-.14-1.69-.42c-.44-.28-.77-.69-.99-1.23-.23-.54-.34-1.11-.34-1.73,0-.67.13-1.26.38-1.76.26-.5.62-.88,1.09-1.14.47-.26.99-.39,1.56-.39.64,0,1.19.16,1.63.49s.75.79.92,1.38l-.84.2c-.15-.47-.37-.81-.65-1.02s-.64-.32-1.07-.32c-.5,0-.91.12-1.24.36-.33.24-.57.56-.7.96-.13.4-.2.81-.2,1.24,0,.55.08,1.03.24,1.43.16.41.41.71.75.92s.7.3,1.09.3c.48,0,.88-.14,1.21-.41.33-.28.55-.68.67-1.23Z"/><path class="cls-2" d="m251.14,526.07v-5.68h-2.12v-.76h5.11v.76h-2.13v5.68h-.85Z"/><path class="cls-2" d="m255.01,526.07v-6.44h4.66v.76h-3.81v1.97h3.56v.76h-3.56v2.19h3.96v.76h-4.81Z"/><path class="cls-2" d="m261,526.07v-6.44h2.22c.5,0,.88.03,1.15.09.37.08.68.24.95.46.34.29.59.65.76,1.1.17.45.25.96.25,1.53,0,.49-.06.92-.17,1.3-.12.38-.26.69-.44.94-.18.25-.38.44-.59.58-.21.14-.47.25-.77.32-.3.07-.65.11-1.03.11h-2.33Zm.85-.76h1.38c.42,0,.76-.04,1-.12.24-.08.43-.19.58-.33.2-.2.36-.47.47-.82.11-.34.17-.75.17-1.24,0-.67-.11-1.19-.33-1.55-.22-.36-.49-.6-.81-.73-.23-.09-.6-.13-1.1-.13h-1.35v4.92Z"/><path class="cls-2" d="m271.48,526.07v-5.68h-2.12v-.76h5.11v.76h-2.13v5.68h-.85Z"/><path class="cls-2" d="m274.91,522.93c0-1.07.29-1.91.86-2.51.57-.6,1.31-.91,2.22-.91.59,0,1.13.14,1.61.43.48.29.84.68,1.09,1.19.25.51.38,1.08.38,1.73s-.13,1.24-.39,1.75-.64.91-1.12,1.17c-.48.27-1,.4-1.56.4-.61,0-1.15-.15-1.63-.44s-.84-.69-1.08-1.2-.37-1.04-.37-1.61Zm.88.01c0,.78.21,1.39.63,1.83.42.45.94.67,1.57.67s1.17-.23,1.58-.68c.41-.45.62-1.09.62-1.92,0-.52-.09-.98-.27-1.37-.18-.39-.44-.69-.78-.91-.34-.21-.72-.32-1.15-.32-.6,0-1.12.21-1.56.62-.44.42-.65,1.11-.65,2.08Z"/><path class="cls-2" d="m209.79,536.87l2.47-6.44h.92l2.64,6.44h-.97l-.75-1.95h-2.69l-.71,1.95h-.91Zm1.86-2.65h2.18l-.67-1.78c-.21-.54-.36-.99-.46-1.34-.08.41-.2.82-.35,1.23l-.71,1.89Z"/><path class="cls-2" d="m216.5,536.87v-6.44h2.22c.5,0,.88.03,1.15.09.37.09.68.24.95.46.34.29.59.65.76,1.1.17.45.25.96.25,1.53,0,.49-.06.92-.17,1.3-.12.38-.26.69-.44.94-.18.25-.38.44-.59.58-.21.14-.47.25-.77.32-.3.07-.65.11-1.03.11h-2.33Zm.85-.76h1.38c.42,0,.76-.04,1-.12.24-.08.43-.19.58-.33.2-.2.36-.47.47-.82.11-.34.17-.75.17-1.24,0-.67-.11-1.19-.33-1.55-.22-.36-.49-.6-.81-.73-.23-.09-.6-.13-1.1-.13h-1.35v4.92Z"/><path class="cls-2" d="m222.57,535.04l.77-.11c.02.49.11.83.28,1.01s.39.27.68.27c.21,0,.4-.05.55-.15.16-.1.26-.23.32-.4.06-.17.09-.44.09-.81v-4.44h.85v4.39c0,.54-.06.96-.2,1.25-.13.3-.34.52-.62.68-.28.16-.62.23-1,.23-.57,0-1-.16-1.3-.49-.3-.33-.45-.81-.43-1.45Z"/><path class="cls-2" d="m226.79,536.87l2.47-6.44h.92l2.64,6.44h-.97l-.75-1.95h-2.69l-.71,1.95h-.91Zm1.86-2.65h2.18l-.67-1.78c-.21-.54-.36-.99-.46-1.34-.08.41-.2.82-.35,1.23l-.71,1.89Z"/><path class="cls-2" d="m238.1,534.61l.85.21c-.18.7-.5,1.23-.96,1.6-.46.37-1.03.55-1.7.55s-1.26-.14-1.69-.42c-.44-.28-.77-.69-.99-1.23-.23-.54-.34-1.11-.34-1.73,0-.67.13-1.26.38-1.76.26-.5.62-.88,1.09-1.14.47-.26.99-.39,1.56-.39.64,0,1.19.16,1.63.49s.75.79.92,1.38l-.84.2c-.15-.47-.37-.81-.65-1.02s-.64-.32-1.07-.32c-.5,0-.91.12-1.24.36-.33.24-.57.56-.7.96-.13.4-.2.81-.2,1.24,0,.55.08,1.03.24,1.44.16.41.41.71.75.92s.7.3,1.09.3c.48,0,.88-.14,1.21-.41.33-.28.55-.68.67-1.23Z"/><path class="cls-2" d="m240.02,536.87v-6.44h4.66v.76h-3.81v1.97h3.56v.76h-3.56v2.19h3.96v.76h-4.81Z"/><path class="cls-2" d="m246,536.87v-6.44h.88l3.38,5.06v-5.06h.82v6.44h-.88l-3.38-5.06v5.06h-.82Z"/><path class="cls-2" d="m254.15,536.87v-5.68h-2.12v-.76h5.11v.76h-2.13v5.68h-.85Z"/><path class="cls-2" d="m210.21,545.6l.8-.07c.04.32.13.59.27.79.14.21.35.37.65.5.29.13.62.19.99.19.33,0,.61-.05.86-.14.25-.1.43-.23.56-.4.12-.17.18-.35.18-.55s-.06-.38-.18-.53c-.12-.15-.31-.28-.58-.38-.17-.07-.56-.17-1.15-.31-.59-.14-1.01-.28-1.24-.4-.31-.16-.54-.36-.69-.6-.15-.24-.23-.51-.23-.8,0-.33.09-.63.28-.91.18-.28.45-.5.81-.64.35-.15.75-.22,1.18-.22.48,0,.9.08,1.26.23.36.15.64.38.84.68.2.3.3.64.32,1.02l-.82.06c-.04-.41-.19-.71-.45-.92-.25-.21-.63-.31-1.12-.31s-.89.1-1.13.28c-.24.19-.35.42-.35.68,0,.23.08.42.25.57.16.15.59.3,1.29.46.69.16,1.17.29,1.43.41.38.17.65.39.83.66.18.26.27.57.27.92s-.1.67-.29.97-.48.54-.85.71c-.37.17-.78.25-1.24.25-.58,0-1.07-.08-1.46-.25-.39-.17-.7-.43-.93-.77-.22-.34-.34-.73-.35-1.16Z"/><path class="cls-2" d="m216.52,547.67v-6.44h4.66v.76h-3.81v1.97h3.56v.76h-3.56v2.19h3.96v.76h-4.81Z"/><path class="cls-2" d="m227.1,545.41l.85.21c-.18.7-.5,1.23-.96,1.6-.46.37-1.03.55-1.7.55s-1.26-.14-1.69-.42c-.44-.28-.77-.69-.99-1.23-.23-.54-.34-1.11-.34-1.73,0-.67.13-1.26.38-1.76.26-.5.62-.88,1.09-1.14.47-.26.99-.39,1.56-.39.64,0,1.19.16,1.63.49s.75.79.92,1.38l-.84.2c-.15-.47-.37-.81-.65-1.02-.28-.21-.64-.32-1.07-.32-.5,0-.91.12-1.24.36-.33.24-.57.56-.7.96-.13.4-.2.81-.2,1.24,0,.55.08,1.03.24,1.44.16.41.41.71.75.92.34.2.7.3,1.09.3.48,0,.88-.14,1.21-.41.33-.28.55-.68.67-1.23Z"/><path class="cls-2" d="m230.64,547.67v-5.68h-2.12v-.76h5.11v.76h-2.13v5.68h-.85Z"/><path class="cls-2" d="m234.65,547.67v-6.44h.85v6.44h-.85Z"/><path class="cls-2" d="m236.74,544.53c0-1.07.29-1.91.86-2.51.57-.61,1.31-.91,2.22-.91.59,0,1.13.14,1.61.43.48.28.84.68,1.09,1.19.25.51.38,1.08.38,1.73s-.13,1.24-.39,1.75-.64.91-1.12,1.17-1,.4-1.56.4c-.61,0-1.15-.15-1.63-.44s-.84-.69-1.08-1.2c-.25-.51-.37-1.04-.37-1.61Zm.88.01c0,.78.21,1.39.63,1.83.42.45.94.67,1.57.67s1.17-.23,1.58-.68c.41-.45.62-1.09.62-1.92,0-.52-.09-.98-.27-1.37-.18-.39-.44-.69-.78-.91-.34-.21-.72-.32-1.15-.32-.6,0-1.12.21-1.56.62-.44.42-.65,1.11-.65,2.08Z"/><path class="cls-2" d="m243.99,547.67v-6.44h.88l3.38,5.06v-5.06h.82v6.44h-.88l-3.38-5.06v5.06h-.82Z"/></g></g></g></svg>