<?xml version="1.0" encoding="UTF-8"?><svg id="VT" xmlns="http://www.w3.org/2000/svg" viewBox="0 0 226 600"><defs><style>.cls-1{stroke-linejoin:round;}.cls-1,.cls-2{fill:none;stroke:#2e3192;stroke-linecap:round;}.cls-3{fill:#2e3192;}.cls-4{letter-spacing:-.02em;}.cls-5{fill:#231f20;font-family:ArialMT, Arial;font-size:14px;}.cls-2{stroke-miterlimit:10;}</style></defs><g id="VT1"><g id="VT1_2"><text class="cls-5" transform="translate(120.22 512.04)"><tspan x="0" y="0">(3) V</tspan><tspan class="cls-4" x="30.34" y="0">T</tspan><tspan x="38.64" y="0" xml:space="preserve"> -</tspan><tspan class="cls-4" x="47.19" y="0" xml:space="preserve"> Y</tspan></text><line class="cls-2" x1="112.81" y1="516.11" x2="99.83" y2="516.11"/><line class="cls-2" x1="87.24" y1="516.07" x2="96.84" y2="516.07"/><rect class="cls-2" x="70.92" y="504.64" width="9.82" height="22.82" transform="translate(591.88 440.22) rotate(90)"/><line class="cls-2" x1="84.24" y1="511.6" x2="84.24" y2="520.96"/><line class="cls-2" x1="67.42" y1="511.14" x2="67.42" y2="520.96"/><line class="cls-2" x1="55.05" y1="509.89" x2="59.66" y2="509.89"/><line class="cls-2" x1="55.05" y1="522.66" x2="59.66" y2="522.66"/><path class="cls-2" d="m55.05,516.28c-2.15,0-3.89-1.43-3.89-3.19s1.74-3.19,3.89-3.19"/><path class="cls-2" d="m55.05,522.66c-2.15,0-3.89-1.43-3.89-3.19s1.74-3.19,3.89-3.19"/><line class="cls-2" x1="55.05" y1="516.28" x2="64.42" y2="516.28"/><line class="cls-2" x1="99.83" y1="516.11" x2="97.02" y2="520.44"/><line class="cls-2" x1="96.84" y1="516.07" x2="93.85" y2="520.48"/><line class="cls-2" x1="44.65" y1="522.66" x2="40.05" y2="522.66"/><line class="cls-2" x1="44.65" y1="509.89" x2="40.05" y2="509.89"/><path class="cls-2" d="m44.65,516.28c2.15,0,3.89,1.43,3.89,3.19s-1.74,3.19-3.89,3.19"/><path class="cls-2" d="m44.65,509.89c2.15,0,3.89,1.43,3.89,3.19s-1.74,3.19-3.89,3.19"/><line class="cls-2" x1="94.03" y1="511.72" x2="96.84" y2="516.05"/><line class="cls-2" x1="96.84" y1="511.7" x2="99.83" y2="516.11"/><g><line class="cls-1" x1="112.81" y1="300.65" x2="112.81" y2="516.24"/><path class="cls-3" d="m110.55,300.65c0-1.25,1.01-2.26,2.26-2.26s2.26,1.01,2.26,2.26-1.01,2.26-2.26,2.26-2.26-1.01-2.26-2.26Z"/></g><g><line class="cls-2" x1="44.65" y1="516.26" x2="31.93" y2="516.28"/><line class="cls-2" x1="31.93" y1="516.28" x2="34.92" y2="511.87"/><line class="cls-2" x1="34.74" y1="520.63" x2="31.93" y2="516.3"/><line class="cls-2" x1="28.94" y1="516.27" x2="26.92" y2="516.27"/><line class="cls-2" x1="28.94" y1="516.27" x2="31.93" y2="511.86"/><line class="cls-2" x1="31.75" y1="520.62" x2="28.94" y2="516.29"/></g></g></g></svg>