<?xml version="1.0" encoding="UTF-8"?><svg id="SIDE_VIEW" xmlns="http://www.w3.org/2000/svg" viewBox="0 0 581 600"><defs><style>.cls-1{fill:#010101;font-family:ArialMT, Arial;font-size:17.8px;}.cls-2{fill:none;stroke:#010101;stroke-linecap:round;stroke-linejoin:round;}.cls-3{letter-spacing:-.02em;}</style></defs><g id="VT"><g id="VT4"><g id="LINE"><line class="cls-2" x1="533.27" y1="106.9" x2="467.6" y2="106.9"/></g><g id="CIRCLE"><circle class="cls-2" cx="537.84" cy="113.13" r="7.72"/></g><g id="CIRCLE-2"><circle class="cls-2" cx="463.06" cy="113.15" r="7.72"/></g><g id="LINE-2"><line class="cls-2" x1="548.77" y1="117.63" x2="569.8" y2="117.63"/></g><g id="LINE-3"><line class="cls-2" x1="569.8" y1="117.63" x2="569.8" y2="106.9"/></g><g id="LWPOLYLINE"><line class="cls-2" x1="531.56" y1="117.63" x2="469.36" y2="117.63"/></g><g id="LWPOLYLINE-2"><polyline class="cls-2" points="456.77 117.63 454.03 117.63 454.03 106.9 458.52 106.9"/></g><g id="LWPOLYLINE-3"><line class="cls-2" x1="467.6" y1="106.9" x2="533.27" y2="106.9"/></g><g id="LINE-4"><line class="cls-2" x1="447.44" y1="36.28" x2="447.44" y2="55.26"/></g><g id="LWPOLYLINE-4"><rect class="cls-2" x="415.65" y="43.43" width="31.78" height="4.95"/></g><g id="LINE-5"><line class="cls-2" x1="415.65" y1="43.43" x2="413.46" y2="45.78"/></g><g id="LINE-6"><line class="cls-2" x1="413.46" y1="45.78" x2="415.65" y2="48.38"/></g><g id="LINE-7"><line class="cls-2" x1="542.41" y1="106.9" x2="569.8" y2="106.9"/></g><g id="LINE-8"><line class="cls-2" x1="544.12" y1="117.63" x2="548.77" y2="117.63"/></g><g id="LWPOLYLINE-5"><rect class="cls-2" x="467.64" y="60.59" width="62.65" height="46.31"/></g><g id="LWPOLYLINE-6"><rect class="cls-2" x="447.44" y="36.28" width="93.88" height="24.31"/></g><g id="MTEXT"><text class="cls-1" transform="translate(387.27 91.16)"><tspan x="0" y="0">V</tspan><tspan class="cls-3" x="11.87" y="0">T</tspan></text></g></g></g></svg>