<?xml version="1.0" encoding="UTF-8"?>
<svg id="CPT" xmlns="http://www.w3.org/2000/svg" viewBox="0 0 458 600">
    <defs>
        <style>.cls-1{stroke-linejoin:round;}.cls-1,.cls-2{fill:none;stroke:#2e3192;stroke-linecap:round;}.cls-3{letter-spacing:-.07em;}.cls-4{letter-spacing:-.06em;}.cls-5{fill:#2e3192;}.cls-6{letter-spacing:0em;}.cls-7{fill:#231f20;font-family:ArialMT,
            Arial;font-size:14px;}.cls-2{stroke-miterlimit:10;}.cls-8{letter-spacing:-.02em;}</style>
    </defs>
    <g id="CPT14">
        <text class="cls-7" transform="translate(234.24 463.48)">
            <tspan x="0" y="0">(1) CP</tspan>
            <tspan class="cls-8" x="40.45" y="0">T</tspan>
        </text>
        <line class="cls-2" x1="131.53" y1="468.33" x2="147.42" y2="468.33" />
        <line class="cls-2" x1="160.01" y1="468.37" x2="150.41" y2="468.37" />
        <rect class="cls-2" x="166.52" y="456.98" width="9.82" height="22.82"
            transform="translate(-296.97 639.82) rotate(-90)" />
        <line class="cls-2" x1="163.01" y1="472.84" x2="163.01" y2="463.49" />
        <line class="cls-2" x1="179.83" y1="473.3" x2="179.83" y2="463.49" />
        <line class="cls-2" x1="192.2" y1="474.55" x2="187.59" y2="474.55" />
        <line class="cls-2" x1="192.2" y1="461.78" x2="187.59" y2="461.78" />
        <path class="cls-2" d="m192.2,468.16c2.15,0,3.89,1.43,3.89,3.19s-1.74,3.19-3.89,3.19" />
        <path class="cls-2" d="m192.2,461.78c2.15,0,3.89,1.43,3.89,3.19s-1.74,3.19-3.89,3.19" />
        <line class="cls-2" x1="192.2" y1="468.16" x2="182.83" y2="468.16" />
        <line class="cls-2" x1="147.42" y1="468.33" x2="150.23" y2="464" />
        <line class="cls-2" x1="150.41" y1="468.37" x2="153.4" y2="463.96" />
        <line class="cls-2" x1="202.6" y1="461.78" x2="207.21" y2="461.78" />
        <line class="cls-2" x1="202.6" y1="474.55" x2="207.21" y2="474.55" />
        <path class="cls-2" d="m202.6,468.16c-2.15,0-3.89-1.43-3.89-3.19s1.74-3.19,3.89-3.19" />
        <path class="cls-2" d="m202.6,474.55c-2.15,0-3.89-1.43-3.89-3.19s1.74-3.19,3.89-3.19" />
        <line class="cls-2" x1="153.22" y1="472.72" x2="150.41" y2="468.39" />
        <line class="cls-2" x1="150.41" y1="472.75" x2="147.42" y2="468.33" />
        <g>
            <line class="cls-2" x1="202.1" y1="468.16" x2="214.82" y2="468.14" />
            <line class="cls-2" x1="214.82" y1="468.14" x2="211.83" y2="472.56" />
            <line class="cls-2" x1="212.01" y1="463.8" x2="214.82" y2="468.13" />
            <line class="cls-2" x1="217.81" y1="468.15" x2="219.83" y2="468.15" />
            <line class="cls-2" x1="217.81" y1="468.15" x2="214.82" y2="472.57" />
            <line class="cls-2" x1="215" y1="463.81" x2="217.81" y2="468.13" />
        </g>
        <line class="cls-1" x1="131.53" y1="516.53" x2="131.53" y2="468.33" />
        <g>
            <line class="cls-2" x1="3" y1="516.53" x2="131.53" y2="516.53" />
            <circle class="cls-5" cx="3" cy="516.53" r="2.26"
                transform="translate(-475.36 321.63) rotate(-67.5)" />
        </g>
    </g>
</svg>