<?xml version="1.0" encoding="UTF-8"?><svg id="VT" xmlns="http://www.w3.org/2000/svg" viewBox="0 0 458 600"><defs><style>.cls-1{fill:#2e3192;}.cls-2{letter-spacing:-.02em;}.cls-3{fill:#231f20;font-family:ArialMT, Arial;font-size:14px;}.cls-4{fill:none;stroke:#2e3192;stroke-linecap:round;stroke-miterlimit:10;}</style></defs><g id="VT4"><g id="VT4_4"><text class="cls-3" transform="translate(236.26 65.79)"><tspan x="0" y="0">(3) V</tspan><tspan class="cls-2" x="30.34" y="0">T</tspan><tspan x="38.64" y="0" xml:space="preserve"> -</tspan><tspan class="cls-2" x="47.19" y="0" xml:space="preserve"> Y</tspan></text><line class="cls-4" x1="160.07" y1="70.25" x2="150.47" y2="70.25"/><rect class="cls-4" x="166.57" y="58.86" width="9.82" height="22.82" transform="translate(101.2 241.75) rotate(-90)"/><line class="cls-4" x1="163.07" y1="74.72" x2="163.07" y2="65.36"/><line class="cls-4" x1="179.94" y1="75.18" x2="179.94" y2="65.36"/><line class="cls-4" x1="192.25" y1="76.43" x2="187.65" y2="76.43"/><line class="cls-4" x1="192.25" y1="63.66" x2="187.65" y2="63.66"/><path class="cls-4" d="m192.25,70.04c2.15,0,3.89,1.43,3.89,3.19s-1.74,3.19-3.89,3.19"/><path class="cls-4" d="m192.25,63.66c2.15,0,3.89,1.43,3.89,3.19s-1.74,3.19-3.89,3.19"/><line class="cls-4" x1="192.25" y1="70.04" x2="182.89" y2="70.04"/><line class="cls-4" x1="147.48" y1="70.21" x2="150.28" y2="65.88"/><line class="cls-4" x1="150.47" y1="70.25" x2="153.46" y2="65.84"/><line class="cls-4" x1="202.65" y1="63.66" x2="207.26" y2="63.66"/><line class="cls-4" x1="202.65" y1="76.43" x2="207.26" y2="76.43"/><path class="cls-4" d="m202.65,70.04c-2.15,0-3.89-1.43-3.89-3.19s1.74-3.19,3.89-3.19"/><path class="cls-4" d="m202.65,76.43c-2.15,0-3.89-1.43-3.89-3.19s1.74-3.19,3.89-3.19"/><line class="cls-4" x1="153.28" y1="74.6" x2="150.47" y2="70.27"/><line class="cls-4" x1="150.47" y1="74.62" x2="147.48" y2="70.21"/><g><line class="cls-4" x1="3" y1="70.12" x2="147.48" y2="70.12"/><circle class="cls-1" cx="3" cy="70.12" r="2.26" transform="translate(-62.09 43.88) rotate(-65.59)"/></g><g><line class="cls-4" x1="202.65" y1="70.03" x2="215.38" y2="70"/><line class="cls-4" x1="215.38" y1="70.01" x2="212.39" y2="74.42"/><line class="cls-4" x1="212.57" y1="65.66" x2="215.38" y2="69.99"/><line class="cls-4" x1="218.37" y1="70.01" x2="220.39" y2="70.01"/><line class="cls-4" x1="218.37" y1="70.01" x2="215.38" y2="74.43"/><line class="cls-4" x1="215.56" y1="65.67" x2="218.37" y2="70"/></g></g></g></svg>