<?xml version="1.0" encoding="UTF-8"?><svg xmlns="http://www.w3.org/2000/svg" viewBox="0 0 227.43 601"><defs><style>.cls-1{stroke:#231f20;}.cls-1,.cls-2,.cls-3,.cls-4{fill:none;stroke-miterlimit:10;}.cls-2,.cls-3{stroke:#ed1c24;stroke-width:2.5px;}.cls-5{letter-spacing:-.07em;}.cls-3{stroke-linecap:square;}.cls-6{letter-spacing:-.06em;}.cls-7{fill:#ed1c24;}.cls-4{stroke:#2e3192;}.cls-8{fill:#231f20;font-family:ArialMT, Arial;font-size:14px;}.cls-9{letter-spacing:-.02em;}</style></defs><g id="CPT"><g id="CPT1"><g id="PT"><line class="cls-4" x1="113.51" y1="467.85" x2="98.17" y2="468.08"/><line class="cls-4" x1="98.17" y1="468.08" x2="94.46" y2="462.35"/><line class="cls-4" x1="94.05" y1="467.96" x2="90.1" y2="462.12"/><line class="cls-4" x1="87.5" y1="467.96" x2="94.05" y2="467.96"/><rect class="cls-4" x="75.26" y="460.61" width="9.82" height="14.68" transform="translate(548.11 387.78) rotate(90)"/><line class="cls-4" x1="84.57" y1="463.49" x2="84.57" y2="472.85"/><line class="cls-4" x1="75.36" y1="463.04" x2="75.36" y2="472.85"/><line class="cls-4" x1="65.93" y1="461.09" x2="68.89" y2="461.09"/><line class="cls-4" x1="65.93" y1="475.26" x2="68.89" y2="475.26"/><path class="cls-4" d="m65.93,468.17c-1.38,0-2.5-1.59-2.5-3.54s1.12-3.54,2.5-3.54"/><path class="cls-4" d="m65.93,475.26c-1.38,0-2.5-1.59-2.5-3.54s1.12-3.54,2.5-3.54"/><line class="cls-4" x1="65.93" y1="468.17" x2="72.83" y2="468.17"/><line class="cls-4" x1="98.18" y1="467.95" x2="94.46" y2="473.67"/><line class="cls-4" x1="94.06" y1="468.06" x2="90.1" y2="473.9"/><line class="cls-4" x1="58.32" y1="461.09" x2="55.36" y2="461.09"/><line class="cls-4" x1="58.32" y1="475.26" x2="55.36" y2="475.26"/><path class="cls-4" d="m58.32,468.17c1.38,0,2.5-1.59,2.5-3.54s-1.12-3.54-2.5-3.54"/><path class="cls-4" d="m58.32,475.26c1.38,0,2.5-1.59,2.5-3.54s-1.12-3.54-2.5-3.54"/><line class="cls-4" x1="58.32" y1="468.17" x2="47.93" y2="468.17"/><line class="cls-4" x1="39.03" y1="468.24" x2="43.32" y2="468.24"/><line class="cls-4" x1="43.32" y1="468.24" x2="47.04" y2="462.51"/><line class="cls-4" x1="43.32" y1="468.11" x2="47.03" y2="473.83"/><line class="cls-4" x1="47.28" y1="468.13" x2="51.24" y2="462.29"/><line class="cls-4" x1="47.27" y1="468.22" x2="51.23" y2="474.06"/></g><text class="cls-8" transform="translate(120.31 475.11)"><tspan x="0" y="0">(1) CP</tspan><tspan class="cls-9" x="40.45" y="0">T</tspan><tspan x="0" y="16.8">5-15 k</tspan><tspan class="cls-5" x="38.91" y="16.8">V</tspan><tspan class="cls-6" x="47.21" y="16.8">A</tspan></text></g></g><g id="FRAME"><rect id="Frame" class="cls-1" x=".5" y=".5" width="226.43" height="600"/></g><g id="BUSBARS"><g id="Cable_-_bottom_bottom_feed"><line class="cls-3" x1="183.27" y1="552.79" x2="183.27" y2="571.25"/><path class="cls-7" d="m183.27,572.49l3.8,5.24h-7.61l3.8-5.24m0-3.41l-1.62,2.23-3.8,5.24-2.3,3.17h15.45l-2.3-3.17-3.8-5.24-1.62-2.23h0Z"/><line class="cls-3" x1="113.7" y1="552.79" x2="183.27" y2="552.79"/></g><line id="Center_left" class="cls-2" x1=".72" y1="300.5" x2="113.72" y2="300.5"/><line id="Center_right" class="cls-2" x1="113.7" y1="300.5" x2="226.7" y2="300.5"/><line id="No_breaker-_bottom" class="cls-2" x1="113.72" y1="300.5" x2="113.7" y2="552.79"/></g></svg>