<?xml version="1.0" encoding="UTF-8"?><svg id="VT" xmlns="http://www.w3.org/2000/svg" viewBox="0 0 226 600"><defs><style>.cls-1{fill:#2e3192;}.cls-2{letter-spacing:-.02em;}.cls-3{fill:#231f20;font-family:ArialMT, Arial;font-size:14px;}.cls-4{fill:none;stroke:#2e3192;stroke-linecap:round;stroke-miterlimit:10;}</style></defs><g id="VT3"><g id="VT3_1"><text class="cls-3" transform="translate(120.22 161.04)"><tspan x="0" y="0">(3) V</tspan><tspan class="cls-2" x="30.34" y="0">T</tspan><tspan x="38.64" y="0" xml:space="preserve"> -</tspan><tspan class="cls-2" x="47.19" y="0" xml:space="preserve"> Y</tspan></text><g><line class="cls-4" x1="112.81" y1="165.11" x2="99.83" y2="165.11"/><path class="cls-1" d="m112.81,162.86c1.25,0,2.26,1.01,2.26,2.26s-1.01,2.26-2.26,2.26-2.26-1.01-2.26-2.26,1.01-2.26,2.26-2.26Z"/></g><line class="cls-4" x1="87.24" y1="165.07" x2="96.84" y2="165.07"/><rect class="cls-4" x="70.92" y="153.64" width="9.82" height="22.82" transform="translate(240.88 89.22) rotate(90)"/><line class="cls-4" x1="84.24" y1="160.6" x2="84.24" y2="169.96"/><line class="cls-4" x1="67.42" y1="160.14" x2="67.42" y2="169.96"/><line class="cls-4" x1="55.05" y1="158.89" x2="59.66" y2="158.89"/><line class="cls-4" x1="55.05" y1="171.66" x2="59.66" y2="171.66"/><path class="cls-4" d="m55.05,165.28c-2.15,0-3.89-1.43-3.89-3.19s1.74-3.19,3.89-3.19"/><path class="cls-4" d="m55.05,171.66c-2.15,0-3.89-1.43-3.89-3.19s1.74-3.19,3.89-3.19"/><line class="cls-4" x1="55.05" y1="165.28" x2="64.42" y2="165.28"/><line class="cls-4" x1="99.83" y1="165.11" x2="97.02" y2="169.44"/><line class="cls-4" x1="96.84" y1="165.07" x2="93.85" y2="169.48"/><line class="cls-4" x1="44.65" y1="171.66" x2="40.05" y2="171.66"/><line class="cls-4" x1="44.65" y1="158.89" x2="40.05" y2="158.89"/><path class="cls-4" d="m44.65,165.28c2.15,0,3.89,1.43,3.89,3.19s-1.74,3.19-3.89,3.19"/><path class="cls-4" d="m44.65,158.89c2.15,0,3.89,1.43,3.89,3.19s-1.74,3.19-3.89,3.19"/><line class="cls-4" x1="94.03" y1="160.72" x2="96.84" y2="165.05"/><line class="cls-4" x1="96.84" y1="160.7" x2="99.83" y2="165.11"/><g><line class="cls-4" x1="44.65" y1="165.3" x2="31.93" y2="165.32"/><line class="cls-4" x1="31.93" y1="165.32" x2="34.92" y2="160.9"/><line class="cls-4" x1="34.74" y1="169.66" x2="31.93" y2="165.33"/><line class="cls-4" x1="28.94" y1="165.31" x2="26.92" y2="165.31"/><line class="cls-4" x1="28.94" y1="165.31" x2="31.93" y2="160.89"/><line class="cls-4" x1="31.75" y1="169.65" x2="28.94" y2="165.33"/></g></g></g></svg>