<?xml version="1.0" encoding="UTF-8"?><svg id="VT" xmlns="http://www.w3.org/2000/svg" viewBox="0 0 226 600"><defs><style>.cls-1{stroke-linejoin:round;}.cls-1,.cls-2{fill:none;stroke:#2e3192;stroke-linecap:round;}.cls-3{fill:#2e3192;}.cls-4{letter-spacing:-.02em;}.cls-5{fill:#231f20;font-family:ArialMT, Arial;font-size:14px;}.cls-2{stroke-miterlimit:10;}</style></defs><g id="VT1"><g id="VT1_3"><text class="cls-5" transform="translate(120.22 512.04)"><tspan x="0" y="0">(3) V</tspan><tspan class="cls-4" x="30.34" y="0">T</tspan><tspan x="38.64" y="0" xml:space="preserve"> -</tspan><tspan class="cls-4" x="47.19" y="0" xml:space="preserve"> Y</tspan></text><line class="cls-1" x1="16.04" y1="69.82" x2="16.04" y2="516.3"/><g><line class="cls-1" x1="112.99" y1="69.82" x2="16.04" y2="69.82"/><circle class="cls-3" cx="112.99" cy="69.82" r="2.26" transform="translate(-4.32 132.1) rotate(-59.68)"/></g><line class="cls-2" x1="16.04" y1="516.3" x2="30.86" y2="516.33"/><line class="cls-2" x1="44.03" y1="516.33" x2="34.43" y2="516.33"/><rect class="cls-2" x="50.53" y="504.89" width="9.82" height="22.82" transform="translate(-460.86 571.73) rotate(-90)"/><line class="cls-2" x1="47.03" y1="520.75" x2="47.03" y2="511.39"/><line class="cls-2" x1="63.84" y1="521.2" x2="63.84" y2="511.39"/><line class="cls-2" x1="76.21" y1="522.68" x2="71.61" y2="522.68"/><line class="cls-2" x1="76.21" y1="509.91" x2="71.61" y2="509.91"/><path class="cls-2" d="m76.21,516.3c2.15,0,3.89,1.43,3.89,3.19s-1.74,3.19-3.89,3.19"/><path class="cls-2" d="m76.21,509.91c2.15,0,3.89,1.43,3.89,3.19s-1.74,3.19-3.89,3.19"/><line class="cls-2" x1="76.21" y1="516.3" x2="66.84" y2="516.3"/><line class="cls-2" x1="34.43" y1="516.33" x2="37.42" y2="511.92"/><line class="cls-2" x1="86.61" y1="509.91" x2="91.22" y2="509.91"/><line class="cls-2" x1="86.61" y1="522.68" x2="91.22" y2="522.68"/><path class="cls-2" d="m86.61,516.3c-2.15,0-3.89-1.43-3.89-3.19s1.74-3.19,3.89-3.19"/><path class="cls-2" d="m86.61,522.68c-2.15,0-3.89-1.43-3.89-3.19s1.74-3.19,3.89-3.19"/><line class="cls-2" x1="37.24" y1="520.68" x2="34.43" y2="516.35"/><line class="cls-2" x1="30.86" y1="516.37" x2="33.85" y2="511.95"/><line class="cls-2" x1="33.67" y1="520.71" x2="30.86" y2="516.38"/><g><line class="cls-2" x1="86.61" y1="516.28" x2="99.34" y2="516.26"/><line class="cls-2" x1="99.34" y1="516.26" x2="96.35" y2="520.67"/><line class="cls-2" x1="96.53" y1="511.91" x2="99.34" y2="516.24"/><line class="cls-2" x1="102.33" y1="516.27" x2="104.34" y2="516.27"/><line class="cls-2" x1="102.33" y1="516.27" x2="99.34" y2="520.68"/><line class="cls-2" x1="99.52" y1="511.92" x2="102.33" y2="516.25"/></g></g></g></svg>