<?xml version="1.0" encoding="UTF-8"?>
<svg id="CPT" xmlns="http://www.w3.org/2000/svg" viewBox="0 0 226 600">
    <defs>
        <style>.cls-1{stroke-linejoin:round;}.cls-1,.cls-2{fill:none;stroke:#2e3192;stroke-linecap:round;}.cls-3{letter-spacing:-.07em;}.cls-4{letter-spacing:-.06em;}.cls-5{fill:#2e3192;}.cls-6{letter-spacing:0em;}.cls-7{fill:#231f20;font-family:ArialMT,
            Arial;font-size:14px;}.cls-2{stroke-miterlimit:10;}.cls-8{letter-spacing:-.02em;}</style>
    </defs>
    <g id="CPT23">
        <text class="cls-7" transform="translate(118.76 94.04)">
            <tspan x="0" y="0">(1) CP</tspan>
            <tspan class="cls-8" x="40.45" y="0">T</tspan>
        </text>
        <g>
            <line class="cls-2" x1="16.56" y1="98.89" x2="29.54" y2="98.89" />
            <line class="cls-2" x1="42.13" y1="98.93" x2="32.53" y2="98.93" />
            <rect class="cls-2" x="48.63" y="87.54" width="9.82" height="22.82"
                transform="translate(-45.41 152.49) rotate(-90)" />
            <line class="cls-2" x1="45.13" y1="103.4" x2="45.13" y2="94.04" />
            <line class="cls-2" x1="61.95" y1="103.86" x2="61.95" y2="94.04" />
            <line class="cls-2" x1="74.32" y1="105.11" x2="69.71" y2="105.11" />
            <line class="cls-2" x1="74.32" y1="92.34" x2="69.71" y2="92.34" />
            <path class="cls-2" d="m74.32,98.72c2.15,0,3.89,1.43,3.89,3.19s-1.74,3.19-3.89,3.19" />
            <path class="cls-2" d="m74.32,92.34c2.15,0,3.89,1.43,3.89,3.19s-1.74,3.19-3.89,3.19" />
            <line class="cls-2" x1="74.32" y1="98.72" x2="64.95" y2="98.72" />
            <line class="cls-2" x1="29.54" y1="98.89" x2="32.35" y2="94.56" />
            <line class="cls-2" x1="32.53" y1="98.93" x2="35.52" y2="94.52" />
            <line class="cls-2" x1="84.72" y1="92.34" x2="89.32" y2="92.34" />
            <line class="cls-2" x1="84.72" y1="105.11" x2="89.32" y2="105.11" />
            <path class="cls-2" d="m84.72,98.72c-2.15,0-3.89-1.43-3.89-3.19s1.74-3.19,3.89-3.19" />
            <path class="cls-2" d="m84.72,105.11c-2.15,0-3.89-1.43-3.89-3.19s1.74-3.19,3.89-3.19" />
            <line class="cls-2" x1="35.34" y1="103.28" x2="32.53" y2="98.95" />
            <line class="cls-2" x1="32.53" y1="103.3" x2="29.54" y2="98.89" />
            <g>
                <line class="cls-2" x1="84.21" y1="98.72" x2="96.94" y2="98.7" />
                <line class="cls-2" x1="96.94" y1="98.7" x2="93.95" y2="103.12" />
                <line class="cls-2" x1="94.13" y1="94.36" x2="96.94" y2="98.68" />
                <line class="cls-2" x1="99.93" y1="98.71" x2="101.95" y2="98.71" />
                <line class="cls-2" x1="99.93" y1="98.71" x2="96.94" y2="103.12" />
                <line class="cls-2" x1="97.12" y1="94.36" x2="99.93" y2="98.69" />
            </g>
        </g>
        <line class="cls-1" x1="16.04" y1="516.05" x2="16.56" y2="98.89" />
        <g>
            <line class="cls-1" x1="112.99" y1="516.05" x2="16.04" y2="516.05" />
            <path class="cls-5"
                d="m112.99,513.79c1.25,0,2.26,1.01,2.26,2.26s-1.01,2.26-2.26,2.26-2.26-1.01-2.26-2.26,1.01-2.26,2.26-2.26Z" />
        </g>
    </g>
</svg>