<?xml version="1.0" encoding="UTF-8"?><svg id="CPT" xmlns="http://www.w3.org/2000/svg" viewBox="0 0 226 600"><defs><style>.cls-1{letter-spacing:-.07em;}.cls-2{letter-spacing:-.06em;}.cls-3{fill:none;stroke:#2e3192;stroke-miterlimit:10;}.cls-4{letter-spacing:0em;}.cls-5{fill:#231f20;font-family:ArialMT, Arial;font-size:14px;}.cls-6{letter-spacing:-.02em;}</style></defs><g id="CPT1"><g id="PT"><line class="cls-3" x1="112.8" y1="468.05" x2="97.46" y2="468.28"/><line class="cls-3" x1="97.46" y1="468.28" x2="93.74" y2="462.55"/><line class="cls-3" x1="93.34" y1="468.16" x2="89.38" y2="462.32"/><line class="cls-3" x1="86.78" y1="468.16" x2="93.34" y2="468.16"/><rect class="cls-3" x="74.54" y="460.81" width="9.82" height="14.68" transform="translate(547.59 388.7) rotate(90)"/><line class="cls-3" x1="83.85" y1="463.69" x2="83.85" y2="473.05"/><line class="cls-3" x1="74.65" y1="463.24" x2="74.65" y2="473.05"/><line class="cls-3" x1="65.21" y1="461.29" x2="68.18" y2="461.29"/><line class="cls-3" x1="65.21" y1="475.46" x2="68.18" y2="475.46"/><path class="cls-3" d="m65.21,468.37c-1.38,0-2.5-1.59-2.5-3.54s1.12-3.54,2.5-3.54"/><path class="cls-3" d="m65.21,475.46c-1.38,0-2.5-1.59-2.5-3.54s1.12-3.54,2.5-3.54"/><line class="cls-3" x1="65.21" y1="468.37" x2="72.11" y2="468.37"/><line class="cls-3" x1="97.46" y1="468.15" x2="93.75" y2="473.87"/><line class="cls-3" x1="93.34" y1="468.26" x2="89.39" y2="474.1"/><line class="cls-3" x1="57.6" y1="461.29" x2="54.64" y2="461.29"/><line class="cls-3" x1="57.6" y1="475.46" x2="54.64" y2="475.46"/><path class="cls-3" d="m57.6,468.37c1.38,0,2.5-1.59,2.5-3.54s-1.12-3.54-2.5-3.54"/><path class="cls-3" d="m57.6,475.46c1.38,0,2.5-1.59,2.5-3.54s-1.12-3.54-2.5-3.54"/><line class="cls-3" x1="57.6" y1="468.37" x2="47.21" y2="468.37"/><line class="cls-3" x1="38.32" y1="468.44" x2="42.61" y2="468.44"/><line class="cls-3" x1="42.61" y1="468.44" x2="46.32" y2="462.71"/><line class="cls-3" x1="42.6" y1="468.31" x2="46.32" y2="474.03"/><line class="cls-3" x1="46.56" y1="468.33" x2="50.52" y2="462.49"/><line class="cls-3" x1="46.56" y1="468.42" x2="50.51" y2="474.26"/></g><text class="cls-5" transform="translate(119.59 475.31)"><tspan x="0" y="0">(1) CP</tspan><tspan class="cls-6" x="40.45" y="0">T</tspan><tspan class="cls-4" x="48.75" y="0" xml:space="preserve"> 5-15k</tspan><tspan class="cls-1" x="87.66" y="0">V</tspan><tspan class="cls-2" x="95.96" y="0">A</tspan></text></g></svg>