<?xml version="1.0" encoding="UTF-8"?><svg id="SIDE_VIEW" xmlns="http://www.w3.org/2000/svg" viewBox="0 0 581 600"><defs><style>.cls-1{fill:#010101;font-family:ArialMT, Arial;font-size:17.8px;}.cls-2{fill:none;stroke:#010101;stroke-linecap:round;stroke-linejoin:round;}.cls-3{letter-spacing:-.02em;}</style></defs><g id="CPT"><g id="CPT12"><g id="CPT21_copy"><g id="LINE"><line class="cls-2" x1="560.83" y1="399.81" x2="560.83" y2="576"/></g><g id="LINE-2"><line class="cls-2" x1="520.9" y1="576" x2="459.07" y2="576"/></g><g id="LINE-3"><line class="cls-2" x1="444.52" y1="576" x2="428.3" y2="576"/></g><g id="LINE-4"><line class="cls-2" x1="428.3" y1="576" x2="428.3" y2="517.2"/></g><g id="LINE-5"><line class="cls-2" x1="428.3" y1="511.16" x2="428.3" y2="399.81"/></g><g id="LINE-6"><line class="cls-2" x1="428.3" y1="399.81" x2="560.83" y2="399.81"/></g><g id="CIRCLE"><circle class="cls-2" cx="528.19" cy="579.01" r="7.89"/></g><g id="CIRCLE-2"><circle class="cls-2" cx="451.81" cy="579.03" r="7.89"/></g><g id="LWPOLYLINE"><line class="cls-2" x1="459.07" y1="576" x2="520.9" y2="576"/></g><g id="LWPOLYLINE-2"><polyline class="cls-2" points="461.98 502.52 461.98 555.82 537.59 555.82 537.59 540.98"/></g><g id="LWPOLYLINE-3"><polyline class="cls-2" points="537.59 522.73 537.59 480.21 472.27 480.21"/></g><g id="LWPOLYLINE-4"><polyline class="cls-2" points="465.13 480.21 461.98 480.21 461.98 485.06"/></g><g id="LINE-7"><line class="cls-2" x1="551.66" y1="576" x2="551.66" y2="501.52"/></g><g id="LINE-8"><line class="cls-2" x1="560.83" y1="576" x2="535.49" y2="576"/></g><g id="LINE-9"><line class="cls-2" x1="447.91" y1="572.17" x2="447.91" y2="501.52"/></g><g id="LINE-10"><line class="cls-2" x1="551.66" y1="501.52" x2="540.51" y2="511.51"/></g><g id="LINE-11"><line class="cls-2" x1="540.51" y1="511.51" x2="540.51" y2="524.63"/></g><g id="LINE-12"><line class="cls-2" x1="540.51" y1="536.5" x2="540.5" y2="574.47"/></g><g id="LINE-13"><line class="cls-2" x1="447.91" y1="501.52" x2="459.06" y2="511.51"/></g><g id="LINE-14"><line class="cls-2" x1="459.06" y1="511.51" x2="459.07" y2="576"/></g><g id="ARC"><path class="cls-2" d="m543.79,508.57c-1.48-2.91-3.6-5.44-6.2-7.41"/></g><g id="ARC-2"><path class="cls-2" d="m530.23,571.38c3.95-1.08,7.51-3.26,10.27-6.28"/></g><g id="LINE-15"><line class="cls-2" x1="524.52" y1="572.15" x2="499.78" y2="572.15"/></g><g id="ARC-3"><path class="cls-2" d="m461.04,501.91c-2.18,1.85-3.97,4.11-5.27,6.66"/></g><g id="ARC-4"><path class="cls-2" d="m459.07,565.1c4.1,4.49,9.9,7.05,15.98,7.05"/></g><g id="LINE-16"><line class="cls-2" x1="475.05" y1="572.15" x2="499.78" y2="572.15"/></g><g id="LWPOLYLINE-5"><rect class="cls-2" x="487.81" y="465.8" width="24.31" height="93.88" transform="translate(-202.51 652.01) rotate(-56.94)"/></g><g id="LWPOLYLINE-6"><rect class="cls-2" x="499.78" y="451.74" width="19.72" height="28.47"/></g><g id="LINE-17"><line class="cls-2" x1="574.05" y1="586.95" x2="328.65" y2="586.95"/></g><g id="MTEXT"><text class="cls-1" transform="translate(374.41 465.97)"><tspan x="0" y="0">CP</tspan><tspan class="cls-3" x="24.73" y="0">T</tspan></text></g><g id="LINE-18"><line class="cls-2" x1="436.38" y1="511.66" x2="404.24" y2="511.66"/></g><g id="LINE-19"><line class="cls-2" x1="404.24" y1="511.66" x2="404.24" y2="517.2"/></g><g id="LINE-20"><line class="cls-2" x1="404.24" y1="517.2" x2="436.38" y2="517.2"/></g><g id="LINE-21"><line class="cls-2" x1="404.24" y1="511.66" x2="401.65" y2="514.37"/></g><g id="LINE-22"><line class="cls-2" x1="401.65" y1="514.37" x2="404.24" y2="517.2"/></g><g id="LWPOLYLINE-7"><polyline class="cls-2" points="447.91 519.69 436.38 519.69 436.38 508.53 447.91 508.53"/></g><g id="LINE-23"><line class="cls-2" x1="428.3" y1="511.66" x2="428.3" y2="511.16"/></g></g><g id="LINE-24"><line class="cls-2" x1="350.12" y1="505.94" x2="367.55" y2="505.94"/></g><g id="LINE-25"><line class="cls-2" x1="367.55" y1="509.23" x2="386.13" y2="509.23"/></g><g id="LINE-26"><line class="cls-2" x1="386.13" y1="519.64" x2="367.55" y2="519.64"/></g><g id="LINE-27"><line class="cls-2" x1="367.55" y1="522.93" x2="350.12" y2="522.93"/></g><g id="LINE-28"><line class="cls-2" x1="303.49" y1="512.86" x2="303.49" y2="516.01"/></g><g id="LINE-29"><line class="cls-2" x1="309.79" y1="516.01" x2="303.49" y2="516.01"/></g><g id="LINE-30"><line class="cls-2" x1="303.49" y1="512.86" x2="309.79" y2="512.86"/></g><g id="LINE-31"><line class="cls-2" x1="289" y1="513.65" x2="289" y2="515.22"/></g><g id="LINE-32"><line class="cls-2" x1="328.01" y1="498.68" x2="309.74" y2="498.68"/></g><g id="LINE-33"><line class="cls-2" x1="367.55" y1="505.94" x2="367.55" y2="522.93"/></g><line class="cls-2" x1="386.13" y1="519.64" x2="386.13" y2="509.23"/><line class="cls-2" x1="350.12" y1="504.35" x2="328.6" y2="504.35"/><line class="cls-2" x1="350.12" y1="524.52" x2="328.61" y2="524.52"/><line class="cls-2" x1="350.12" y1="504.35" x2="350.12" y2="524.52"/><line class="cls-2" x1="309.82" y1="530.19" x2="309.74" y2="498.68"/><line class="cls-2" x1="309.82" y1="530.19" x2="328.36" y2="530.19"/><line class="cls-2" x1="289" y1="513.65" x2="303.49" y2="513.65"/><line class="cls-2" x1="289" y1="515.22" x2="303.49" y2="515.22"/><g id="LINE-34"><line class="cls-2" x1="574.05" y1="360.31" x2="328.74" y2="360.31"/></g></g></g></svg>