<?xml version="1.0" encoding="UTF-8"?><svg id="VT" xmlns="http://www.w3.org/2000/svg" viewBox="0 0 458 600"><defs><style>.cls-1{fill:#2e3192;}.cls-2{letter-spacing:-.02em;}.cls-3{fill:#231f20;font-family:ArialMT, Arial;font-size:14px;}.cls-4{fill:none;stroke:#2e3192;stroke-linecap:round;stroke-miterlimit:10;}</style></defs><g id="VT4"><g id="VT4_5"><text class="cls-3" transform="translate(236.26 65.56)"><tspan x="0" y="0">(3) V</tspan><tspan class="cls-2" x="30.34" y="0">T</tspan><tspan x="38.64" y="0" xml:space="preserve"> -</tspan><tspan class="cls-2" x="47.19" y="0" xml:space="preserve"> Y</tspan></text><line class="cls-4" x1="205.27" y1="69.61" x2="214.87" y2="69.61"/><rect class="cls-4" x="188.96" y="58.18" width="9.82" height="22.82" transform="translate(263.45 -124.28) rotate(90)"/><line class="cls-4" x1="202.27" y1="65.14" x2="202.27" y2="74.5"/><line class="cls-4" x1="185.4" y1="64.68" x2="185.4" y2="74.5"/><line class="cls-4" x1="173.09" y1="63.43" x2="177.69" y2="63.43"/><line class="cls-4" x1="173.09" y1="76.2" x2="177.69" y2="76.2"/><path class="cls-4" d="m173.09,69.82c-2.15,0-3.89-1.43-3.89-3.19s1.74-3.19,3.89-3.19"/><path class="cls-4" d="m173.09,76.2c-2.15,0-3.89-1.43-3.89-3.19s1.74-3.19,3.89-3.19"/><line class="cls-4" x1="173.09" y1="69.82" x2="182.45" y2="69.82"/><line class="cls-4" x1="217.86" y1="69.65" x2="215.06" y2="73.98"/><line class="cls-4" x1="214.87" y1="69.61" x2="211.88" y2="74.02"/><line class="cls-4" x1="162.69" y1="76.2" x2="158.08" y2="76.2"/><line class="cls-4" x1="162.69" y1="63.43" x2="158.08" y2="63.43"/><path class="cls-4" d="m162.69,69.82c2.15,0,3.89,1.43,3.89,3.19s-1.74,3.19-3.89,3.19"/><path class="cls-4" d="m162.69,63.43c2.15,0,3.89,1.43,3.89,3.19s-1.74,3.19-3.89,3.19"/><line class="cls-4" x1="212.06" y1="65.26" x2="214.87" y2="69.59"/><line class="cls-4" x1="214.87" y1="65.24" x2="217.86" y2="69.65"/><g><line class="cls-4" x1="455" y1="69.61" x2="217.79" y2="69.61"/><circle class="cls-1" cx="455" cy="69.61" r="2.26"/></g><g><line class="cls-4" x1="162.69" y1="69.83" x2="149.96" y2="69.85"/><line class="cls-4" x1="149.96" y1="69.85" x2="152.95" y2="65.44"/><line class="cls-4" x1="152.77" y1="74.2" x2="149.96" y2="69.87"/><line class="cls-4" x1="146.97" y1="69.85" x2="144.95" y2="69.85"/><line class="cls-4" x1="146.97" y1="69.85" x2="149.96" y2="65.43"/><line class="cls-4" x1="149.78" y1="74.19" x2="146.97" y2="69.86"/></g></g></g></svg>