<?xml version="1.0" encoding="UTF-8"?><svg id="CTRL" xmlns="http://www.w3.org/2000/svg" viewBox="0 0 226 600"><defs><style>.cls-1{stroke:#010101;}.cls-1,.cls-2{fill:none;stroke-linecap:round;stroke-linejoin:round;stroke-width:.5px;}.cls-2{stroke:#6abd45;}</style></defs><g id="ctrl2_equip_700gt_and_751A_Sync"><g id="CIRCLE"><ellipse class="cls-1" cx="160.31" cy="338.96" rx=".66" ry=".65"/></g><g id="LWPOLYLINE"><path class="cls-1" d="m161.79,346.44h3.87c1.09,0,1.97-.87,1.97-1.95v-11.06c0-1.08-.88-1.95-1.97-1.95h-10.68c-1.09,0-1.97.87-1.97,1.95v11.06c0,1.08.88,1.95,1.97,1.95h3.87"/></g><g id="ARC"><path class="cls-1" d="m155.14,334.89c.54,0,1.02-.32,1.22-.81"/></g><g id="LINE"><line class="cls-1" x1="155.14" y1="334.89" x2="153" y2="334.89"/></g><g id="LINE-2"><line class="cls-1" x1="156.36" y1="334.08" x2="164.27" y2="334.08"/></g><g id="ARC-2"><path class="cls-1" d="m164.27,334.08c.2.49.68.81,1.22.81"/></g><g id="LINE-3"><line class="cls-1" x1="165.49" y1="334.89" x2="167.63" y2="334.89"/></g><g id="LINE-4"><line class="cls-1" x1="159.77" y1="336.43" x2="160.86" y2="336.43"/></g><g id="ARC-3"><path class="cls-1" d="m159.77,336.43c-.27,0-.51.16-.61.42"/></g><g id="LINE-5"><line class="cls-1" x1="161.47" y1="336.84" x2="162.25" y2="338.83"/></g><g id="ARC-4"><path class="cls-1" d="m161.47,336.84c-.1-.25-.34-.42-.61-.42"/></g><g id="LINE-6"><line class="cls-1" x1="159.16" y1="336.84" x2="158.38" y2="338.83"/></g><g id="LINE-7"><line class="cls-1" x1="160.84" y1="351.34" x2="159.79" y2="351.34"/></g><g id="ARC-5"><path class="cls-1" d="m159.13,350.73c.02.34.31.61.66.61"/></g><g id="LINE-8"><line class="cls-1" x1="161.49" y1="350.73" x2="162.29" y2="339.11"/></g><g id="ARC-6"><path class="cls-1" d="m160.84,351.34c.35,0,.63-.27.66-.61"/></g><g id="ARC-7"><path class="cls-1" d="m162.29,339.11c0-.1,0-.19-.04-.28"/></g><g id="LINE-9"><line class="cls-1" x1="158.34" y1="339.11" x2="159.13" y2="350.73"/></g><g id="ARC-8"><path class="cls-1" d="m158.38,338.83c-.03.09-.05.18-.04.28"/></g><g id="CIRCLE-2"><ellipse class="cls-1" cx="155.14" cy="333.59" rx=".92" ry=".91"/></g><g id="CIRCLE-3"><ellipse class="cls-1" cx="165.49" cy="333.59" rx=".92" ry=".91"/></g><g id="CIRCLE-4"><ellipse class="cls-2" cx="162.59" cy="333.38" rx=".5" ry=".49"/></g><g id="CIRCLE-5"><ellipse class="cls-1" cx="158.04" cy="333.38" rx=".5" ry=".49"/></g><g id="CIRCLE-6"><ellipse class="cls-1" cx="162.59" cy="333.38" rx=".5" ry=".49"/></g><g id="CIRCLE-7"><ellipse class="cls-1" cx="189.59" cy="340.11" rx=".66" ry=".65"/></g><g id="LWPOLYLINE-2"><path class="cls-1" d="m191.07,346.44h3.87c1.09,0,1.97-.87,1.97-1.95v-11.06c0-1.08-.88-1.95-1.97-1.95h-10.68c-1.09,0-1.97.87-1.97,1.95v11.06c0,1.08.88,1.95,1.97,1.95h3.87"/></g><g id="ARC-9"><path class="cls-1" d="m184.41,334.89c.54,0,1.02-.32,1.22-.81"/></g><g id="LINE-10"><line class="cls-1" x1="184.41" y1="334.89" x2="182.28" y2="334.89"/></g><g id="LINE-11"><line class="cls-1" x1="185.63" y1="334.08" x2="193.55" y2="334.08"/></g><g id="ARC-10"><path class="cls-1" d="m193.55,334.08c.2.49.68.81,1.22.81"/></g><g id="LINE-12"><line class="cls-1" x1="194.77" y1="334.89" x2="196.91" y2="334.89"/></g><g id="CIRCLE-8"><ellipse class="cls-1" cx="184.41" cy="333.59" rx=".92" ry=".91"/></g><g id="CIRCLE-9"><ellipse class="cls-1" cx="194.77" cy="333.59" rx=".92" ry=".91"/></g><g id="LINE-13"><line class="cls-1" x1="191.07" y1="346.44" x2="188.12" y2="346.44"/></g><g id="LINE-14"><line class="cls-1" x1="189.15" y1="336.19" x2="190.03" y2="336.19"/></g><g id="ARC-11"><path class="cls-1" d="m189.15,336.19c-.22,0-.42.13-.5.34"/></g><g id="LINE-15"><line class="cls-1" x1="190.53" y1="336.53" x2="191.77" y2="339.69"/></g><g id="ARC-12"><path class="cls-1" d="m190.53,336.53c-.08-.2-.28-.34-.5-.34"/></g><g id="LINE-16"><line class="cls-1" x1="188.65" y1="336.53" x2="187.41" y2="339.69"/></g><g id="LINE-17"><line class="cls-1" x1="189.15" y1="344.02" x2="190.03" y2="344.02"/></g><g id="ARC-13"><path class="cls-1" d="m188.65,343.69c.08.2.28.34.5.34"/></g><g id="LINE-18"><line class="cls-1" x1="190.53" y1="343.69" x2="191.77" y2="340.52"/></g><g id="ARC-14"><path class="cls-1" d="m191.77,340.52c.1-.27.1-.56,0-.83"/></g><g id="ARC-15"><path class="cls-1" d="m190.03,344.02c.22,0,.42-.13.5-.34"/></g><g id="LINE-19"><line class="cls-1" x1="188.65" y1="343.69" x2="187.41" y2="340.52"/></g><g id="ARC-16"><path class="cls-1" d="m187.41,339.69c-.1.27-.1.56,0,.83"/></g><g id="LWPOLYLINE-3"><path class="cls-1" d="m132.74,346.44h3.87c1.09,0,1.97-.87,1.97-1.95v-11.06c0-1.08-.88-1.95-1.97-1.95h-10.68c-1.09,0-1.97.87-1.97,1.95v11.06c0,1.08.88,1.95,1.97,1.95h3.87"/></g><g id="ARC-17"><path class="cls-1" d="m126.09,334.89c.54,0,1.02-.32,1.22-.81"/></g><g id="LINE-20"><line class="cls-1" x1="126.09" y1="334.89" x2="123.95" y2="334.89"/></g><g id="LINE-21"><line class="cls-1" x1="127.31" y1="334.08" x2="135.23" y2="334.08"/></g><g id="ARC-18"><path class="cls-1" d="m135.23,334.08c.2.49.68.81,1.22.81"/></g><g id="LINE-22"><line class="cls-1" x1="136.45" y1="334.89" x2="138.58" y2="334.89"/></g><g id="CIRCLE-10"><ellipse class="cls-1" cx="126.09" cy="333.59" rx=".92" ry=".91"/></g><g id="CIRCLE-11"><ellipse class="cls-1" cx="136.45" cy="333.59" rx=".92" ry=".91"/></g><g id="CIRCLE-12"><ellipse class="cls-1" cx="131.27" cy="338.96" rx=".66" ry=".65"/></g><g id="LINE-23"><line class="cls-1" x1="130.72" y1="336.43" x2="131.81" y2="336.43"/></g><g id="ARC-19"><path class="cls-1" d="m130.72,336.43c-.27,0-.51.16-.61.42"/></g><g id="LINE-24"><line class="cls-1" x1="132.43" y1="336.84" x2="133.2" y2="338.83"/></g><g id="ARC-20"><path class="cls-1" d="m132.43,336.84c-.1-.25-.34-.42-.61-.42"/></g><g id="LINE-25"><line class="cls-1" x1="130.11" y1="336.84" x2="129.33" y2="338.83"/></g><g id="LINE-26"><line class="cls-1" x1="131.79" y1="351.34" x2="130.74" y2="351.34"/></g><g id="ARC-21"><path class="cls-1" d="m130.09,350.73c.02.34.31.61.66.61"/></g><g id="LINE-27"><line class="cls-1" x1="132.45" y1="350.73" x2="133.25" y2="339.11"/></g><g id="ARC-22"><path class="cls-1" d="m131.79,351.34c.35,0,.63-.27.66-.61"/></g><g id="ARC-23"><path class="cls-1" d="m133.25,339.11c0-.1,0-.19-.04-.28"/></g><g id="LINE-28"><line class="cls-1" x1="129.29" y1="339.11" x2="130.09" y2="350.73"/></g><g id="ARC-24"><path class="cls-1" d="m129.33,338.83c-.03.09-.05.18-.04.28"/></g><g id="LWPOLYLINE-4"><path class="cls-1" d="m143.33,250.92h32.51c.53,0,.95.42.95.94v43.47c0,.52-.43.94-.95.94h-32.51c-.53,0-.95-.42-.95-.94v-43.47c0-.52.43-.94.95-.94Z"/></g><g id="LWPOLYLINE-5"><path class="cls-1" d="m153.09,264.88h1.81c.42,0,.76.33.76.75v1.8c0,.41-.34.75-.76.75h-1.81c-.42,0-.76-.33-.76-.75v-1.8c0-.41.34-.75.76-.75Z"/></g><g id="LWPOLYLINE-6"><path class="cls-1" d="m169.05,264.88h1.81c.42,0,.76.33.76.75v1.8c0,.41-.34.75-.76.75h-1.81c-.42,0-.76-.33-.76-.75v-1.8c0-.41.34-.75.76-.75Z"/></g><g id="LWPOLYLINE-7"><path class="cls-1" d="m162.9,267.06c.17,0,.34.05.47.16l.22.21.12.11c.3.29.3.77,0,1.06l-1.22,1.21c-.3.29-.77.29-1.07,0l-1.22-1.21c-.3-.29-.3-.77,0-1.06l.12-.11.22-.21c.13-.11.3-.16.47-.16h1.88Z"/></g><g id="LWPOLYLINE-8"><path class="cls-1" d="m162.06,268.95l.73-.73c.06-.06.06-.15,0-.2-.03-.03-.06-.04-.1-.04h-1.47c-.08,0-.14.06-.14.14,0,.04.02.07.04.1l.73.73c.06.05.15.05.2,0Z"/></g><g id="LWPOLYLINE-9"><path class="cls-1" d="m164.66,267.46c0,.17.05.34.16.47l.22.22.12.11c.3.29.77.29,1.07,0l1.22-1.21c.3-.29.3-.77,0-1.06l-1.22-1.21c-.3-.29-.77-.29-1.07,0l-.12.11-.22.22c-.11.13-.17.3-.16.47v1.86Z"/></g><g id="LWPOLYLINE-10"><path class="cls-1" d="m166.57,266.63l-.73.73s-.06.04-.1.04c-.08,0-.14-.06-.15-.14v-1.45s.02-.07.04-.1c.06-.06.15-.06.2,0l.73.73c.06.06.06.15,0,.2Z"/></g><g id="LWPOLYLINE-11"><path class="cls-1" d="m159.29,267.46c0,.17-.05.34-.16.47l-.22.22-.12.11c-.3.29-.77.29-1.07,0l-1.22-1.21c-.3-.29-.3-.77,0-1.06l1.22-1.21c.3-.29.77-.29,1.07,0l.12.11.22.22c.11.13.17.3.16.47v1.86Z"/></g><g id="LWPOLYLINE-12"><path class="cls-1" d="m157.38,266.63l.73.73c.06.06.15.05.2,0,.03-.03.04-.06.04-.1v-1.45c0-.08-.07-.14-.15-.14-.04,0-.07.02-.1.04l-.73.73c-.06.06-.06.15,0,.2Z"/></g><g id="LWPOLYLINE-13"><path class="cls-1" d="m148.45,264.88h1.81c.42,0,.76.33.76.75v1.8c0,.41-.34.75-.76.75h-1.81c-.42,0-.76-.33-.76-.75v-1.8c0-.41.34-.75.76-.75Z"/></g><g id="LWPOLYLINE-14"><path class="cls-1" d="m162.9,265.99c.17,0,.34-.05.47-.16l.22-.21.12-.11c.3-.29.3-.77,0-1.06l-1.22-1.21c-.3-.29-.77-.29-1.07,0l-1.22,1.21c-.3.29-.3.77,0,1.06l.12.11.22.21c.13.11.3.16.47.16,0,0,1.88,0,1.88,0Z"/></g><g id="LWPOLYLINE-15"><path class="cls-1" d="m162.06,264.1l.73.73s.04.06.04.1c0,.08-.06.14-.14.14h-1.47s-.07-.02-.1-.04c-.06-.06-.06-.15,0-.2l.73-.73c.06-.05.15-.05.2,0Z"/></g><g id="LWPOLYLINE-16"><path class="cls-1" d="m147.64,291.52h2.93s.05,0,.08,0c.26.04.44.29.39.55l-.17.92c-.04.23-.24.39-.47.39h-2.6c-.23,0-.43-.16-.47-.39l-.16-.92s0-.05,0-.08c0-.26.21-.47.48-.48Z"/></g><g id="LWPOLYLINE-17"><polygon class="cls-1" points="146.13 291.8 146.7 292.13 146.7 292.77 146.13 293.1 145.56 292.77 145.56 292.13 146.13 291.8"/></g><g id="LWPOLYLINE-18"><polygon class="cls-1" points="152.08 291.8 152.65 292.13 152.65 292.77 152.08 293.1 151.51 292.77 151.51 292.13 152.08 291.8"/></g><g id="LWPOLYLINE-19"><path class="cls-1" d="m148.2,261.13h22.73c.17,0,.31-.13.32-.3v-4.62c0-.17-.13-.3-.3-.3h-22.73c-.17,0-.31.13-.32.3v4.62c0,.17.13.3.3.3Z"/></g><g id="CIRCLE-13"><circle class="cls-1" cx="157.2" cy="285.03" r=".36"/></g><g id="CIRCLE-14"><circle class="cls-1" cx="157.2" cy="287.15" r=".36"/></g><g id="CIRCLE-15"><ellipse class="cls-1" cx="155.06" cy="286.09" rx="1.51" ry="1.5"/></g><g id="LWPOLYLINE-20"><path class="cls-1" d="m155.06,284.41h8.09s.01,0,.02,0c.17.01.29.15.28.32v2.73s0,.01,0,.02c-.01.17-.16.29-.32.28h-7.99s-.06,0-.09,0c-.94,0-1.69-.76-1.69-1.68s.77-1.67,1.7-1.67Z"/></g><g id="CIRCLE-16"><circle class="cls-1" cx="167.92" cy="285.03" r=".36"/></g><g id="CIRCLE-17"><circle class="cls-1" cx="167.92" cy="287.15" r=".36"/></g><g id="CIRCLE-18"><ellipse class="cls-1" cx="165.77" cy="286.09" rx="1.51" ry="1.5"/></g><g id="LWPOLYLINE-21"><path class="cls-1" d="m165.78,284.41h8.09s.01,0,.02,0c.17.01.29.15.28.32v2.73s0,.01,0,.02c-.01.17-.16.29-.32.28h-7.99s-.06,0-.09,0c-.94,0-1.69-.76-1.69-1.68s.77-1.67,1.7-1.67Z"/></g><g id="CIRCLE-19"><circle class="cls-1" cx="167.92" cy="280.79" r=".36"/></g><g id="CIRCLE-20"><circle class="cls-1" cx="167.92" cy="282.91" r=".36"/></g><g id="CIRCLE-21"><ellipse class="cls-1" cx="165.77" cy="281.85" rx="1.51" ry="1.5"/></g><g id="LWPOLYLINE-22"><path class="cls-1" d="m165.78,280.17h8.09s.01,0,.02,0c.17.01.29.15.28.32v2.73s0,.01,0,.02c-.01.17-.16.29-.32.28h-7.99s-.06,0-.09,0c-.94,0-1.69-.76-1.69-1.68s.77-1.67,1.7-1.67Z"/></g><g id="CIRCLE-22"><circle class="cls-1" cx="167.92" cy="276.54" r=".36"/></g><g id="CIRCLE-23"><circle class="cls-1" cx="167.92" cy="278.66" r=".36"/></g><g id="CIRCLE-24"><ellipse class="cls-1" cx="165.77" cy="277.6" rx="1.51" ry="1.5"/></g><g id="LWPOLYLINE-23"><path class="cls-1" d="m165.78,275.93h8.09s.01,0,.02,0c.17.01.29.15.28.32v2.73s0,.01,0,.02c-.01.17-.16.29-.32.28h-7.99s-.06,0-.09,0c-.94,0-1.69-.76-1.69-1.68s.77-1.67,1.7-1.67Z"/></g><g id="CIRCLE-25"><circle class="cls-1" cx="167.92" cy="272.3" r=".36"/></g><g id="CIRCLE-26"><circle class="cls-1" cx="167.92" cy="274.42" r=".36"/></g><g id="CIRCLE-27"><ellipse class="cls-1" cx="165.77" cy="273.36" rx="1.51" ry="1.5"/></g><g id="LWPOLYLINE-24"><path class="cls-1" d="m165.78,271.69h8.09s.01,0,.02,0c.17.01.29.15.28.32v2.73s0,.01,0,.02c-.01.17-.16.29-.32.28h-7.99s-.06,0-.09,0c-.94,0-1.69-.76-1.69-1.68s.77-1.67,1.7-1.67Z"/></g><g id="CIRCLE-28"><circle class="cls-1" cx="157.2" cy="280.79" r=".36"/></g><g id="CIRCLE-29"><circle class="cls-1" cx="157.2" cy="282.91" r=".36"/></g><g id="CIRCLE-30"><ellipse class="cls-1" cx="155.06" cy="281.85" rx="1.51" ry="1.5"/></g><g id="LWPOLYLINE-25"><path class="cls-1" d="m155.06,280.17h8.09s.01,0,.02,0c.17.01.29.15.28.32v2.73s0,.01,0,.02c-.01.17-.16.29-.32.28h-7.99s-.06,0-.09,0c-.94,0-1.69-.76-1.69-1.68s.77-1.67,1.7-1.67Z"/></g><g id="CIRCLE-31"><circle class="cls-1" cx="157.2" cy="276.54" r=".36"/></g><g id="CIRCLE-32"><circle class="cls-1" cx="157.2" cy="278.66" r=".36"/></g><g id="CIRCLE-33"><ellipse class="cls-1" cx="155.06" cy="277.6" rx="1.51" ry="1.5"/></g><g id="LWPOLYLINE-26"><path class="cls-1" d="m155.06,275.93h8.09s.01,0,.02,0c.17.01.29.15.28.32v2.73s0,.01,0,.02c-.01.17-.16.29-.32.28h-7.99s-.06,0-.09,0c-.94,0-1.69-.76-1.69-1.68s.77-1.67,1.7-1.67Z"/></g><g id="CIRCLE-34"><circle class="cls-1" cx="157.2" cy="272.3" r=".36"/></g><g id="CIRCLE-35"><circle class="cls-1" cx="157.2" cy="274.42" r=".36"/></g><g id="CIRCLE-36"><ellipse class="cls-1" cx="155.06" cy="273.36" rx="1.51" ry="1.5"/></g><g id="LWPOLYLINE-27"><path class="cls-1" d="m155.06,271.69h8.09s.01,0,.02,0c.17.01.29.15.28.32v2.73s0,.01,0,.02c-.01.17-.16.29-.32.28h-7.99s-.06,0-.09,0c-.94,0-1.69-.76-1.69-1.68s.77-1.67,1.7-1.67Z"/></g><g id="CIRCLE-37"><circle class="cls-1" cx="146.25" cy="285.03" r=".36"/></g><g id="CIRCLE-38"><circle class="cls-1" cx="146.25" cy="287.15" r=".36"/></g><g id="CIRCLE-39"><circle class="cls-1" cx="146.25" cy="280.79" r=".36"/></g><g id="CIRCLE-40"><circle class="cls-1" cx="146.25" cy="282.91" r=".36"/></g><g id="CIRCLE-41"><circle class="cls-1" cx="146.25" cy="276.54" r=".36"/></g><g id="CIRCLE-42"><circle class="cls-1" cx="146.25" cy="278.66" r=".36"/></g><g id="CIRCLE-43"><circle class="cls-1" cx="146.25" cy="272.3" r=".36"/></g><g id="CIRCLE-44"><circle class="cls-1" cx="146.25" cy="274.42" r=".36"/></g><g id="LWPOLYLINE-28"><path class="cls-1" d="m145.39,255.16c-.25,0-.45-.2-.45-.45v-1.67c0-.25.2-.45.45-.46h3.58c.25,0,.45.2.45.45v1.67c0,.25-.2.45-.45.46h-3.58Z"/></g><rect class="cls-1" x="135.7" y="303.08" width="47.52" height="18.7" rx="1.03" ry="1.03"/><rect class="cls-1" x="140.13" y="304.93" width="38.67" height="11.8"/><line class="cls-1" x1="142.89" y1="304.93" x2="142.89" y2="316.73"/><line class="cls-1" x1="145.65" y1="304.93" x2="145.65" y2="316.73"/><line class="cls-1" x1="148.41" y1="304.93" x2="148.41" y2="316.73"/><line class="cls-1" x1="151.18" y1="304.93" x2="151.18" y2="316.73"/><line class="cls-1" x1="153.94" y1="304.93" x2="153.94" y2="316.73"/><line class="cls-1" x1="156.7" y1="304.93" x2="156.7" y2="316.73"/><line class="cls-1" x1="159.46" y1="304.93" x2="159.46" y2="316.73"/><line class="cls-1" x1="162.22" y1="304.93" x2="162.22" y2="316.73"/><line class="cls-1" x1="164.99" y1="304.93" x2="164.99" y2="316.73"/><line class="cls-1" x1="167.75" y1="304.93" x2="167.75" y2="316.73"/><line class="cls-1" x1="170.51" y1="304.93" x2="170.51" y2="316.73"/><line class="cls-1" x1="173.27" y1="304.93" x2="173.27" y2="316.73"/><line class="cls-1" x1="176.04" y1="304.93" x2="176.04" y2="316.73"/><ellipse class="cls-1" cx="181.03" cy="310.83" rx="1.34" ry="1.32"/><ellipse class="cls-1" cx="137.9" cy="310.83" rx="1.34" ry="1.32"/></g></svg>