<?xml version="1.0" encoding="UTF-8"?>
<svg id="CPT" xmlns="http://www.w3.org/2000/svg" viewBox="0 0 226 600">
    <defs>
        <style>
            .cls-1{letter-spacing:-.07em;}.cls-2{letter-spacing:-.06em;}.cls-3{fill:#2e3192;}.cls-4{letter-spacing:0em;}.cls-5{fill:#231f20;font-family:ArialMT,
            Arial;font-size:14px;}.cls-6{fill:none;stroke:#2e3192;stroke-linecap:round;stroke-miterlimit:10;}.cls-7{letter-spacing:-.02em;}</style>
    </defs>
    <g id="CPT21">
        <text class="cls-5" transform="translate(118.76 94.04)">
            <tspan x="0" y="0">(1) CP</tspan>
            <tspan class="cls-7" x="40.45" y="0">T</tspan>
        </text>
        <g>
            <g>
                <line class="cls-6" x1="112.95" y1="98.56" x2="99.97" y2="98.56" />
                <circle class="cls-3" cx="112.95" cy="98.56" r="2.26"
                    transform="translate(-27.44 151.12) rotate(-61.64)" />
            </g>
            <line class="cls-6" x1="87.38" y1="98.51" x2="96.98" y2="98.51" />
            <rect class="cls-6" x="71.06" y="87.09" width="9.82" height="22.82"
                transform="translate(174.46 22.53) rotate(90)" />
            <line class="cls-6" x1="84.38" y1="94.04" x2="84.38" y2="103.4" />
            <line class="cls-6" x1="67.56" y1="93.59" x2="67.56" y2="103.4" />
            <line class="cls-6" x1="55.19" y1="92.34" x2="59.79" y2="92.34" />
            <line class="cls-6" x1="55.19" y1="105.11" x2="59.79" y2="105.11" />
            <path class="cls-6" d="m55.19,98.72c-2.15,0-3.89-1.43-3.89-3.19s1.74-3.19,3.89-3.19" />
            <path class="cls-6" d="m55.19,105.11c-2.15,0-3.89-1.43-3.89-3.19s1.74-3.19,3.89-3.19" />
            <line class="cls-6" x1="55.19" y1="98.72" x2="64.56" y2="98.72" />
            <line class="cls-6" x1="99.97" y1="98.56" x2="97.16" y2="102.88" />
            <line class="cls-6" x1="96.98" y1="98.51" x2="93.98" y2="102.93" />
            <line class="cls-6" x1="44.79" y1="105.11" x2="40.18" y2="105.11" />
            <line class="cls-6" x1="44.79" y1="92.34" x2="40.18" y2="92.34" />
            <path class="cls-6" d="m44.79,98.72c2.15,0,3.89,1.43,3.89,3.19s-1.74,3.19-3.89,3.19" />
            <path class="cls-6" d="m44.79,92.34c2.15,0,3.89,1.43,3.89,3.19s-1.74,3.19-3.89,3.19" />
            <line class="cls-6" x1="94.17" y1="94.17" x2="96.98" y2="98.5" />
            <line class="cls-6" x1="96.98" y1="94.14" x2="99.97" y2="98.56" />
            <g>
                <line class="cls-6" x1="45.29" y1="98.72" x2="32.57" y2="98.75" />
                <line class="cls-6" x1="32.57" y1="98.74" x2="35.56" y2="94.33" />
                <line class="cls-6" x1="35.38" y1="103.09" x2="32.57" y2="98.76" />
                <line class="cls-6" x1="29.58" y1="98.74" x2="27.56" y2="98.74" />
                <line class="cls-6" x1="29.58" y1="98.74" x2="32.57" y2="94.32" />
                <line class="cls-6" x1="32.39" y1="103.08" x2="29.58" y2="98.75" />
            </g>
        </g>
    </g>
</svg>