<?xml version="1.0" encoding="UTF-8"?><svg id="VT" xmlns="http://www.w3.org/2000/svg" viewBox="0 0 226 600"><defs><style>.cls-1{letter-spacing:-.02em;}.cls-2{fill:none;stroke:#2e3192;stroke-miterlimit:10;}.cls-3{fill:#231f20;font-family:ArialMT, Arial;font-size:14px;}</style></defs><g id="VT3"><text class="cls-3" transform="translate(119.59 161.2)"><tspan x="0" y="0">(3) V</tspan><tspan class="cls-1" x="30.34" y="0">T</tspan><tspan x="38.64" y="0" xml:space="preserve"> -</tspan><tspan class="cls-1" x="47.19" y="0" xml:space="preserve"> Y</tspan></text><g><g><line class="cls-2" x1="114.28" y1="164.83" x2="98.94" y2="165.06"/><line class="cls-2" x1="98.94" y1="165.06" x2="95.22" y2="159.33"/><line class="cls-2" x1="94.82" y1="164.94" x2="90.86" y2="159.1"/><line class="cls-2" x1="88.27" y1="164.94" x2="94.82" y2="164.94"/><rect class="cls-2" x="76.02" y="157.58" width="9.82" height="14.68" transform="translate(245.85 83.99) rotate(90)"/><line class="cls-2" x1="85.33" y1="160.47" x2="85.33" y2="169.83"/><line class="cls-2" x1="76.13" y1="160.01" x2="76.13" y2="169.83"/><line class="cls-2" x1="66.69" y1="158.06" x2="69.66" y2="158.06"/><line class="cls-2" x1="66.69" y1="172.24" x2="69.66" y2="172.24"/><path class="cls-2" d="m66.69,165.15c-1.38,0-2.5-1.59-2.5-3.54s1.12-3.54,2.5-3.54"/><path class="cls-2" d="m66.69,172.24c-1.38,0-2.5-1.59-2.5-3.54s1.12-3.54,2.5-3.54"/><line class="cls-2" x1="66.69" y1="165.15" x2="73.59" y2="165.15"/><line class="cls-2" x1="98.94" y1="164.92" x2="95.23" y2="170.65"/><line class="cls-2" x1="94.82" y1="165.04" x2="90.87" y2="170.88"/></g><g><line class="cls-2" x1="23.4" y1="165.38" x2="27.68" y2="165.38"/><line class="cls-2" x1="27.44" y1="165.25" x2="31.16" y2="170.97"/><line class="cls-2" x1="31.56" y1="165.36" x2="35.52" y2="171.2"/><line class="cls-2" x1="38.11" y1="165.36" x2="31.56" y2="165.36"/><rect class="cls-2" x="40.54" y="158.04" width="9.82" height="14.68" transform="translate(-119.93 210.83) rotate(-90)"/><line class="cls-2" x1="41.05" y1="169.83" x2="41.05" y2="160.47"/><line class="cls-2" x1="50.25" y1="170.29" x2="50.25" y2="160.47"/><line class="cls-2" x1="59.68" y1="172.24" x2="56.72" y2="172.24"/><line class="cls-2" x1="59.68" y1="158.06" x2="56.72" y2="158.06"/><path class="cls-2" d="m59.68,165.15c1.38,0,2.5,1.59,2.5,3.54s-1.12,3.54-2.5,3.54"/><path class="cls-2" d="m59.68,158.06c1.38,0,2.5,1.59,2.5,3.54s-1.12,3.54-2.5,3.54"/><line class="cls-2" x1="59.68" y1="165.15" x2="52.79" y2="165.15"/><line class="cls-2" x1="27.43" y1="165.38" x2="31.15" y2="159.65"/><line class="cls-2" x1="31.55" y1="165.26" x2="35.51" y2="159.42"/></g></g></g></svg>