<?xml version="1.0" encoding="UTF-8"?><svg xmlns="http://www.w3.org/2000/svg" viewBox="0 0 227.43 601"><defs><style>.cls-1,.cls-2{stroke:#ed1c24;stroke-width:2.5px;}.cls-1,.cls-2,.cls-3{fill:none;stroke-miterlimit:10;}.cls-4{letter-spacing:0em;}.cls-2{stroke-linecap:square;}.cls-5{fill:#ed1c24;}.cls-6{letter-spacing:-.02em;}.cls-3{stroke:#2e3192;}.cls-7{fill:#231f20;font-family:ArialMT, Arial;font-size:14px;}.cls-8{letter-spacing:-.04em;}</style></defs><g id="VT"><g id="VT3"><g id="PT"><line class="cls-3" x1="113.51" y1="172.75" x2="98.17" y2="172.98"/><line class="cls-3" x1="98.17" y1="172.98" x2="94.46" y2="167.25"/><line class="cls-3" x1="94.05" y1="172.86" x2="90.1" y2="167.02"/><line class="cls-3" x1="87.5" y1="172.86" x2="94.05" y2="172.86"/><rect class="cls-3" x="75.26" y="165.5" width="9.82" height="14.68" transform="translate(253.01 92.68) rotate(90)"/><line class="cls-3" x1="84.57" y1="168.39" x2="84.57" y2="177.75"/><line class="cls-3" x1="75.36" y1="167.93" x2="75.36" y2="177.75"/><line class="cls-3" x1="65.93" y1="165.98" x2="68.89" y2="165.98"/><line class="cls-3" x1="65.93" y1="180.16" x2="68.89" y2="180.16"/><path class="cls-3" d="m65.93,173.07c-1.38,0-2.5-1.59-2.5-3.54s1.12-3.54,2.5-3.54"/><path class="cls-3" d="m65.93,180.16c-1.38,0-2.5-1.59-2.5-3.54s1.12-3.54,2.5-3.54"/><line class="cls-3" x1="65.93" y1="173.07" x2="72.83" y2="173.07"/><line class="cls-3" x1="98.18" y1="172.84" x2="94.46" y2="178.57"/><line class="cls-3" x1="94.06" y1="172.96" x2="90.1" y2="178.8"/><line class="cls-3" x1="58.32" y1="165.98" x2="55.36" y2="165.98"/><line class="cls-3" x1="58.32" y1="180.16" x2="55.36" y2="180.16"/><path class="cls-3" d="m58.32,173.07c1.38,0,2.5-1.59,2.5-3.54s-1.12-3.54-2.5-3.54"/><path class="cls-3" d="m58.32,180.16c1.38,0,2.5-1.59,2.5-3.54s-1.12-3.54-2.5-3.54"/><line class="cls-3" x1="58.32" y1="173.07" x2="47.93" y2="173.07"/><line class="cls-3" x1="39.03" y1="173.14" x2="43.32" y2="173.14"/><line class="cls-3" x1="43.32" y1="173.14" x2="47.04" y2="167.41"/><line class="cls-3" x1="43.32" y1="173" x2="47.03" y2="178.73"/><line class="cls-3" x1="47.28" y1="173.02" x2="51.24" y2="167.18"/><line class="cls-3" x1="47.27" y1="173.12" x2="51.23" y2="178.96"/><line class="cls-3" x1="59.81" y1="186.6" x2="64.68" y2="192.16"/><line class="cls-3" x1="69.55" y1="186.83" x2="64.68" y2="192.16"/><line class="cls-3" x1="64.68" y1="198.38" x2="64.68" y2="192.16"/><line class="cls-3" x1="74.43" y1="192.16" x2="64.68" y2="192.16"/><line class="cls-3" x1="74.43" y1="202.87" x2="74.43" y2="192.16"/><line class="cls-3" x1="80.04" y1="202.87" x2="68.82" y2="202.87"/><line class="cls-3" x1="78.4" y1="205" x2="70.46" y2="205"/><line class="cls-3" x1="76.76" y1="207.14" x2="72.1" y2="207.14"/></g><text class="cls-7" transform="translate(120.31 180)"><tspan x="0" y="0">(3) V</tspan><tspan class="cls-6" x="30.34" y="0">T</tspan><tspan x="38.64" y="0" xml:space="preserve"> -</tspan><tspan class="cls-6" x="47.19" y="0" xml:space="preserve"> Y</tspan><tspan x="0" y="16.8">13.8k</tspan><tspan class="cls-8" x="34.25" y="16.8">V</tspan><tspan class="cls-4" x="43.07" y="16.8">:120V</tspan></text></g></g><g id="BUSBARS"><line id="Center_left" class="cls-1" x1=".72" y1="300.5" x2="113.72" y2="300.5"/><line id="Center_right" class="cls-1" x1="113.7" y1="300.5" x2="226.7" y2="300.5"/><line id="No_breaker_-_top" class="cls-1" x1="113.72" y1="39.9" x2="113.7" y2="300.5"/><g id="Cable_-_top_top_feed"><line class="cls-2" x1="183.27" y1="39.9" x2="183.27" y2="21.44"/><path class="cls-5" d="m187.08,14.96l-3.8,5.24-3.8-5.24h7.61m3.92-2h-15.45l2.3,3.17,3.8,5.24,1.62,2.23,1.62-2.23,3.8-5.24,2.3-3.17h0Zm-3.92,4h0,0Z"/><line class="cls-2" x1="113.7" y1="39.9" x2="183.27" y2="39.9"/></g></g></svg>