<?xml version="1.0" encoding="UTF-8"?><svg id="VT" xmlns="http://www.w3.org/2000/svg" viewBox="0 0 226 600"><defs><style>.cls-1{stroke-linejoin:round;}.cls-1,.cls-2{fill:none;stroke:#2e3192;stroke-linecap:round;}.cls-3{fill:#2e3192;}.cls-4{letter-spacing:-.02em;}.cls-5{fill:#231f20;font-family:ArialMT, Arial;font-size:14px;}.cls-2{stroke-miterlimit:10;}</style></defs><g id="VT4"><g id="VT4_2"><text class="cls-5" transform="translate(120.22 65.89)"><tspan x="0" y="0">(3) V</tspan><tspan class="cls-4" x="30.34" y="0">T</tspan><tspan x="38.64" y="0" xml:space="preserve"> -</tspan><tspan class="cls-4" x="47.19" y="0" xml:space="preserve"> Y</tspan></text><line class="cls-2" x1="112.81" y1="69.96" x2="99.83" y2="69.96"/><line class="cls-2" x1="87.24" y1="69.92" x2="96.84" y2="69.92"/><rect class="cls-2" x="70.92" y="58.49" width="9.82" height="22.82" transform="translate(145.73 -5.93) rotate(90)"/><line class="cls-2" x1="84.24" y1="65.45" x2="84.24" y2="74.81"/><line class="cls-2" x1="67.42" y1="64.99" x2="67.42" y2="74.81"/><line class="cls-2" x1="55.05" y1="63.74" x2="59.66" y2="63.74"/><line class="cls-2" x1="55.05" y1="76.51" x2="59.66" y2="76.51"/><path class="cls-2" d="m55.05,70.13c-2.15,0-3.89-1.43-3.89-3.19s1.74-3.19,3.89-3.19"/><path class="cls-2" d="m55.05,76.51c-2.15,0-3.89-1.43-3.89-3.19s1.74-3.19,3.89-3.19"/><line class="cls-2" x1="55.05" y1="70.13" x2="64.42" y2="70.13"/><line class="cls-2" x1="99.83" y1="69.96" x2="97.02" y2="74.29"/><line class="cls-2" x1="96.84" y1="69.92" x2="93.85" y2="74.33"/><line class="cls-2" x1="44.65" y1="76.51" x2="40.05" y2="76.51"/><line class="cls-2" x1="44.65" y1="63.74" x2="40.05" y2="63.74"/><path class="cls-2" d="m44.65,70.13c2.15,0,3.89,1.43,3.89,3.19s-1.74,3.19-3.89,3.19"/><path class="cls-2" d="m44.65,63.74c2.15,0,3.89,1.43,3.89,3.19s-1.74,3.19-3.89,3.19"/><line class="cls-2" x1="94.03" y1="65.57" x2="96.84" y2="69.9"/><line class="cls-2" x1="96.84" y1="65.55" x2="99.83" y2="69.96"/><g><line class="cls-1" x1="112.81" y1="300.65" x2="112.81" y2="70.09"/><circle class="cls-3" cx="112.81" cy="300.65" r="2.26" transform="translate(-206.55 267.09) rotate(-63.43)"/></g><g><line class="cls-2" x1="44.65" y1="70.14" x2="31.93" y2="70.17"/><line class="cls-2" x1="31.93" y1="70.17" x2="34.92" y2="65.75"/><line class="cls-2" x1="34.74" y1="74.51" x2="31.93" y2="70.18"/><line class="cls-2" x1="28.94" y1="70.16" x2="26.92" y2="70.16"/><line class="cls-2" x1="28.94" y1="70.16" x2="31.93" y2="65.74"/><line class="cls-2" x1="31.75" y1="74.5" x2="28.94" y2="70.17"/></g></g></g></svg>