<?xml version="1.0" encoding="UTF-8"?><svg id="SIDE_VIEW" xmlns="http://www.w3.org/2000/svg" viewBox="0 0 581 600"><defs><style>.cls-1{fill:#010101;font-family:ArialMT, Arial;font-size:17.8px;}.cls-2{fill:none;stroke:#010101;stroke-linecap:round;stroke-linejoin:round;}.cls-3{letter-spacing:-.02em;}</style></defs><g id="CPT"><g id="CPT11"><g id="LINE"><line class="cls-2" x1="561.02" y1="399.89" x2="561.02" y2="576.07"/></g><g id="LINE-2"><line class="cls-2" x1="521.08" y1="576.07" x2="459.25" y2="576.07"/></g><g id="LINE-3"><line class="cls-2" x1="444.71" y1="576.07" x2="428.49" y2="576.07"/></g><g id="LINE-4"><line class="cls-2" x1="428.49" y1="576.07" x2="428.49" y2="517.28"/></g><g id="LINE-5"><line class="cls-2" x1="428.49" y1="511.74" x2="428.49" y2="511.24"/></g><g id="LINE-6"><line class="cls-2" x1="428.49" y1="511.24" x2="428.49" y2="399.89"/></g><g id="LINE-7"><line class="cls-2" x1="428.49" y1="399.89" x2="561.02" y2="399.89"/></g><g id="CIRCLE"><circle class="cls-2" cx="528.38" cy="579.08" r="7.89"/></g><g id="CIRCLE-2"><circle class="cls-2" cx="451.99" cy="579.11" r="7.89"/></g><g id="LWPOLYLINE"><line class="cls-2" x1="459.25" y1="576.07" x2="521.08" y2="576.07"/></g><g id="LWPOLYLINE-2"><polyline class="cls-2" points="462.16 502.59 462.16 555.89 537.77 555.89 537.77 541.06"/></g><g id="LWPOLYLINE-3"><polyline class="cls-2" points="537.77 522.81 537.77 480.28 472.45 480.28"/></g><g id="LWPOLYLINE-4"><polyline class="cls-2" points="465.32 480.28 462.16 480.28 462.16 485.13"/></g><g id="LINE-8"><line class="cls-2" x1="551.84" y1="576.07" x2="551.84" y2="501.6"/></g><g id="LINE-9"><line class="cls-2" x1="561.02" y1="576.07" x2="535.67" y2="576.07"/></g><g id="LINE-10"><line class="cls-2" x1="448.09" y1="572.25" x2="448.09" y2="501.6"/></g><g id="LINE-11"><line class="cls-2" x1="551.84" y1="501.6" x2="540.69" y2="511.58"/></g><g id="LINE-12"><line class="cls-2" x1="540.69" y1="511.58" x2="540.69" y2="524.71"/></g><g id="LINE-13"><line class="cls-2" x1="540.69" y1="536.58" x2="540.68" y2="576.07"/></g><g id="LINE-14"><line class="cls-2" x1="448.09" y1="501.6" x2="459.24" y2="511.58"/></g><g id="LINE-15"><line class="cls-2" x1="459.24" y1="511.58" x2="459.25" y2="576.07"/></g><g id="ARC"><path class="cls-2" d="m543.97,508.64c-1.48-2.91-3.6-5.44-6.2-7.41"/></g><g id="ARC-2"><path class="cls-2" d="m530.41,571.46c3.95-1.08,7.51-3.26,10.27-6.28"/></g><g id="LINE-16"><line class="cls-2" x1="524.71" y1="572.23" x2="499.97" y2="572.23"/></g><g id="ARC-3"><path class="cls-2" d="m461.23,501.98c-2.18,1.85-3.97,4.11-5.27,6.66"/></g><g id="ARC-4"><path class="cls-2" d="m459.25,565.17c4.1,4.49,9.9,7.05,15.98,7.05"/></g><g id="LINE-17"><line class="cls-2" x1="475.23" y1="572.23" x2="499.97" y2="572.23"/></g><g id="LWPOLYLINE-5"><rect class="cls-2" x="487.99" y="465.88" width="24.31" height="93.88" transform="translate(-202.49 652.2) rotate(-56.94)"/></g><g id="LWPOLYLINE-6"><rect class="cls-2" x="499.97" y="451.81" width="19.72" height="28.47"/></g><g id="LINE-18"><line class="cls-2" x1="574.23" y1="587.03" x2="328.83" y2="587.03"/></g><g id="LINE-19"><line class="cls-2" x1="349.62" y1="421.04" x2="355.71" y2="421.04"/></g><g id="LINE-20"><line class="cls-2" x1="436.56" y1="511.74" x2="404.43" y2="511.74"/></g><g id="LINE-21"><line class="cls-2" x1="404.43" y1="511.74" x2="404.43" y2="517.28"/></g><g id="LINE-22"><line class="cls-2" x1="404.43" y1="517.28" x2="436.56" y2="517.28"/></g><g id="LINE-23"><line class="cls-2" x1="404.43" y1="511.74" x2="401.84" y2="514.45"/></g><g id="LINE-24"><line class="cls-2" x1="401.84" y1="514.45" x2="404.43" y2="517.28"/></g><g id="LWPOLYLINE-7"><polyline class="cls-2" points="448.09 519.77 436.56 519.77 436.56 508.6 448.09 508.6"/></g><g id="LINE-25"><line class="cls-2" x1="349.62" y1="432.46" x2="349.62" y2="523.01"/></g><g id="LINE-26"><line class="cls-2" x1="355.71" y1="421.04" x2="355.71" y2="506.01"/></g><g id="LINE-27"><line class="cls-2" x1="328.74" y1="415.46" x2="349.1" y2="415.46"/></g><g id="LINE-28"><line class="cls-2" x1="349.1" y1="432.46" x2="328.74" y2="432.46"/></g><g id="LINE-29"><line class="cls-2" x1="349.1" y1="415.46" x2="349.1" y2="432.46"/></g><g id="LINE-30"><line class="cls-2" x1="355.71" y1="506.01" x2="367.6" y2="506.01"/></g><g id="LINE-31"><line class="cls-2" x1="367.6" y1="509.31" x2="386.18" y2="509.31"/></g><g id="LINE-32"><line class="cls-2" x1="386.18" y1="519.71" x2="367.6" y2="519.71"/></g><g id="LINE-33"><line class="cls-2" x1="367.6" y1="523.01" x2="349.62" y2="523.01"/></g><g id="LINE-34"><line class="cls-2" x1="367.6" y1="506.01" x2="367.6" y2="523.01"/></g><line class="cls-2" x1="386.18" y1="509.31" x2="386.18" y2="519.71"/><g id="LINE-35"><line class="cls-2" x1="303.87" y1="422.38" x2="303.87" y2="425.53"/></g><g id="LINE-36"><line class="cls-2" x1="310.17" y1="425.53" x2="303.87" y2="425.53"/></g><g id="LINE-37"><line class="cls-2" x1="303.87" y1="422.38" x2="310.17" y2="422.38"/></g><g id="LINE-38"><line class="cls-2" x1="289.38" y1="423.17" x2="289.38" y2="424.75"/></g><g id="LINE-39"><line class="cls-2" x1="328.39" y1="408.21" x2="310.12" y2="408.21"/></g><line class="cls-2" x1="310.2" y1="439.71" x2="310.12" y2="408.21"/><line class="cls-2" x1="310.2" y1="439.71" x2="328.74" y2="439.71"/><line class="cls-2" x1="289.38" y1="423.17" x2="303.87" y2="423.17"/><line class="cls-2" x1="289.38" y1="424.75" x2="303.87" y2="424.75"/><g id="MTEXT"><text class="cls-1" transform="translate(374.59 466.05)"><tspan x="0" y="0">CP</tspan><tspan class="cls-3" x="24.73" y="0">T</tspan></text></g><g id="LINE-40"><line class="cls-2" x1="574.14" y1="360.31" x2="328.74" y2="360.31"/></g></g></g></svg>