<?xml version="1.0" encoding="UTF-8"?>
<svg id="CPT" xmlns="http://www.w3.org/2000/svg" viewBox="0 0 226 600">
    <defs>
        <style>.cls-1{stroke-linejoin:round;}.cls-1,.cls-2{fill:none;stroke:#2e3192;stroke-linecap:round;}.cls-3{letter-spacing:-.07em;}.cls-4{letter-spacing:-.06em;}.cls-5{fill:#2e3192;}.cls-6{letter-spacing:0em;}.cls-7{fill:#231f20;font-family:ArialMT,
            Arial;font-size:14px;}.cls-2{stroke-miterlimit:10;}.cls-8{letter-spacing:-.02em;}</style>
    </defs>
    <g id="CPT13">
        <text class="cls-7" transform="translate(118.76 463.48)">
            <tspan x="0" y="0">(1) CP</tspan>
            <tspan class="cls-8" x="40.45" y="0">T</tspan>
        </text>
        <line class="cls-2" x1="16.04" y1="468.33" x2="31.94" y2="468.33" />
        <line class="cls-2" x1="44.53" y1="468.37" x2="34.93" y2="468.37" />
        <rect class="cls-2" x="51.03" y="456.98" width="9.82" height="22.82"
            transform="translate(-412.45 524.33) rotate(-90)" />
        <line class="cls-2" x1="47.53" y1="472.84" x2="47.53" y2="463.49" />
        <line class="cls-2" x1="64.35" y1="473.3" x2="64.35" y2="463.49" />
        <line class="cls-2" x1="76.72" y1="474.55" x2="72.11" y2="474.55" />
        <line class="cls-2" x1="76.72" y1="461.78" x2="72.11" y2="461.78" />
        <path class="cls-2" d="m76.72,468.16c2.15,0,3.89,1.43,3.89,3.19s-1.74,3.19-3.89,3.19" />
        <path class="cls-2" d="m76.72,461.78c2.15,0,3.89,1.43,3.89,3.19s-1.74,3.19-3.89,3.19" />
        <line class="cls-2" x1="76.72" y1="468.16" x2="67.35" y2="468.16" />
        <line class="cls-2" x1="31.94" y1="468.33" x2="34.75" y2="464" />
        <line class="cls-2" x1="34.93" y1="468.37" x2="37.92" y2="463.96" />
        <line class="cls-2" x1="87.11" y1="461.78" x2="91.72" y2="461.78" />
        <line class="cls-2" x1="87.11" y1="474.55" x2="91.72" y2="474.55" />
        <path class="cls-2" d="m87.11,468.16c-2.15,0-3.89-1.43-3.89-3.19s1.74-3.19,3.89-3.19" />
        <path class="cls-2" d="m87.11,474.55c-2.15,0-3.89-1.43-3.89-3.19s1.74-3.19,3.89-3.19" />
        <line class="cls-2" x1="37.74" y1="472.72" x2="34.93" y2="468.39" />
        <line class="cls-2" x1="34.93" y1="472.75" x2="31.94" y2="468.33" />
        <g>
            <line class="cls-2" x1="86.61" y1="468.16" x2="99.34" y2="468.14" />
            <line class="cls-2" x1="99.34" y1="468.14" x2="96.35" y2="472.56" />
            <line class="cls-2" x1="96.53" y1="463.8" x2="99.34" y2="468.13" />
            <line class="cls-2" x1="102.33" y1="468.15" x2="104.34" y2="468.15" />
            <line class="cls-2" x1="102.33" y1="468.15" x2="99.34" y2="472.57" />
            <line class="cls-2" x1="99.52" y1="463.81" x2="102.33" y2="468.13" />
        </g>
        <line class="cls-1" x1="16.04" y1="69.82" x2="16.04" y2="468.33" />
        <g>
            <line class="cls-1" x1="112.99" y1="69.82" x2="16.04" y2="69.82" />
            <circle class="cls-5" cx="112.99" cy="69.82" r="2.26"
                transform="translate(-4.32 132.1) rotate(-59.68)" />
        </g>
    </g>
</svg>