<?xml version="1.0" encoding="UTF-8"?><svg xmlns="http://www.w3.org/2000/svg" viewBox="0 0 227.43 601"><defs><style>.cls-1,.cls-2{stroke:#ed1c24;stroke-width:2.5px;}.cls-1,.cls-2,.cls-3{fill:none;stroke-miterlimit:10;}.cls-4{letter-spacing:0em;}.cls-2{stroke-linecap:square;}.cls-5{fill:#ed1c24;}.cls-6{letter-spacing:-.02em;}.cls-3{stroke:#2e3192;}.cls-7{fill:#231f20;font-family:ArialMT, Arial;font-size:14px;}.cls-8{letter-spacing:-.04em;}</style></defs><g id="VT"><g id="VT1"><g id="PT"><line class="cls-3" x1="113.51" y1="529.75" x2="98.17" y2="529.98"/><line class="cls-3" x1="98.17" y1="529.98" x2="94.46" y2="524.25"/><line class="cls-3" x1="94.05" y1="529.86" x2="90.1" y2="524.02"/><line class="cls-3" x1="87.5" y1="529.86" x2="94.05" y2="529.86"/><rect class="cls-3" x="75.26" y="522.5" width="9.82" height="14.68" transform="translate(610.01 449.68) rotate(90)"/><line class="cls-3" x1="84.57" y1="525.39" x2="84.57" y2="534.75"/><line class="cls-3" x1="75.36" y1="524.93" x2="75.36" y2="534.75"/><line class="cls-3" x1="65.93" y1="522.98" x2="68.89" y2="522.98"/><line class="cls-3" x1="65.93" y1="537.16" x2="68.89" y2="537.16"/><path class="cls-3" d="m65.93,530.07c-1.38,0-2.5-1.59-2.5-3.54s1.12-3.54,2.5-3.54"/><path class="cls-3" d="m65.93,537.16c-1.38,0-2.5-1.59-2.5-3.54s1.12-3.54,2.5-3.54"/><line class="cls-3" x1="65.93" y1="530.07" x2="72.83" y2="530.07"/><line class="cls-3" x1="98.18" y1="529.84" x2="94.46" y2="535.57"/><line class="cls-3" x1="94.06" y1="529.96" x2="90.1" y2="535.8"/><line class="cls-3" x1="58.32" y1="522.98" x2="55.36" y2="522.98"/><line class="cls-3" x1="58.32" y1="537.16" x2="55.36" y2="537.16"/><path class="cls-3" d="m58.32,530.07c1.38,0,2.5-1.59,2.5-3.54s-1.12-3.54-2.5-3.54"/><path class="cls-3" d="m58.32,537.16c1.38,0,2.5-1.59,2.5-3.54s-1.12-3.54-2.5-3.54"/><line class="cls-3" x1="58.32" y1="530.07" x2="47.93" y2="530.07"/><line class="cls-3" x1="39.03" y1="530.14" x2="43.32" y2="530.14"/><line class="cls-3" x1="43.32" y1="530.14" x2="47.04" y2="524.41"/><line class="cls-3" x1="43.32" y1="530" x2="47.03" y2="535.73"/><line class="cls-3" x1="47.28" y1="530.02" x2="51.24" y2="524.18"/><line class="cls-3" x1="47.27" y1="530.12" x2="51.23" y2="535.96"/><line class="cls-3" x1="59.81" y1="543.6" x2="64.68" y2="549.16"/><line class="cls-3" x1="69.55" y1="543.83" x2="64.68" y2="549.16"/><line class="cls-3" x1="64.68" y1="555.38" x2="64.68" y2="549.16"/><line class="cls-3" x1="74.43" y1="549.16" x2="64.68" y2="549.16"/><line class="cls-3" x1="74.43" y1="559.87" x2="74.43" y2="549.16"/><line class="cls-3" x1="80.04" y1="559.87" x2="68.82" y2="559.87"/><line class="cls-3" x1="78.4" y1="562" x2="70.46" y2="562"/><line class="cls-3" x1="76.76" y1="564.14" x2="72.1" y2="564.14"/></g><text class="cls-7" transform="translate(121.16 529.84)"><tspan x="0" y="0">(3) V</tspan><tspan class="cls-6" x="30.34" y="0">T</tspan><tspan x="38.64" y="0" xml:space="preserve"> -</tspan><tspan class="cls-6" x="47.19" y="0" xml:space="preserve"> Y</tspan><tspan x="0" y="16.8">13.8k</tspan><tspan class="cls-8" x="34.25" y="16.8">V</tspan><tspan class="cls-4" x="43.07" y="16.8">:120V</tspan></text></g></g><g id="BUSBARS"><g id="Cable_-_bottom_bottom_feed"><line class="cls-2" x1="183.27" y1="552.79" x2="183.27" y2="571.25"/><path class="cls-5" d="m183.27,572.49l3.8,5.24h-7.61l3.8-5.24m0-3.41l-1.62,2.23-3.8,5.24-2.3,3.17h15.45l-2.3-3.17-3.8-5.24-1.62-2.23h0Z"/><line class="cls-2" x1="113.7" y1="552.79" x2="183.27" y2="552.79"/></g><line id="Center_left" class="cls-1" x1=".72" y1="300.5" x2="113.72" y2="300.5"/><line id="Center_right" class="cls-1" x1="113.7" y1="300.5" x2="226.7" y2="300.5"/><line id="No_breaker-_bottom" class="cls-1" x1="113.72" y1="300.5" x2="113.7" y2="552.79"/></g></svg>