<?xml version="1.0" encoding="UTF-8"?><svg id="CTRL" xmlns="http://www.w3.org/2000/svg" viewBox="0 0 226 600"><defs><style>.cls-1{stroke:#010101;}.cls-1,.cls-2{fill:none;stroke-linecap:round;stroke-linejoin:round;stroke-width:.5px;}.cls-2{stroke:#6abd45;}</style></defs><g id="ctrl1_equip_700GT_and_751A_Sync"><g id="CIRCLE"><ellipse class="cls-1" cx="59.72" cy="339.15" rx=".66" ry=".65"/></g><g id="LWPOLYLINE"><path class="cls-1" d="m61.19,346.63h3.87c1.09,0,1.97-.87,1.97-1.95v-11.06c0-1.08-.88-1.95-1.97-1.95h-10.68c-1.09,0-1.97.87-1.97,1.95v11.06c0,1.08.88,1.95,1.97,1.95h3.87"/></g><g id="ARC"><path class="cls-1" d="m54.54,335.08c.54,0,1.02-.32,1.22-.81"/></g><g id="LINE"><line class="cls-1" x1="54.54" y1="335.08" x2="52.4" y2="335.08"/></g><g id="LINE-2"><line class="cls-1" x1="55.76" y1="334.27" x2="63.67" y2="334.27"/></g><g id="ARC-2"><path class="cls-1" d="m63.67,334.27c.2.49.68.81,1.22.81"/></g><g id="LINE-3"><line class="cls-1" x1="64.89" y1="335.08" x2="67.03" y2="335.08"/></g><g id="LINE-4"><line class="cls-1" x1="59.17" y1="336.61" x2="60.26" y2="336.61"/></g><g id="ARC-3"><path class="cls-1" d="m59.17,336.61c-.27,0-.51.16-.61.42"/></g><g id="LINE-5"><line class="cls-1" x1="60.87" y1="337.03" x2="61.65" y2="339.01"/></g><g id="ARC-4"><path class="cls-1" d="m60.87,337.03c-.1-.25-.34-.42-.61-.42"/></g><g id="LINE-6"><line class="cls-1" x1="58.56" y1="337.03" x2="57.78" y2="339.01"/></g><g id="LINE-7"><line class="cls-1" x1="60.24" y1="351.53" x2="59.19" y2="351.53"/></g><g id="ARC-5"><path class="cls-1" d="m58.54,350.92c.02.34.31.61.66.61"/></g><g id="LINE-8"><line class="cls-1" x1="60.89" y1="350.92" x2="61.69" y2="339.29"/></g><g id="ARC-6"><path class="cls-1" d="m60.24,351.53c.35,0,.63-.27.66-.61"/></g><g id="ARC-7"><path class="cls-1" d="m61.69,339.29c0-.1,0-.19-.04-.28"/></g><g id="LINE-9"><line class="cls-1" x1="57.74" y1="339.29" x2="58.54" y2="350.92"/></g><g id="ARC-8"><path class="cls-1" d="m57.78,339.01c-.03.09-.05.18-.04.28"/></g><g id="CIRCLE-2"><ellipse class="cls-1" cx="54.54" cy="333.78" rx=".92" ry=".91"/></g><g id="CIRCLE-3"><ellipse class="cls-1" cx="64.89" cy="333.78" rx=".92" ry=".91"/></g><g id="CIRCLE-4"><ellipse class="cls-2" cx="61.99" cy="333.57" rx=".5" ry=".49"/></g><g id="CIRCLE-5"><ellipse class="cls-1" cx="57.44" cy="333.57" rx=".5" ry=".49"/></g><g id="CIRCLE-6"><ellipse class="cls-1" cx="61.99" cy="333.57" rx=".5" ry=".49"/></g><g id="CIRCLE-7"><ellipse class="cls-1" cx="88.99" cy="340.29" rx=".66" ry=".65"/></g><g id="LWPOLYLINE-2"><path class="cls-1" d="m90.47,346.63h3.87c1.09,0,1.97-.87,1.97-1.95v-11.06c0-1.08-.88-1.95-1.97-1.95h-10.68c-1.09,0-1.97.87-1.97,1.95v11.06c0,1.08.88,1.95,1.97,1.95h3.87"/></g><g id="ARC-9"><path class="cls-1" d="m83.82,335.08c.54,0,1.02-.32,1.22-.81"/></g><g id="LINE-10"><line class="cls-1" x1="83.82" y1="335.08" x2="81.68" y2="335.08"/></g><g id="LINE-11"><line class="cls-1" x1="85.03" y1="334.27" x2="92.95" y2="334.27"/></g><g id="ARC-10"><path class="cls-1" d="m92.95,334.27c.2.49.68.81,1.22.81"/></g><g id="LINE-12"><line class="cls-1" x1="94.17" y1="335.08" x2="96.31" y2="335.08"/></g><g id="CIRCLE-8"><ellipse class="cls-1" cx="83.82" cy="333.78" rx=".92" ry=".91"/></g><g id="CIRCLE-9"><ellipse class="cls-1" cx="94.17" cy="333.78" rx=".92" ry=".91"/></g><g id="LINE-13"><line class="cls-1" x1="90.47" y1="346.63" x2="87.52" y2="346.63"/></g><g id="LINE-14"><line class="cls-1" x1="88.55" y1="336.38" x2="89.43" y2="336.38"/></g><g id="ARC-11"><path class="cls-1" d="m88.55,336.38c-.22,0-.42.13-.5.34"/></g><g id="LINE-15"><line class="cls-1" x1="89.93" y1="336.71" x2="91.17" y2="339.88"/></g><g id="ARC-12"><path class="cls-1" d="m89.93,336.71c-.08-.2-.28-.34-.5-.34"/></g><g id="LINE-16"><line class="cls-1" x1="88.05" y1="336.71" x2="86.81" y2="339.88"/></g><g id="LINE-17"><line class="cls-1" x1="88.55" y1="344.21" x2="89.43" y2="344.21"/></g><g id="ARC-13"><path class="cls-1" d="m88.05,343.87c.08.2.28.34.5.34"/></g><g id="LINE-18"><line class="cls-1" x1="89.93" y1="343.87" x2="91.17" y2="340.71"/></g><g id="ARC-14"><path class="cls-1" d="m91.17,340.71c.1-.27.1-.56,0-.83"/></g><g id="ARC-15"><path class="cls-1" d="m89.43,344.21c.22,0,.42-.13.5-.34"/></g><g id="LINE-19"><line class="cls-1" x1="88.05" y1="343.87" x2="86.81" y2="340.71"/></g><g id="ARC-16"><path class="cls-1" d="m86.81,339.88c-.1.27-.1.56,0,.83"/></g><g id="LWPOLYLINE-3"><path class="cls-1" d="m32.14,346.63h3.87c1.09,0,1.97-.87,1.97-1.95v-11.06c0-1.08-.88-1.95-1.97-1.95h-10.68c-1.09,0-1.97.87-1.97,1.95v11.06c0,1.08.88,1.95,1.97,1.95h3.87"/></g><g id="ARC-17"><path class="cls-1" d="m25.49,335.08c.54,0,1.02-.32,1.22-.81"/></g><g id="LINE-20"><line class="cls-1" x1="25.49" y1="335.08" x2="23.36" y2="335.08"/></g><g id="LINE-21"><line class="cls-1" x1="26.71" y1="334.27" x2="34.63" y2="334.27"/></g><g id="ARC-18"><path class="cls-1" d="m34.63,334.27c.2.49.68.81,1.22.81"/></g><g id="LINE-22"><line class="cls-1" x1="35.85" y1="335.08" x2="37.98" y2="335.08"/></g><g id="CIRCLE-10"><ellipse class="cls-1" cx="25.49" cy="333.78" rx=".92" ry=".91"/></g><g id="CIRCLE-11"><ellipse class="cls-1" cx="35.85" cy="333.78" rx=".92" ry=".91"/></g><g id="CIRCLE-12"><ellipse class="cls-1" cx="30.67" cy="339.15" rx=".66" ry=".65"/></g><g id="LINE-23"><line class="cls-1" x1="30.13" y1="336.61" x2="31.21" y2="336.61"/></g><g id="ARC-19"><path class="cls-1" d="m30.13,336.61c-.27,0-.51.16-.61.42"/></g><g id="LINE-24"><line class="cls-1" x1="31.83" y1="337.03" x2="32.6" y2="339.01"/></g><g id="ARC-20"><path class="cls-1" d="m31.83,337.03c-.1-.25-.34-.42-.61-.42"/></g><g id="LINE-25"><line class="cls-1" x1="29.51" y1="337.03" x2="28.73" y2="339.01"/></g><g id="LINE-26"><line class="cls-1" x1="31.19" y1="351.53" x2="30.15" y2="351.53"/></g><g id="ARC-21"><path class="cls-1" d="m29.49,350.92c.02.34.31.61.66.61"/></g><g id="LINE-27"><line class="cls-1" x1="31.85" y1="350.92" x2="32.65" y2="339.29"/></g><g id="ARC-22"><path class="cls-1" d="m31.19,351.53c.35,0,.63-.27.66-.61"/></g><g id="ARC-23"><path class="cls-1" d="m32.65,339.29c0-.1,0-.19-.04-.28"/></g><g id="LINE-28"><line class="cls-1" x1="28.69" y1="339.29" x2="29.49" y2="350.92"/></g><g id="ARC-24"><path class="cls-1" d="m28.73,339.01c-.03.09-.05.18-.04.28"/></g><g id="LWPOLYLINE-4"><path class="cls-1" d="m42.73,251.11h32.51c.53,0,.95.42.95.94v43.47c0,.52-.43.94-.95.94h-32.51c-.53,0-.95-.42-.95-.94v-43.47c0-.52.43-.94.95-.94Z"/></g><g id="LWPOLYLINE-5"><path class="cls-1" d="m52.5,265.07h1.81c.42,0,.76.33.76.75v1.8c0,.41-.34.75-.76.75h-1.81c-.42,0-.76-.33-.76-.75v-1.8c0-.41.34-.75.76-.75Z"/></g><g id="LWPOLYLINE-6"><path class="cls-1" d="m68.45,265.07h1.81c.42,0,.76.33.76.75v1.8c0,.41-.34.75-.76.75h-1.81c-.42,0-.76-.33-.76-.75v-1.8c0-.41.34-.75.76-.75Z"/></g><g id="LWPOLYLINE-7"><path class="cls-1" d="m62.3,267.25c.17,0,.34.05.47.16l.22.21.12.11c.3.29.3.77,0,1.06l-1.22,1.21c-.3.29-.77.29-1.07,0l-1.22-1.21c-.3-.29-.3-.77,0-1.06l.12-.11.22-.21c.13-.11.3-.16.47-.16h1.88Z"/></g><g id="LWPOLYLINE-8"><path class="cls-1" d="m61.46,269.14l.73-.73c.06-.06.06-.15,0-.2-.03-.03-.06-.04-.1-.04h-1.47c-.08,0-.14.06-.14.14,0,.04.02.07.04.1l.73.73c.06.05.15.05.2,0Z"/></g><g id="LWPOLYLINE-9"><path class="cls-1" d="m64.06,267.64c0,.17.05.34.16.47l.22.22.12.11c.3.29.77.29,1.07,0l1.22-1.21c.3-.29.3-.77,0-1.06l-1.22-1.21c-.3-.29-.77-.29-1.07,0l-.12.11-.22.22c-.11.13-.17.3-.16.47v1.86Z"/></g><g id="LWPOLYLINE-10"><path class="cls-1" d="m65.97,266.81l-.73.73s-.06.04-.1.04c-.08,0-.14-.06-.15-.14v-1.45s.02-.07.04-.1c.06-.06.15-.06.2,0l.73.73c.06.06.06.15,0,.2Z"/></g><g id="LWPOLYLINE-11"><path class="cls-1" d="m58.69,267.64c0,.17-.05.34-.16.47l-.22.22-.12.11c-.3.29-.77.29-1.07,0l-1.22-1.21c-.3-.29-.3-.77,0-1.06l1.22-1.21c.3-.29.77-.29,1.07,0l.12.11.22.22c.11.13.17.3.16.47v1.86Z"/></g><g id="LWPOLYLINE-12"><path class="cls-1" d="m56.78,266.81l.73.73c.06.06.15.05.2,0,.03-.03.04-.06.04-.1v-1.45c0-.08-.07-.14-.15-.14-.04,0-.07.02-.1.04l-.73.73c-.06.06-.06.15,0,.2Z"/></g><g id="LWPOLYLINE-13"><path class="cls-1" d="m47.85,265.07h1.81c.42,0,.76.33.76.75v1.8c0,.41-.34.75-.76.75h-1.81c-.42,0-.76-.33-.76-.75v-1.8c0-.41.34-.75.76-.75Z"/></g><g id="LWPOLYLINE-14"><path class="cls-1" d="m62.3,266.17c.17,0,.34-.05.47-.16l.22-.21.12-.11c.3-.29.3-.77,0-1.06l-1.22-1.21c-.3-.29-.77-.29-1.07,0l-1.22,1.21c-.3.29-.3.77,0,1.06l.12.11.22.21c.13.11.3.16.47.16,0,0,1.88,0,1.88,0Z"/></g><g id="LWPOLYLINE-15"><path class="cls-1" d="m61.46,264.29l.73.73s.04.06.04.1c0,.08-.06.14-.14.14h-1.47s-.07-.02-.1-.04c-.06-.06-.06-.15,0-.2l.73-.73c.06-.05.15-.05.2,0Z"/></g><g id="LWPOLYLINE-16"><path class="cls-1" d="m47.04,291.71h2.93s.05,0,.08,0c.26.04.44.29.39.55l-.17.92c-.04.23-.24.39-.47.39h-2.6c-.23,0-.43-.16-.47-.39l-.16-.92s0-.05,0-.08c0-.26.21-.47.48-.48Z"/></g><g id="LWPOLYLINE-17"><polygon class="cls-1" points="45.53 291.99 46.1 292.31 46.1 292.96 45.53 293.29 44.96 292.96 44.96 292.31 45.53 291.99"/></g><g id="LWPOLYLINE-18"><polygon class="cls-1" points="51.48 291.99 52.05 292.31 52.05 292.96 51.48 293.29 50.91 292.96 50.91 292.31 51.48 291.99"/></g><g id="LWPOLYLINE-19"><path class="cls-1" d="m47.6,261.32h22.73c.17,0,.31-.13.32-.3v-4.62c0-.17-.13-.3-.3-.3h-22.73c-.17,0-.31.13-.32.3v4.62c0,.17.13.3.3.3Z"/></g><g id="CIRCLE-13"><circle class="cls-1" cx="56.6" cy="285.21" r=".36"/></g><g id="CIRCLE-14"><circle class="cls-1" cx="56.6" cy="287.33" r=".36"/></g><g id="CIRCLE-15"><ellipse class="cls-1" cx="54.46" cy="286.27" rx="1.51" ry="1.5"/></g><g id="LWPOLYLINE-20"><path class="cls-1" d="m54.46,284.6h8.09s.01,0,.02,0c.17.01.29.15.28.32v2.73s0,.01,0,.02c-.01.17-.16.29-.32.28h-7.99s-.06,0-.09,0c-.94,0-1.69-.76-1.69-1.68s.77-1.67,1.7-1.67Z"/></g><g id="CIRCLE-16"><circle class="cls-1" cx="67.32" cy="285.21" r=".36"/></g><g id="CIRCLE-17"><circle class="cls-1" cx="67.32" cy="287.33" r=".36"/></g><g id="CIRCLE-18"><ellipse class="cls-1" cx="65.17" cy="286.27" rx="1.51" ry="1.5"/></g><g id="LWPOLYLINE-21"><path class="cls-1" d="m65.18,284.6h8.09s.01,0,.02,0c.17.01.29.15.28.32v2.73s0,.01,0,.02c-.01.17-.16.29-.32.28h-7.99s-.06,0-.09,0c-.94,0-1.69-.76-1.69-1.68s.77-1.67,1.7-1.67Z"/></g><g id="CIRCLE-19"><circle class="cls-1" cx="67.32" cy="280.97" r=".36"/></g><g id="CIRCLE-20"><circle class="cls-1" cx="67.32" cy="283.09" r=".36"/></g><g id="CIRCLE-21"><ellipse class="cls-1" cx="65.17" cy="282.03" rx="1.51" ry="1.5"/></g><g id="LWPOLYLINE-22"><path class="cls-1" d="m65.18,280.36h8.09s.01,0,.02,0c.17.01.29.15.28.32v2.73s0,.01,0,.02c-.01.17-.16.29-.32.28h-7.99s-.06,0-.09,0c-.94,0-1.69-.76-1.69-1.68s.77-1.67,1.7-1.67Z"/></g><g id="CIRCLE-22"><circle class="cls-1" cx="67.32" cy="276.73" r=".36"/></g><g id="CIRCLE-23"><circle class="cls-1" cx="67.32" cy="278.85" r=".36"/></g><g id="CIRCLE-24"><ellipse class="cls-1" cx="65.17" cy="277.79" rx="1.51" ry="1.5"/></g><g id="LWPOLYLINE-23"><path class="cls-1" d="m65.18,276.12h8.09s.01,0,.02,0c.17.01.29.15.28.32v2.73s0,.01,0,.02c-.01.17-.16.29-.32.28h-7.99s-.06,0-.09,0c-.94,0-1.69-.76-1.69-1.68s.77-1.67,1.7-1.67Z"/></g><g id="CIRCLE-25"><circle class="cls-1" cx="67.32" cy="272.49" r=".36"/></g><g id="CIRCLE-26"><circle class="cls-1" cx="67.32" cy="274.61" r=".36"/></g><g id="CIRCLE-27"><ellipse class="cls-1" cx="65.17" cy="273.55" rx="1.51" ry="1.5"/></g><g id="LWPOLYLINE-24"><path class="cls-1" d="m65.18,271.87h8.09s.01,0,.02,0c.17.01.29.15.28.32v2.73s0,.01,0,.02c-.01.17-.16.29-.32.28h-7.99s-.06,0-.09,0c-.94,0-1.69-.76-1.69-1.68s.77-1.67,1.7-1.67Z"/></g><g id="CIRCLE-28"><circle class="cls-1" cx="56.6" cy="280.97" r=".36"/></g><g id="CIRCLE-29"><circle class="cls-1" cx="56.6" cy="283.09" r=".36"/></g><g id="CIRCLE-30"><ellipse class="cls-1" cx="54.46" cy="282.03" rx="1.51" ry="1.5"/></g><g id="LWPOLYLINE-25"><path class="cls-1" d="m54.46,280.36h8.09s.01,0,.02,0c.17.01.29.15.28.32v2.73s0,.01,0,.02c-.01.17-.16.29-.32.28h-7.99s-.06,0-.09,0c-.94,0-1.69-.76-1.69-1.68s.77-1.67,1.7-1.67Z"/></g><g id="CIRCLE-31"><circle class="cls-1" cx="56.6" cy="276.73" r=".36"/></g><g id="CIRCLE-32"><circle class="cls-1" cx="56.6" cy="278.85" r=".36"/></g><g id="CIRCLE-33"><ellipse class="cls-1" cx="54.46" cy="277.79" rx="1.51" ry="1.5"/></g><g id="LWPOLYLINE-26"><path class="cls-1" d="m54.46,276.12h8.09s.01,0,.02,0c.17.01.29.15.28.32v2.73s0,.01,0,.02c-.01.17-.16.29-.32.28h-7.99s-.06,0-.09,0c-.94,0-1.69-.76-1.69-1.68s.77-1.67,1.7-1.67Z"/></g><g id="CIRCLE-34"><circle class="cls-1" cx="56.6" cy="272.49" r=".36"/></g><g id="CIRCLE-35"><circle class="cls-1" cx="56.6" cy="274.61" r=".36"/></g><g id="CIRCLE-36"><ellipse class="cls-1" cx="54.46" cy="273.55" rx="1.51" ry="1.5"/></g><g id="LWPOLYLINE-27"><path class="cls-1" d="m54.46,271.87h8.09s.01,0,.02,0c.17.01.29.15.28.32v2.73s0,.01,0,.02c-.01.17-.16.29-.32.28h-7.99s-.06,0-.09,0c-.94,0-1.69-.76-1.69-1.68s.77-1.67,1.7-1.67Z"/></g><g id="CIRCLE-37"><circle class="cls-1" cx="45.65" cy="285.21" r=".36"/></g><g id="CIRCLE-38"><circle class="cls-1" cx="45.65" cy="287.33" r=".36"/></g><g id="CIRCLE-39"><circle class="cls-1" cx="45.65" cy="280.97" r=".36"/></g><g id="CIRCLE-40"><circle class="cls-1" cx="45.65" cy="283.09" r=".36"/></g><g id="CIRCLE-41"><circle class="cls-1" cx="45.65" cy="276.73" r=".36"/></g><g id="CIRCLE-42"><circle class="cls-1" cx="45.65" cy="278.85" r=".36"/></g><g id="CIRCLE-43"><circle class="cls-1" cx="45.65" cy="272.49" r=".36"/></g><g id="CIRCLE-44"><circle class="cls-1" cx="45.65" cy="274.61" r=".36"/></g><g id="LWPOLYLINE-28"><path class="cls-1" d="m44.79,255.35c-.25,0-.45-.2-.45-.45v-1.67c0-.25.2-.45.45-.46h3.58c.25,0,.45.2.45.45v1.67c0,.25-.2.45-.45.46h-3.58Z"/></g><rect class="cls-1" x="35.1" y="303.27" width="47.52" height="18.7" rx="1.03" ry="1.03"/><rect class="cls-1" x="39.53" y="305.12" width="38.67" height="11.8"/><line class="cls-1" x1="42.29" y1="305.12" x2="42.29" y2="316.91"/><line class="cls-1" x1="45.05" y1="305.12" x2="45.05" y2="316.91"/><line class="cls-1" x1="47.82" y1="305.12" x2="47.82" y2="316.91"/><line class="cls-1" x1="50.58" y1="305.12" x2="50.58" y2="316.91"/><line class="cls-1" x1="53.34" y1="305.12" x2="53.34" y2="316.91"/><line class="cls-1" x1="56.1" y1="305.12" x2="56.1" y2="316.91"/><line class="cls-1" x1="58.86" y1="305.12" x2="58.86" y2="316.91"/><line class="cls-1" x1="61.63" y1="305.12" x2="61.63" y2="316.91"/><line class="cls-1" x1="64.39" y1="305.12" x2="64.39" y2="316.91"/><line class="cls-1" x1="67.15" y1="305.12" x2="67.15" y2="316.91"/><line class="cls-1" x1="69.91" y1="305.12" x2="69.91" y2="316.91"/><line class="cls-1" x1="72.67" y1="305.12" x2="72.67" y2="316.91"/><line class="cls-1" x1="75.44" y1="305.12" x2="75.44" y2="316.91"/><ellipse class="cls-1" cx="80.43" cy="311.02" rx="1.34" ry="1.32"/><ellipse class="cls-1" cx="37.3" cy="311.02" rx="1.34" ry="1.32"/></g></svg>