<?xml version="1.0" encoding="UTF-8"?><svg xmlns="http://www.w3.org/2000/svg" viewBox="0 0 227.43 601"><defs><style>.cls-1{stroke:#231f20;}.cls-1,.cls-2,.cls-3,.cls-4{fill:none;stroke-miterlimit:10;}.cls-2,.cls-3{stroke:#ed1c24;stroke-width:2.5px;}.cls-5{letter-spacing:-.07em;}.cls-3{stroke-linecap:square;}.cls-6{letter-spacing:-.06em;}.cls-7{fill:#ed1c24;}.cls-4{stroke:#2e3192;}.cls-8{fill:#231f20;font-family:ArialMT, Arial;font-size:14px;}.cls-9{letter-spacing:-.02em;}</style></defs><g id="CPT"><g id="CPT2"><g id="PT"><line class="cls-4" x1="113.51" y1="98.13" x2="98.17" y2="98.36"/><line class="cls-4" x1="98.17" y1="98.36" x2="94.46" y2="92.63"/><line class="cls-4" x1="94.05" y1="98.25" x2="90.1" y2="92.41"/><line class="cls-4" x1="87.5" y1="98.25" x2="94.05" y2="98.25"/><rect class="cls-4" x="75.26" y="90.89" width="9.82" height="14.68" transform="translate(178.39 18.06) rotate(90)"/><line class="cls-4" x1="84.57" y1="93.78" x2="84.57" y2="103.14"/><line class="cls-4" x1="75.36" y1="93.32" x2="75.36" y2="103.14"/><line class="cls-4" x1="65.93" y1="91.37" x2="68.89" y2="91.37"/><line class="cls-4" x1="65.93" y1="105.54" x2="68.89" y2="105.54"/><path class="cls-4" d="m65.93,98.46c-1.38,0-2.5-1.59-2.5-3.54s1.12-3.54,2.5-3.54"/><path class="cls-4" d="m65.93,105.54c-1.38,0-2.5-1.59-2.5-3.54s1.12-3.54,2.5-3.54"/><line class="cls-4" x1="65.93" y1="98.46" x2="72.83" y2="98.46"/><line class="cls-4" x1="98.18" y1="98.23" x2="94.46" y2="103.95"/><line class="cls-4" x1="94.06" y1="98.34" x2="90.1" y2="104.18"/><line class="cls-4" x1="58.32" y1="91.37" x2="55.36" y2="91.37"/><line class="cls-4" x1="58.32" y1="105.54" x2="55.36" y2="105.54"/><path class="cls-4" d="m58.32,98.46c1.38,0,2.5-1.59,2.5-3.54s-1.12-3.54-2.5-3.54"/><path class="cls-4" d="m58.32,105.54c1.38,0,2.5-1.59,2.5-3.54s-1.12-3.54-2.5-3.54"/><line class="cls-4" x1="58.32" y1="98.46" x2="47.93" y2="98.46"/><line class="cls-4" x1="39.03" y1="98.52" x2="43.32" y2="98.52"/><line class="cls-4" x1="43.32" y1="98.52" x2="47.04" y2="92.8"/><line class="cls-4" x1="43.32" y1="98.39" x2="47.03" y2="104.12"/><line class="cls-4" x1="47.28" y1="98.41" x2="51.24" y2="92.57"/><line class="cls-4" x1="47.27" y1="98.5" x2="51.23" y2="104.34"/></g><text class="cls-8" transform="translate(120.31 105.39)"><tspan x="0" y="0">(1) CP</tspan><tspan class="cls-9" x="40.45" y="0">T</tspan><tspan x="0" y="16.8">5-15 k</tspan><tspan class="cls-5" x="38.91" y="16.8">V</tspan><tspan class="cls-6" x="47.21" y="16.8">A</tspan></text></g></g><g id="FRAME"><rect id="Frame" class="cls-1" x=".5" y=".5" width="226.43" height="600"/></g><g id="BUSBARS"><line id="Center_left" class="cls-2" x1=".72" y1="300.5" x2="113.72" y2="300.5"/><line id="Center_right" class="cls-2" x1="113.7" y1="300.5" x2="226.7" y2="300.5"/><line id="No_breaker_-_top" class="cls-2" x1="113.72" y1="39.9" x2="113.7" y2="300.5"/><g id="Cable_-_top_top_feed"><line class="cls-3" x1="183.27" y1="39.9" x2="183.27" y2="21.44"/><path class="cls-7" d="m187.08,14.96l-3.8,5.24-3.8-5.24h7.61m3.92-2h-15.45l2.3,3.17,3.8,5.24,1.62,2.23,1.62-2.23,3.8-5.24,2.3-3.17h0Zm-3.92,4h0,0Z"/><line class="cls-3" x1="113.7" y1="39.9" x2="183.27" y2="39.9"/></g></g></svg>