<?xml version="1.0" encoding="UTF-8"?><svg id="VT" xmlns="http://www.w3.org/2000/svg" viewBox="0 0 226 600"><defs><style>.cls-1{letter-spacing:-.02em;}.cls-2{fill:none;stroke:#2e3192;stroke-miterlimit:10;}.cls-3{fill:#231f20;font-family:ArialMT, Arial;font-size:14px;}</style></defs><g id="VT4"><text class="cls-3" transform="translate(119.59 67.19)"><tspan x="0" y="0">(3) V</tspan><tspan class="cls-1" x="30.34" y="0">T</tspan><tspan x="38.64" y="0" xml:space="preserve"> -</tspan><tspan class="cls-1" x="47.19" y="0" xml:space="preserve"> Y</tspan></text><g><g><line class="cls-2" x1="112.63" y1="69.72" x2="97.29" y2="69.95"/><line class="cls-2" x1="97.29" y1="69.95" x2="93.58" y2="64.22"/><line class="cls-2" x1="93.17" y1="69.83" x2="89.22" y2="63.99"/><line class="cls-2" x1="86.62" y1="69.83" x2="93.17" y2="69.83"/><rect class="cls-2" x="74.37" y="62.48" width="9.82" height="14.68" transform="translate(149.1 -9.47) rotate(90)"/><line class="cls-2" x1="83.68" y1="65.36" x2="83.68" y2="74.72"/><line class="cls-2" x1="74.48" y1="64.91" x2="74.48" y2="74.72"/><line class="cls-2" x1="65.05" y1="62.96" x2="68.01" y2="62.96"/><line class="cls-2" x1="65.05" y1="77.13" x2="68.01" y2="77.13"/><path class="cls-2" d="m65.05,70.04c-1.38,0-2.5-1.59-2.5-3.54s1.12-3.54,2.5-3.54"/><path class="cls-2" d="m65.05,77.13c-1.38,0-2.5-1.59-2.5-3.54s1.12-3.54,2.5-3.54"/><line class="cls-2" x1="65.05" y1="70.04" x2="71.94" y2="70.04"/><line class="cls-2" x1="97.3" y1="69.82" x2="93.58" y2="75.54"/><line class="cls-2" x1="93.18" y1="69.93" x2="89.22" y2="75.77"/></g><g><line class="cls-2" x1="21.75" y1="70.27" x2="26.04" y2="70.27"/><line class="cls-2" x1="25.79" y1="70.14" x2="29.51" y2="75.86"/><line class="cls-2" x1="29.91" y1="70.25" x2="33.87" y2="76.09"/><line class="cls-2" x1="36.47" y1="70.25" x2="29.91" y2="70.25"/><rect class="cls-2" x="38.9" y="62.93" width="9.82" height="14.68" transform="translate(-26.47 114.08) rotate(-90)"/><line class="cls-2" x1="39.4" y1="74.72" x2="39.4" y2="65.36"/><line class="cls-2" x1="48.6" y1="75.18" x2="48.6" y2="65.36"/><line class="cls-2" x1="58.04" y1="77.13" x2="55.07" y2="77.13"/><line class="cls-2" x1="58.04" y1="62.96" x2="55.07" y2="62.96"/><path class="cls-2" d="m58.04,70.04c1.38,0,2.5,1.59,2.5,3.54s-1.12,3.54-2.5,3.54"/><path class="cls-2" d="m58.04,62.96c1.38,0,2.5,1.59,2.5,3.54s-1.12,3.54-2.5,3.54"/><line class="cls-2" x1="58.04" y1="70.04" x2="51.14" y2="70.04"/><line class="cls-2" x1="25.79" y1="70.27" x2="29.5" y2="64.55"/><line class="cls-2" x1="29.91" y1="70.16" x2="33.86" y2="64.32"/></g></g></g></svg>