<?xml version="1.0" encoding="UTF-8"?><svg id="VT" xmlns="http://www.w3.org/2000/svg" viewBox="0 0 458 600"><defs><style>.cls-1{fill:#2e3192;}.cls-2{letter-spacing:-.02em;}.cls-3{fill:#231f20;font-family:ArialMT, Arial;font-size:14px;}.cls-4{fill:none;stroke:#2e3192;stroke-linecap:round;stroke-miterlimit:10;}</style></defs><g id="VT1"><g id="VT1_5"><text class="cls-3" transform="translate(236.26 512.04)"><tspan x="0" y="0">(3) V</tspan><tspan class="cls-2" x="30.34" y="0">T</tspan><tspan x="38.64" y="0" xml:space="preserve"> -</tspan><tspan class="cls-2" x="47.19" y="0" xml:space="preserve"> Y</tspan></text><line class="cls-4" x1="205.27" y1="516.09" x2="214.87" y2="516.09"/><rect class="cls-4" x="188.96" y="504.66" width="9.82" height="22.82" transform="translate(709.93 322.2) rotate(90)"/><line class="cls-4" x1="202.27" y1="511.62" x2="202.27" y2="520.98"/><line class="cls-4" x1="185.4" y1="511.16" x2="185.4" y2="520.98"/><line class="cls-4" x1="173.09" y1="509.91" x2="177.69" y2="509.91"/><line class="cls-4" x1="173.09" y1="522.68" x2="177.69" y2="522.68"/><path class="cls-4" d="m173.09,516.3c-2.15,0-3.89-1.43-3.89-3.19s1.74-3.19,3.89-3.19"/><path class="cls-4" d="m173.09,522.68c-2.15,0-3.89-1.43-3.89-3.19s1.74-3.19,3.89-3.19"/><line class="cls-4" x1="173.09" y1="516.3" x2="182.45" y2="516.3"/><line class="cls-4" x1="217.86" y1="516.13" x2="215.06" y2="520.46"/><line class="cls-4" x1="214.87" y1="516.09" x2="211.88" y2="520.5"/><line class="cls-4" x1="162.69" y1="522.68" x2="158.08" y2="522.68"/><line class="cls-4" x1="162.69" y1="509.91" x2="158.08" y2="509.91"/><path class="cls-4" d="m162.69,516.3c2.15,0,3.89,1.43,3.89,3.19s-1.74,3.19-3.89,3.19"/><path class="cls-4" d="m162.69,509.91c2.15,0,3.89,1.43,3.89,3.19s-1.74,3.19-3.89,3.19"/><line class="cls-4" x1="212.06" y1="511.74" x2="214.87" y2="516.07"/><line class="cls-4" x1="214.87" y1="511.72" x2="217.86" y2="516.13"/><g><line class="cls-4" x1="455" y1="516.09" x2="217.79" y2="516.09"/><circle class="cls-1" cx="455" cy="516.09" r="2.26"/></g><g><line class="cls-4" x1="162.69" y1="516.31" x2="149.96" y2="516.34"/><line class="cls-4" x1="149.96" y1="516.34" x2="152.95" y2="511.92"/><line class="cls-4" x1="152.77" y1="520.68" x2="149.96" y2="516.35"/><line class="cls-4" x1="146.97" y1="516.33" x2="144.95" y2="516.33"/><line class="cls-4" x1="146.97" y1="516.33" x2="149.96" y2="511.91"/><line class="cls-4" x1="149.78" y1="520.67" x2="146.97" y2="516.34"/></g></g></g></svg>