<?xml version="1.0" encoding="UTF-8"?><svg id="VT" xmlns="http://www.w3.org/2000/svg" viewBox="0 0 226 600"><defs><style>.cls-1{letter-spacing:-.02em;}.cls-2{fill:none;stroke:#2e3192;stroke-miterlimit:10;}.cls-3{fill:#231f20;font-family:ArialMT, Arial;font-size:14px;}</style></defs><g id="VT2"><text class="cls-3" transform="translate(119.59 407.5)"><tspan x="0" y="0">(3) V</tspan><tspan class="cls-1" x="30.34" y="0">T</tspan><tspan x="38.64" y="0" xml:space="preserve"> -</tspan><tspan class="cls-1" x="47.19" y="0" xml:space="preserve"> Y</tspan></text><g><g><line class="cls-2" x1="112.32" y1="411.99" x2="96.98" y2="412.22"/><line class="cls-2" x1="96.98" y1="412.22" x2="93.26" y2="406.49"/><line class="cls-2" x1="92.86" y1="412.1" x2="88.9" y2="406.26"/><line class="cls-2" x1="86.31" y1="412.1" x2="92.86" y2="412.1"/><rect class="cls-2" x="74.06" y="404.74" width="9.82" height="14.68" transform="translate(491.05 333.11) rotate(90)"/><line class="cls-2" x1="83.37" y1="407.63" x2="83.37" y2="416.99"/><line class="cls-2" x1="74.17" y1="407.17" x2="74.17" y2="416.99"/><line class="cls-2" x1="64.74" y1="405.22" x2="67.7" y2="405.22"/><line class="cls-2" x1="64.74" y1="419.4" x2="67.7" y2="419.4"/><path class="cls-2" d="m64.74,412.31c-1.38,0-2.5-1.59-2.5-3.54s1.12-3.54,2.5-3.54"/><path class="cls-2" d="m64.74,419.4c-1.38,0-2.5-1.59-2.5-3.54s1.12-3.54,2.5-3.54"/><line class="cls-2" x1="64.74" y1="412.31" x2="71.63" y2="412.31"/><line class="cls-2" x1="96.99" y1="412.08" x2="93.27" y2="417.81"/><line class="cls-2" x1="92.87" y1="412.2" x2="88.91" y2="418.04"/></g><g><line class="cls-2" x1="21.44" y1="412.54" x2="25.73" y2="412.54"/><line class="cls-2" x1="25.48" y1="412.41" x2="29.2" y2="418.13"/><line class="cls-2" x1="29.6" y1="412.52" x2="33.56" y2="418.36"/><line class="cls-2" x1="36.15" y1="412.52" x2="29.6" y2="412.52"/><rect class="cls-2" x="38.59" y="405.2" width="9.82" height="14.68" transform="translate(-369.05 456.03) rotate(-90)"/><line class="cls-2" x1="39.09" y1="416.99" x2="39.09" y2="407.63"/><line class="cls-2" x1="48.29" y1="417.45" x2="48.29" y2="407.63"/><line class="cls-2" x1="57.73" y1="419.4" x2="54.76" y2="419.4"/><line class="cls-2" x1="57.73" y1="405.22" x2="54.76" y2="405.22"/><path class="cls-2" d="m57.73,412.31c1.38,0,2.5,1.59,2.5,3.54s-1.12,3.54-2.5,3.54"/><path class="cls-2" d="m57.73,405.22c1.38,0,2.5,1.59,2.5,3.54s-1.12,3.54-2.5,3.54"/><line class="cls-2" x1="57.73" y1="412.31" x2="50.83" y2="412.31"/><line class="cls-2" x1="25.48" y1="412.54" x2="29.19" y2="406.81"/><line class="cls-2" x1="29.6" y1="412.43" x2="33.55" y2="406.59"/></g></g></g></svg>