<?xml version="1.0" encoding="UTF-8"?><svg id="INDOOR" xmlns="http://www.w3.org/2000/svg" viewBox="0 0 1224.71 792.47"><defs><style>.cls-1{fill:none;stroke:#848484;stroke-linecap:round;stroke-linejoin:round;stroke-width:.5px;}.cls-2{fill:#ec2027;}.cls-3{font-size:13.31px;}.cls-3,.cls-4,.cls-5,.cls-6,.cls-7{font-family:ArialMT, Arial;}.cls-4{font-size:5.55px;}.cls-8{letter-spacing:0em;}.cls-9{letter-spacing:-.02em;}.cls-10{letter-spacing:0em;}.cls-11{letter-spacing:-.02em;}.cls-12{letter-spacing:-.07em;}.cls-5{letter-spacing:-.06em;}.cls-5,.cls-6{fill:#848484;font-size:7.99px;}.cls-13{letter-spacing:-.06em;}.cls-14{letter-spacing:-.06em;}.cls-15{letter-spacing:-.02em;}.cls-16{letter-spacing:-.07em;}.cls-17{fill:#0f7eba;}.cls-18{fill:#b3d336;}.cls-19{letter-spacing:-.04em;}.cls-7{font-size:8.88px;}.cls-20{fill:#18bcef;}</style></defs><g id="TITLE_BLOCK"><g id="LINE"><line class="cls-1" x1="11.65" y1="780.91" x2=".35" y2="792.22"/></g><g id="LINE-2"><line class="cls-1" x1=".35" y1="792.22" x2=".35" y2=".25"/></g><g id="LINE-3"><line class="cls-1" x1="11.65" y1="780.91" x2="11.65" y2="11.56"/></g><g id="LINE-4"><line class="cls-1" x1="1224.35" y1="792.22" x2=".35" y2="792.22"/></g><g id="LINE-5"><line class="cls-1" x1="1213.06" y1="780.91" x2="11.65" y2="780.91"/></g><g id="LINE-6"><line class="cls-1" x1=".35" y1=".25" x2="1224.35" y2=".25"/></g><g id="LINE-7"><line class="cls-1" x1="11.65" y1="11.56" x2="1213.06" y2="11.56"/></g><g id="LINE-8"><line class="cls-1" x1="1224.35" y1=".25" x2="1224.35" y2="792.22"/></g><g id="LINE-9"><line class="cls-1" x1="1213.06" y1="11.56" x2="1213.06" y2="780.91"/></g><g id="TEXT"><text class="cls-5" transform="translate(1216.34 62.86)"><tspan x="0" y="0">A</tspan></text></g><g id="TEXT-2"><text class="cls-6" transform="translate(84.09 9.37)"><tspan x="0" y="0">1</tspan></text></g><g id="LINE-10"><line class="cls-1" x1="1213.06" y1="780.91" x2="1224.35" y2="792.22"/></g><g id="LINE-11"><line class="cls-1" x1="11.65" y1="11.56" x2=".35" y2=".25"/></g><g id="LINE-12"><line class="cls-1" x1="1213.06" y1="11.56" x2="1224.35" y2=".25"/></g><g id="LINE-13"><line class="cls-1" x1="1213.06" y1="108.12" x2="1224.35" y2="108.12"/></g><g id="LINE-14"><line class="cls-1" x1="1213.06" y1="204.31" x2="1224.35" y2="204.31"/></g><g id="LINE-15"><line class="cls-1" x1="1213.06" y1="300.5" x2="1224.35" y2="300.5"/></g><g id="LINE-16"><line class="cls-1" x1="1213.06" y1="396.69" x2="1224.35" y2="396.69"/></g><g id="LINE-17"><line class="cls-1" x1="1213.06" y1="492.87" x2="1224.35" y2="492.87"/></g><g id="LINE-18"><line class="cls-1" x1="1213.06" y1="589.06" x2="1224.35" y2="589.06"/></g><g id="LINE-19"><line class="cls-1" x1="1213.06" y1="685.25" x2="1224.35" y2="685.25"/></g><g id="LINE-20"><line class="cls-1" x1="161.43" y1="11.56" x2="161.43" y2=".25"/></g><g id="LINE-21"><line class="cls-1" x1="311.74" y1="11.56" x2="311.74" y2=".25"/></g><g id="LINE-22"><line class="cls-1" x1="462.05" y1="11.56" x2="462.05" y2=".25"/></g><g id="LINE-23"><line class="cls-1" x1="612.35" y1="11.56" x2="612.35" y2=".25"/></g><g id="LINE-24"><line class="cls-1" x1="762.66" y1="11.56" x2="762.66" y2=".25"/></g><g id="LINE-25"><line class="cls-1" x1="912.97" y1="11.56" x2="912.97" y2=".25"/></g><g id="LINE-26"><line class="cls-1" x1="1063.27" y1="11.56" x2="1063.27" y2=".25"/></g><g id="LINE-27"><line class="cls-1" x1="11.65" y1="108.12" x2=".35" y2="108.12"/></g><g id="LINE-28"><line class="cls-1" x1="11.65" y1="204.31" x2=".35" y2="204.31"/></g><g id="LINE-29"><line class="cls-1" x1="11.65" y1="300.5" x2=".35" y2="300.5"/></g><g id="LINE-30"><line class="cls-1" x1="11.65" y1="396.69" x2=".35" y2="396.69"/></g><g id="LINE-31"><line class="cls-1" x1="11.65" y1="492.87" x2=".35" y2="492.87"/></g><g id="LINE-32"><line class="cls-1" x1="11.65" y1="589.06" x2=".35" y2="589.06"/></g><g id="LINE-33"><line class="cls-1" x1="11.65" y1="685.25" x2=".35" y2="685.25"/></g><g id="TEXT-3"><text class="cls-6" transform="translate(1216.34 159.04)"><tspan x="0" y="0">B</tspan></text></g><g id="TEXT-4"><text class="cls-6" transform="translate(1216.12 255.23)"><tspan x="0" y="0">C</tspan></text></g><g id="TEXT-5"><text class="cls-6" transform="translate(1216.12 351.42)"><tspan x="0" y="0">D</tspan></text></g><g id="TEXT-6"><text class="cls-6" transform="translate(1216.34 447.61)"><tspan x="0" y="0">E</tspan></text></g><g id="TEXT-7"><text class="cls-6" transform="translate(1216.56 543.79)"><tspan x="0" y="0">F</tspan></text></g><g id="TEXT-8"><text class="cls-6" transform="translate(1215.9 639.98)"><tspan x="0" y="0">G</tspan></text></g><g id="TEXT-9"><text class="cls-6" transform="translate(1216.12 736.17)"><tspan x="0" y="0">H</tspan></text></g><g id="TEXT-10"><text class="cls-5" transform="translate(3.11 62.86)"><tspan x="0" y="0">A</tspan></text></g><g id="TEXT-11"><text class="cls-6" transform="translate(3.11 159.04)"><tspan x="0" y="0">B</tspan></text></g><g id="TEXT-12"><text class="cls-6" transform="translate(2.89 255.23)"><tspan x="0" y="0">C</tspan></text></g><g id="TEXT-13"><text class="cls-6" transform="translate(2.89 351.42)"><tspan x="0" y="0">D</tspan></text></g><g id="TEXT-14"><text class="cls-6" transform="translate(3.11 447.61)"><tspan x="0" y="0">E</tspan></text></g><g id="TEXT-15"><text class="cls-6" transform="translate(3.33 543.79)"><tspan x="0" y="0">F</tspan></text></g><g id="TEXT-16"><text class="cls-6" transform="translate(2.67 639.98)"><tspan x="0" y="0">G</tspan></text></g><g id="TEXT-17"><text class="cls-6" transform="translate(2.89 736.17)"><tspan x="0" y="0">H</tspan></text></g><g id="TEXT-18"><text class="cls-6" transform="translate(234.39 9.37)"><tspan x="0" y="0">2</tspan></text></g><g id="TEXT-19"><text class="cls-6" transform="translate(384.7 9.37)"><tspan x="0" y="0">3</tspan></text></g><g id="TEXT-20"><text class="cls-6" transform="translate(535.01 9.37)"><tspan x="0" y="0">4</tspan></text></g><g id="TEXT-21"><text class="cls-6" transform="translate(685.31 9.37)"><tspan x="0" y="0">5</tspan></text></g><g id="TEXT-22"><text class="cls-6" transform="translate(835.62 9.37)"><tspan x="0" y="0">6</tspan></text></g><g id="TEXT-23"><text class="cls-6" transform="translate(985.93 9.37)"><tspan x="0" y="0">7</tspan></text></g><g id="TEXT-24"><text class="cls-6" transform="translate(1136.23 9.37)"><tspan x="0" y="0">8</tspan></text></g><g id="TEXT-25"><text class="cls-6" transform="translate(84.09 789.66)"><tspan x="0" y="0">1</tspan></text></g><g id="LINE-34"><line class="cls-1" x1="161.43" y1="792.22" x2="161.43" y2="780.91"/></g><g id="LINE-35"><line class="cls-1" x1="311.74" y1="792.22" x2="311.74" y2="780.91"/></g><g id="LINE-36"><line class="cls-1" x1="462.05" y1="792.22" x2="462.05" y2="780.91"/></g><g id="LINE-37"><line class="cls-1" x1="612.35" y1="792.22" x2="612.35" y2="780.91"/></g><g id="LINE-38"><line class="cls-1" x1="762.66" y1="792.22" x2="762.66" y2="780.91"/></g><g id="LINE-39"><line class="cls-1" x1="912.97" y1="792.22" x2="912.97" y2="780.91"/></g><g id="LINE-40"><line class="cls-1" x1="1063.27" y1="792.22" x2="1063.27" y2="780.91"/></g><g id="TEXT-26"><text class="cls-6" transform="translate(234.39 789.66)"><tspan x="0" y="0">2</tspan></text></g><g id="TEXT-27"><text class="cls-6" transform="translate(384.7 789.66)"><tspan x="0" y="0">3</tspan></text></g><g id="TEXT-28"><text class="cls-6" transform="translate(535.01 789.66)"><tspan x="0" y="0">4</tspan></text></g><g id="TEXT-29"><text class="cls-6" transform="translate(685.31 789.66)"><tspan x="0" y="0">5</tspan></text></g><g id="TEXT-30"><text class="cls-6" transform="translate(835.62 789.66)"><tspan x="0" y="0">6</tspan></text></g><g id="TEXT-31"><text class="cls-6" transform="translate(985.93 789.66)"><tspan x="0" y="0">7</tspan></text></g><g id="TEXT-32"><text class="cls-6" transform="translate(1136.23 789.66)"><tspan x="0" y="0">8</tspan></text></g><g id="LINE-41"><line class="cls-1" x1="1213.09" y1="433.18" x2="1213.02" y2="545.27"/></g><g id="LINE-42"><line class="cls-1" x1="1213" y1="707.06" x2="1213.01" y2="545.27"/></g><g id="LINE-43"><line class="cls-1" x1="1213.06" y1="780.91" x2="1213" y2="707.06"/></g><g id="LINE-44"><line class="cls-1" x1="1213.06" y1="780.91" x2="1159.72" y2="780.91"/></g><g id="LINE-45"><line class="cls-1" x1="1213.06" y1="300.5" x2="1213.06" y2="601.67"/></g><g id="LINE-46"><line class="cls-1" x1="1213.05" y1="151.25" x2="1213.04" y2="11.56"/></g><g id="LINE-47"><line class="cls-1" x1="1213.04" y1="11.56" x2="1159.71" y2="11.56"/></g><g id="LINE-48"><line class="cls-1" x1="1213.06" y1="11.56" x2="1213.06" y2="780.91"/></g><g id="LINE-49"><line class="cls-1" x1="1213.08" y1="151.24" x2="1213.08" y2="433.2"/></g><g id="LINE-50"><line class="cls-1" x1="1073.52" y1="729.02" x2="913.54" y2="729.02"/></g><g id="LINE-51"><line class="cls-1" x1="1213.01" y1="729.02" x2="1073.52" y2="729.05"/></g><g id="LINE-52"><line class="cls-1" x1="1073.52" y1="780.91" x2="1073.52" y2="729.06"/></g><g id="LINE-53"><line class="cls-1" x1="913.57" y1="780.92" x2="913.57" y2="729"/></g><g id="LINE-54"><line class="cls-1" x1="913.54" y1="763.59" x2="680" y2="763.59"/></g><g id="LINE-55"><line class="cls-1" x1="913.54" y1="754.94" x2="680" y2="754.94"/></g><g id="LINE-56"><line class="cls-1" x1="913.54" y1="746.02" x2="680" y2="746.02"/></g><g id="LINE-57"><line class="cls-1" x1="913.54" y1="737.66" x2="680" y2="737.66"/></g><g id="LINE-58"><line class="cls-1" x1="913.48" y1="729.02" x2="680" y2="729.02"/></g><g id="LINE-59"><line class="cls-1" x1="680" y1="729.01" x2="680" y2="780.86"/></g><g id="LINE-60"><line class="cls-1" x1="913.54" y1="772.23" x2="680" y2="772.23"/></g><g id="LINE-61"><line class="cls-1" x1="1073.52" y1="780.91" x2="839.98" y2="780.91"/></g><g id="LINE-62"><line class="cls-1" x1="839.98" y1="780.92" x2="680.03" y2="780.92"/></g></g><g id="TEXT-33"><g id="MTEXT"><text class="cls-4" transform="translate(682.19 735.73)"><tspan x="0" y="0">EQUIPMEN</tspan><tspan class="cls-9" x="29.6" y="0">T </tspan><tspan class="cls-10" x="34.33" y="0">TYPE: MEDIUM VO</tspan><tspan class="cls-12" x="83.97" y="0">LT</tspan><tspan class="cls-10" x="89.62" y="0">AGE ME</tspan><tspan class="cls-16" x="111.2" y="0">T</tspan><tspan class="cls-10" x="114.18" y="0">A</tspan><tspan class="cls-19" x="117.88" y="0">L</tspan><tspan class="cls-8" x="120.76" y="0" xml:space="preserve"> CLAD SWITCHGEAR</tspan></text></g><g id="MTEXT-2"><text class="cls-4" transform="translate(682.19 744.37)"><tspan x="0" y="0">EQUIPMEN</tspan><tspan class="cls-9" x="29.6" y="0">T</tspan><tspan x="32.89" y="0" xml:space="preserve"> DESIGN</tspan><tspan class="cls-16" x="55.7" y="0">A</tspan><tspan x="58.99" y="0">TION: NEXGEAR MC15</tspan></text></g><g id="MTEXT-3"><text class="cls-4" transform="translate(682.6 752.73)"><tspan x="0" y="0">VO</tspan><tspan class="cls-12" x="8.02" y="0">LT</tspan><tspan x="13.67" y="0">AGE CLASS: 15KV</tspan></text></g><g id="MTEXT-4"><text class="cls-4" transform="translate(682.22 761.65)"><tspan x="0" y="0">MAXIMUM</tspan><tspan class="cls-14" x="26.82" y="0"> </tspan><tspan x="28.05" y="0">AM</tspan><tspan class="cls-12" x="36.38" y="0">P</tspan><tspan x="39.67" y="0">ACIT</tspan><tspan class="cls-13" x="52.31" y="0">Y</tspan><tspan class="cls-8" x="55.7" y="0">: 1200</tspan><tspan class="cls-14" x="71.13" y="0" xml:space="preserve"> A</tspan></text></g><g id="MTEXT-5"><text class="cls-4" transform="translate(682.23 770.29)"><tspan x="0" y="0">BI</tspan><tspan class="cls-19" x="5.24" y="0">L</tspan><tspan x="8.12" y="0" xml:space="preserve"> R</tspan><tspan class="cls-12" x="13.67" y="0">A</tspan><tspan x="16.96" y="0">TING: 95 kV</tspan></text></g><g id="MTEXT-6"><text class="cls-4" transform="translate(682.38 778.94)"><tspan x="0" y="0">SCC R</tspan><tspan class="cls-12" x="17.27" y="0">A</tspan><tspan x="20.55" y="0">TING: 50 k</tspan><tspan class="cls-14" x="47.38" y="0">A</tspan></text></g><g id="MTEXT-7">
    <!-- <text class="cls-4" transform="translate(915.78 735.77)"><tspan x="0" y="0">DRAWING</tspan><tspan class="cls-15" x="28.67" y="0"></tspan></text> -->

<!-- </g><g id="MTEXT-8"><text class="cls-4" transform="translate(915.78 778.98)"><tspan x="0" y="0">DR</tspan><tspan class="cls-19" x="8.01" y="0">A</tspan><tspan class="cls-8" x="11.51" y="0">WN: WORKNE</tspan><tspan class="cls-9" x="48.81" y="0">T</tspan></text></g><g id="MTEXT-9"> -->
    <text class="cls-7" transform="translate(931.39 742.88)">
    <tspan x="0" y="0">QUOTE DRAWING</tspan><tspan x="27.87" y="0" xml:space="preserve"></tspan></text>
</g></g><g id="LOGO"><g><g id="MTEXT-10">
    <text class="cls-3" transform="translate(1122.13 768.38)"><tspan x="0" y="0">PowerSecure</tspan></text></g><g id="SOLID"><polygon class="cls-17" points="1087.07 768.44 1118.2 768.44 1118.2 768.44 1097.42 763.25 1087.07 768.44"/></g><g id="SOLID-2"><polygon class="cls-18" points="1087.07 768.44 1097.42 763.25 1090.99 761.64 1090.99 761.64 1087.07 768.44"/></g><g id="SOLID-3"><polygon class="cls-20" points="1097.42 763.25 1118.2 768.44 1111.21 756.32 1111.21 756.32 1097.42 763.25"/></g><g id="SOLID-4"><polygon class="cls-2" points="1102.64 741.44 1091.81 760.21 1110.38 754.88 1110.38 754.88 1102.64 741.44"/></g></g></g></svg>