<?xml version="1.0" encoding="UTF-8"?><svg xmlns="http://www.w3.org/2000/svg" viewBox="0 0 1224.71 791.6"><defs><style>.cls-1,.cls-2,.cls-3,.cls-4,.cls-5,.cls-6{font-family:ArialMT, Arial;}.cls-1,.cls-7{letter-spacing:-.06em;}.cls-1,.cls-6{fill:#0f7bbb;font-size:5.54px;}.cls-8{letter-spacing:-.06em;}.cls-2,.cls-3{fill:#848484;font-size:7.98px;}.cls-9{letter-spacing:-.02em;}.cls-10{fill:#ec2027;}.cls-3{letter-spacing:-.06em;}.cls-4{font-size:13.29px;}.cls-11{letter-spacing:-.04em;}.cls-12{letter-spacing:0em;}.cls-5{fill:#64c8fa;font-size:4.43px;}.cls-13{letter-spacing:-.09em;}.cls-14{letter-spacing:-.07em;}.cls-15{letter-spacing:-.09em;}.cls-16{letter-spacing:-.02em;}.cls-17{fill:none;stroke:#848484;stroke-linecap:round;stroke-linejoin:round;stroke-width:.71px;}.cls-18{letter-spacing:0em;}.cls-19{fill:#0f7eba;}.cls-20{fill:#b3d336;}.cls-21{letter-spacing:0em;}.cls-22{letter-spacing:-.02em;}.cls-23{letter-spacing:-.06em;}.cls-24{fill:#18bcef;}</style></defs><g id="INFO_TEXT"><g id="ATTRIB"><text/></g><g id="ATTRIB-2"><text class="cls-6" transform="translate(1176.07 538.03) rotate(-90.12)"><tspan x="0" y="0">NEXGEAR MC151</tspan><tspan x="57.7" y="0">, 1200</tspan><tspan class="cls-7" x="73.1" y="0">A</tspan></text></g><g id="ATTRIB-3"><text/></g><g id="ATTRIB-4"><text/></g><g id="ATTRIB-5"><text class="cls-6" transform="translate(1176.13 636.04) rotate(-90.12)"><tspan x="0" y="0">200</tspan><tspan class="cls-7" x="9.25" y="0">V</tspan><tspan x="12.64" y="0">-A#</tspan></text></g><g id="ATTRIB-6"><text class="cls-6" transform="translate(1184.85 656.6) rotate(-90.12)"><tspan x="0" y="0">NEXGEAR MC15</tspan></text></g><g id="ATTRIB-7"><text class="cls-6" transform="translate(1193.17 642.61) rotate(-90.12)"><tspan x="0" y="0">15KV / 1200</tspan><tspan class="cls-7" x="30.5" y="0">A</tspan><tspan x="33.89" y="0"> </tspan></text></g><g id="ATTRIB-8"><text class="cls-1" transform="translate(1176.21 425.96) rotate(-90.12)"><tspan x="0" y="0">A</tspan></text></g><g id="ATTRIB-9"><text class="cls-6" transform="translate(1176.24 413.83) rotate(-90.12)"><tspan x="0" y="0">03/10/2023</tspan></text></g><g id="ATTRIB-10"><text class="cls-6" transform="translate(1176.21 383.11) rotate(-90.12)"><tspan x="0" y="0">INITIA</tspan><tspan class="cls-11" x="15.7" y="0">L</tspan><tspan x="18.58" y="0" xml:space="preserve"> QUOTE</tspan></text></g><g id="ATTRIB-11"><text class="cls-6" transform="translate(1184.84 425.96) rotate(-90.12)"><tspan x="0" y="0">B</tspan></text></g><g id="ATTRIB-12"><text/></g><g id="ATTRIB-13"><text/></g><g id="ATTRIB-14"><text class="cls-6" transform="translate(1193.19 426.11) rotate(-90.12)"><tspan x="0" y="0">C</tspan></text></g><g id="ATTRIB-15"><text/></g><g id="ATTRIB-16"><text/></g><g id="ATTRIB-17"><text class="cls-6" transform="translate(1202.1 426.11) rotate(-90.12)"><tspan x="0" y="0">D</tspan></text></g><g id="ATTRIB-18"><text/></g><g id="ATTRIB-19"><text/></g><g id="ATTRIB-20"><text class="cls-6" transform="translate(1210.73 425.96) rotate(-90.12)"><tspan x="0" y="0">E</tspan></text></g><g id="ATTRIB-21"><text/></g><g id="ATTRIB-22"><text/></g><g id="ATTRIB-23"><text class="cls-6" transform="translate(1210.74 142.61) rotate(-90.12)"><tspan x="0" y="0">4068 STIRRU</tspan><tspan class="cls-16" x="34.49" y="0">P</tspan><tspan class="cls-12" x="38.09" y="0" xml:space="preserve"> CREEK DR, DURHAM, NC 27703</tspan></text></g></g><g id="TITLE_BLOCK"><g id="LINE"><line class="cls-17" x1="11.65" y1="779.95" x2=".35" y2="791.25"/></g><g id="LINE-2"><line class="cls-17" x1=".35" y1="791.25" x2=".35" y2=".35"/></g><g id="LINE-3"><line class="cls-17" x1="11.65" y1="779.95" x2="11.65" y2="11.65"/></g><g id="LINE-4"><line class="cls-17" x1="1224.35" y1="791.25" x2=".35" y2="791.25"/></g><g id="LINE-5"><line class="cls-17" x1="1213.06" y1="779.95" x2="11.65" y2="779.95"/></g><g id="LINE-6"><line class="cls-17" x1=".35" y1=".35" x2="1224.35" y2=".35"/></g><g id="LINE-7"><line class="cls-17" x1="11.65" y1="11.65" x2="1213.06" y2="11.65"/></g><g id="LINE-8"><line class="cls-17" x1="1224.35" y1=".35" x2="1224.35" y2="791.25"/></g><g id="LINE-9"><line class="cls-17" x1="1213.06" y1="11.65" x2="1213.06" y2="779.95"/></g><g id="TEXT"><text class="cls-3" transform="translate(1216.34 62.88)"><tspan x="0" y="0">A</tspan></text></g><g id="TEXT-2"><text class="cls-2" transform="translate(84.09 9.46)"><tspan x="0" y="0">1</tspan></text></g><g id="LINE-10"><line class="cls-17" x1="1213.06" y1="779.95" x2="1224.35" y2="791.25"/></g><g id="LINE-11"><line class="cls-17" x1="11.65" y1="11.65" x2=".35" y2=".35"/></g><g id="LINE-12"><line class="cls-17" x1="1213.06" y1="11.65" x2="1224.35" y2=".35"/></g><g id="LINE-13"><line class="cls-17" x1="1213.06" y1="108.08" x2="1224.35" y2="108.08"/></g><g id="LINE-14"><line class="cls-17" x1="1213.06" y1="204.14" x2="1224.35" y2="204.14"/></g><g id="LINE-15"><line class="cls-17" x1="1213.06" y1="300.19" x2="1224.35" y2="300.19"/></g><g id="LINE-16"><line class="cls-17" x1="1213.06" y1="396.25" x2="1224.35" y2="396.25"/></g><g id="LINE-17"><line class="cls-17" x1="1213.06" y1="492.31" x2="1224.35" y2="492.31"/></g><g id="LINE-18"><line class="cls-17" x1="1213.06" y1="588.36" x2="1224.35" y2="588.36"/></g><g id="LINE-19"><line class="cls-17" x1="1213.06" y1="684.42" x2="1224.35" y2="684.42"/></g><g id="LINE-20"><line class="cls-17" x1="161.43" y1="11.65" x2="161.43" y2=".35"/></g><g id="LINE-21"><line class="cls-17" x1="311.74" y1="11.65" x2="311.74" y2=".35"/></g><g id="LINE-22"><line class="cls-17" x1="462.05" y1="11.65" x2="462.05" y2=".35"/></g><g id="LINE-23"><line class="cls-17" x1="612.35" y1="11.65" x2="612.35" y2=".35"/></g><g id="LINE-24"><line class="cls-17" x1="762.66" y1="11.65" x2="762.66" y2=".35"/></g><g id="LINE-25"><line class="cls-17" x1="912.97" y1="11.65" x2="912.97" y2=".35"/></g><g id="LINE-26"><line class="cls-17" x1="1063.27" y1="11.65" x2="1063.27" y2=".35"/></g><g id="LINE-27"><line class="cls-17" x1="11.65" y1="108.08" x2=".35" y2="108.08"/></g><g id="LINE-28"><line class="cls-17" x1="11.65" y1="204.14" x2=".35" y2="204.14"/></g><g id="LINE-29"><line class="cls-17" x1="11.65" y1="300.19" x2=".35" y2="300.19"/></g><g id="LINE-30"><line class="cls-17" x1="11.65" y1="396.25" x2=".35" y2="396.25"/></g><g id="LINE-31"><line class="cls-17" x1="11.65" y1="492.31" x2=".35" y2="492.31"/></g><g id="LINE-32"><line class="cls-17" x1="11.65" y1="588.36" x2=".35" y2="588.36"/></g><g id="LINE-33"><line class="cls-17" x1="11.65" y1="684.42" x2=".35" y2="684.42"/></g><g id="TEXT-3"><text class="cls-2" transform="translate(1216.34 158.93)"><tspan x="0" y="0">B</tspan></text></g><g id="TEXT-4"><text class="cls-2" transform="translate(1216.12 254.99)"><tspan x="0" y="0">C</tspan></text></g><g id="TEXT-5"><text class="cls-2" transform="translate(1216.12 351.05)"><tspan x="0" y="0">D</tspan></text></g><g id="TEXT-6"><text class="cls-2" transform="translate(1216.34 447.1)"><tspan x="0" y="0">E</tspan></text></g><g id="TEXT-7"><text class="cls-2" transform="translate(1216.56 543.16)"><tspan x="0" y="0">F</tspan></text></g><g id="TEXT-8"><text class="cls-2" transform="translate(1215.9 639.21)"><tspan x="0" y="0">G</tspan></text></g><g id="TEXT-9"><text class="cls-2" transform="translate(1216.12 735.27)"><tspan x="0" y="0">H</tspan></text></g><g id="TEXT-10"><text class="cls-3" transform="translate(3.11 62.88)"><tspan x="0" y="0">A</tspan></text></g><g id="TEXT-11"><text class="cls-2" transform="translate(3.11 158.93)"><tspan x="0" y="0">B</tspan></text></g><g id="TEXT-12"><text class="cls-2" transform="translate(2.89 254.99)"><tspan x="0" y="0">C</tspan></text></g><g id="TEXT-13"><text class="cls-2" transform="translate(2.89 351.05)"><tspan x="0" y="0">D</tspan></text></g><g id="TEXT-14"><text class="cls-2" transform="translate(3.11 447.1)"><tspan x="0" y="0">E</tspan></text></g><g id="TEXT-15"><text class="cls-2" transform="translate(3.33 543.16)"><tspan x="0" y="0">F</tspan></text></g><g id="TEXT-16"><text class="cls-2" transform="translate(2.67 639.21)"><tspan x="0" y="0">G</tspan></text></g><g id="TEXT-17"><text class="cls-2" transform="translate(2.89 735.27)"><tspan x="0" y="0">H</tspan></text></g><g id="TEXT-18"><text class="cls-2" transform="translate(234.39 9.46)"><tspan x="0" y="0">2</tspan></text></g><g id="TEXT-19"><text class="cls-2" transform="translate(384.7 9.46)"><tspan x="0" y="0">3</tspan></text></g><g id="TEXT-20"><text class="cls-2" transform="translate(535.01 9.46)"><tspan x="0" y="0">4</tspan></text></g><g id="TEXT-21"><text class="cls-2" transform="translate(685.31 9.46)"><tspan x="0" y="0">5</tspan></text></g><g id="TEXT-22"><text class="cls-2" transform="translate(835.62 9.46)"><tspan x="0" y="0">6</tspan></text></g><g id="TEXT-23"><text class="cls-2" transform="translate(985.93 9.46)"><tspan x="0" y="0">7</tspan></text></g><g id="TEXT-24"><text class="cls-2" transform="translate(1136.23 9.46)"><tspan x="0" y="0">8</tspan></text></g><g id="TEXT-25"><text class="cls-2" transform="translate(84.09 788.68)"><tspan x="0" y="0">1</tspan></text></g><g id="LINE-34"><line class="cls-17" x1="161.43" y1="791.25" x2="161.43" y2="779.95"/></g><g id="LINE-35"><line class="cls-17" x1="311.74" y1="791.25" x2="311.74" y2="779.95"/></g><g id="LINE-36"><line class="cls-17" x1="462.05" y1="791.25" x2="462.05" y2="779.95"/></g><g id="LINE-37"><line class="cls-17" x1="612.35" y1="791.25" x2="612.35" y2="779.95"/></g><g id="LINE-38"><line class="cls-17" x1="762.66" y1="791.25" x2="762.66" y2="779.95"/></g><g id="LINE-39"><line class="cls-17" x1="912.97" y1="791.25" x2="912.97" y2="779.95"/></g><g id="LINE-40"><line class="cls-17" x1="1063.27" y1="791.25" x2="1063.27" y2="779.95"/></g><g id="TEXT-26"><text class="cls-2" transform="translate(234.39 788.68)"><tspan x="0" y="0">2</tspan></text></g><g id="TEXT-27"><text class="cls-2" transform="translate(384.7 788.68)"><tspan x="0" y="0">3</tspan></text></g><g id="TEXT-28"><text class="cls-2" transform="translate(535.01 788.68)"><tspan x="0" y="0">4</tspan></text></g><g id="TEXT-29"><text class="cls-2" transform="translate(685.31 788.68)"><tspan x="0" y="0">5</tspan></text></g><g id="TEXT-30"><text class="cls-2" transform="translate(835.62 788.68)"><tspan x="0" y="0">6</tspan></text></g><g id="TEXT-31"><text class="cls-2" transform="translate(985.93 788.68)"><tspan x="0" y="0">7</tspan></text></g><g id="TEXT-32"><text class="cls-2" transform="translate(1136.23 788.68)"><tspan x="0" y="0">8</tspan></text></g><g id="LINE-41"><line class="cls-17" x1="1159.67" y1="706.26" x2="1213" y2="706.2"/></g><g id="LINE-42"><line class="cls-17" x1="1159.75" y1="432.72" x2="1159.71" y2="544.66"/></g><g id="LINE-43"><line class="cls-17" x1="1159.71" y1="11.65" x2="1159.74" y2="151.14"/></g><g id="LINE-44"><line class="cls-17" x1="1213.09" y1="432.69" x2="1213.02" y2="544.63"/></g><g id="LINE-45"><line class="cls-17" x1="1213.07" y1="432.72" x2="1159.73" y2="432.72"/></g><g id="LINE-46"><line class="cls-17" x1="1213" y1="706.2" x2="1213.01" y2="544.63"/></g><g id="LINE-47"><line class="cls-17" x1="1213.09" y1="415.55" x2="1159.75" y2="415.55"/></g><g id="LINE-48"><line class="cls-17" x1="1213.09" y1="384.68" x2="1159.75" y2="384.68"/></g><g id="LINE-49"><line class="cls-17" x1="1213.08" y1="432.72" x2="1177.26" y2="432.72"/></g><g id="LINE-50"><line class="cls-17" x1="1159.69" y1="544.63" x2="1213.02" y2="544.63"/></g><g id="LINE-51"><line class="cls-17" x1="1213.06" y1="779.95" x2="1213" y2="706.2"/></g><g id="LINE-52"><line class="cls-17" x1="1213.06" y1="779.95" x2="1159.72" y2="779.95"/></g><g id="LINE-53"><line class="cls-17" x1="1213" y1="756.41" x2="1159.66" y2="756.42"/></g><g id="LINE-54"><line class="cls-17" x1="1213" y1="743.86" x2="1159.61" y2="743.86"/></g><g id="LINE-55"><line class="cls-17" x1="1213.06" y1="756.41" x2="1159.67" y2="756.41"/></g><g id="LINE-56"><line class="cls-17" x1="1213.02" y1="544.63" x2="1159.69" y2="544.63"/></g><g id="LINE-57"><line class="cls-17" x1="1159.73" y1="779.95" x2="1159.67" y2="706.2"/></g><g id="LINE-58"><line class="cls-17" x1="1213.06" y1="300.19" x2="1213.06" y2="600.95"/></g><g id="LINE-59"><line class="cls-17" x1="1204.44" y1="151.14" x2="1204.45" y2="432.72"/></g><g id="LINE-60"><line class="cls-17" x1="1195.81" y1="151.14" x2="1195.82" y2="432.72"/></g><g id="LINE-61"><line class="cls-17" x1="1186.9" y1="151.14" x2="1186.91" y2="432.72"/></g><g id="LINE-62"><line class="cls-17" x1="1178.55" y1="151.14" x2="1178.56" y2="432.72"/></g><g id="LINE-63"><line class="cls-17" x1="1169.92" y1="151.14" x2="1169.93" y2="432.72"/></g><g id="LINE-64"><line class="cls-17" x1="1159.74" y1="151.2" x2="1159.75" y2="432.72"/></g><g id="LINE-65"><line class="cls-17" x1="1159.66" y1="706.2" x2="1213" y2="706.2"/></g><g id="LINE-66"><line class="cls-17" x1="1159.66" y1="544.63" x2="1159.69" y2="706.26"/></g><g id="LINE-67"><line class="cls-17" x1="1213.05" y1="151.15" x2="1213.04" y2="11.65"/></g><g id="LINE-68"><line class="cls-17" x1="1213.04" y1="11.65" x2="1159.71" y2="11.65"/></g><g id="LINE-69"><line class="cls-17" x1="1213" y1="718.75" x2="1159.66" y2="718.76"/></g><g id="LINE-70"><line class="cls-17" x1="1213.06" y1="11.65" x2="1213.06" y2="779.95"/></g><g id="LINE-71"><line class="cls-17" x1="1159.74" y1="151.14" x2="1213.08" y2="151.14"/></g><g id="LINE-72"><line class="cls-17" x1="1213.08" y1="151.14" x2="1213.08" y2="432.72"/></g><g id="LINE-73"><line class="cls-17" x1="1159.75" y1="432.72" x2="1213.09" y2="432.72"/></g><g id="LINE-74"><line class="cls-17" x1="1213" y1="731.31" x2="1159.67" y2="731.31"/></g></g><g id="TITLE_TEXT"><g id="MTEXT"><text class="cls-5" transform="translate(1165.44 704.94) rotate(-90)"><tspan x="0" y="0">PROJEC</tspan><tspan class="cls-9" x="17.98" y="0">T </tspan><tspan class="cls-21" x="21.76" y="0">TITLE:</tspan></text></g><g id="MTEXT-2"><text class="cls-5" transform="translate(1165.46 543.92) rotate(-90)"><tspan x="0" y="0">DOCUMEN</tspan><tspan class="cls-22" x="22.9" y="0">T</tspan><tspan x="25.53" y="0" xml:space="preserve"> NAME:</tspan></text></g><g id="MTEXT-3"><text class="cls-5" transform="translate(1165.53 428.71) rotate(-90)"><tspan x="0" y="0">RE</tspan><tspan class="cls-15" x="6.16" y="0">V</tspan><tspan class="cls-18" x="8.71" y="0">.</tspan></text></g><g id="MTEXT-4"><text class="cls-5" transform="translate(1165.53 406.01) rotate(-90)"><tspan x="0" y="0">D</tspan><tspan class="cls-14" x="3.2" y="0">A</tspan><tspan x="5.83" y="0">TE</tspan></text></g><g id="MTEXT-5"><text class="cls-5" transform="translate(1166.41 277.36) rotate(-90)"><tspan x="0" y="0">NOTE</tspan></text></g><g id="MTEXT-6"><text class="cls-5" transform="translate(1160.83 747.94)"><tspan x="0" y="0">RELEASE D</tspan><tspan class="cls-14" x="24.88" y="0">A</tspan><tspan x="27.51" y="0">TE:</tspan></text></g><g id="MTEXT-7"><text class="cls-5" transform="translate(1160.89 710.28)"><tspan x="0" y="0">ENGINEERED B</tspan><tspan class="cls-8" x="33.5" y="0">Y</tspan><tspan x="36.21" y="0">:</tspan></text></g><g id="MTEXT-8"><text class="cls-5" transform="translate(1161.04 760.49)"><tspan x="0" y="0">SHEET#:</tspan></text></g><g id="MTEXT-9"><text class="cls-5" transform="translate(1160.91 722.84)"><tspan x="0" y="0">DESIGNED B</tspan><tspan class="cls-23" x="27.34" y="0">Y</tspan><tspan x="30.05" y="0">:</tspan></text></g><g id="MTEXT-10"><text class="cls-5" transform="translate(1161.04 735.39)"><tspan x="0" y="0">SUB-SECTION:</tspan></text></g></g><g id="LOGO"><g id="SOLID"><polygon class="cls-19" points="1193.92 136.33 1193.92 105.2 1193.91 105.2 1188.73 125.98 1193.92 136.33"/></g><g id="SOLID-2"><polygon class="cls-20" points="1193.92 136.33 1188.73 125.98 1187.13 132.41 1187.13 132.41 1193.92 136.33"/></g><g id="SOLID-3"><polygon class="cls-24" points="1188.73 125.98 1193.92 105.2 1181.82 112.18 1181.82 112.18 1188.73 125.98"/></g><g id="SOLID-4"><polygon class="cls-10" points="1166.96 120.76 1185.7 131.58 1180.38 113.02 1180.38 113.02 1166.96 120.76"/></g></g><g id="LOGO_TEXT"><g id="MTEXT-11"><text class="cls-4" transform="translate(1193.86 101.27) rotate(-90)"><tspan x="0" y="0">PowerSecure</tspan></text></g></g></svg>