<svg xmlns="http://www.w3.org/2000/svg" width="211.11" height="35.18" viewBox="0 0 211.11 35.18">
  <defs>
    <style>
      .cls-1 {
        fill: #007dba;
      }

      .cls-2 {
        fill: #b2d235;
      }

      .cls-3 {
        fill: #00bdf2;
      }

      .cls-4 {
        fill: #ed1c24;
      }

      .cls-5 {
        fill: #636466;
      }
    </style>
  </defs>
  <g id="Layer_2" data-name="Layer 2">
    <g id="Layer_1-2" data-name="Layer 1">
      <g>
        <polygon class="cls-1" points="0 34.86 40.25 34.86 40.24 34.85 13.38 28.15 0 34.86"/>
        <polygon class="cls-2" points="5.07 26.08 0 34.86 13.38 28.15 5.07 26.08"/>
        <polygon class="cls-3" points="13.38 28.15 40.24 34.85 31.21 19.21 13.38 28.15"/>
        <polygon class="cls-4" points="20.13 0 6.14 24.23 30.14 17.35 20.13 0"/>
      </g>
      <path class="cls-5" d="M63.87,19.73c0,4.37-3.25,6.89-7.43,6.89H52.26v8.24H49v-22h7.47C61.35,12.84,63.87,16,63.87,19.73Zm-11.61,4h3.51c3.28,0,4.72-1.72,4.72-4s-1.5-4-4.72-4H52.26ZM70.79,35.18c-4,0-7.12-2.56-7.12-8s3.23-8,7.12-8c4.08,0,7.08,2.81,7.08,8S74.68,35.18,70.79,35.18Zm0-2.65c2.39,0,4-2.27,4-5.33s-1.54-5.33-4-5.33c-2.68,0-4,2.55-4,5.33C66.83,30.17,68.27,32.53,70.79,32.53Zm28.65-13L94.59,34.86H92L88.81,24.23,85.62,34.86H83.07L78.19,19.51h3.15L84.47,30l3.19-10.53h2.59L93.44,30l3.13-10.53Zm3.47,8.13c0,1.63.64,4.86,4.31,4.86a8.57,8.57,0,0,0,5.42-2.17l.45,2.74a9.1,9.1,0,0,1-6.22,2.11c-4.21,0-7.09-2.84-7.09-8,0-5.36,3.23-8,6.8-8,4.56,0,6.54,3.73,6.54,7.69v.76Zm7-2.42c-.19-1-.61-3.51-3.38-3.51-2.23,0-3.22,2-3.48,3.51Zm8.92-3a6.51,6.51,0,0,1,5.29-3l.45,2.81c-2.43,0-4.12,1-5.58,3.35v9.48h-3.13V19.51h2.58Z"/>
      <path class="cls-5" d="M126.33,33.64l.51-3.19a11,11,0,0,0,6.26,1.79c2.77,0,4.56-1.18,4.56-3.1,0-1.43-.9-2.36-3.19-3.51-.51-.25-2.75-1.21-3.51-1.56-2.65-1.21-4.37-3-4.37-5.9,0-3.32,2.74-5.65,7.37-5.65a11.43,11.43,0,0,1,5.71,1.37L139.13,17a10.59,10.59,0,0,0-5.33-1.53c-2.62,0-4,1.22-4,2.81,0,1.34.93,2.14,2.62,2.94.6.28,3.35,1.43,3.86,1.66,3.19,1.46,4.63,3.35,4.63,6.06,0,3.73-3.1,6.29-7.73,6.29C129.07,35.18,126.9,34,126.33,33.64Z"/>
      <path class="cls-5" d="M145.66,27.64c0,1.63.64,4.86,4.31,4.86a8.63,8.63,0,0,0,5.43-2.17l.44,2.74a9.1,9.1,0,0,1-6.22,2.11c-4.21,0-7.08-2.84-7.08-8,0-5.36,3.22-8,6.79-8,4.57,0,6.54,3.73,6.54,7.69v.76Zm7-2.42c-.19-1-.6-3.51-3.38-3.51-2.23,0-3.22,2-3.48,3.51Z"/>
      <path class="cls-5" d="M200.9,27.64c0,1.63.64,4.86,4.31,4.86a8.63,8.63,0,0,0,5.43-2.17l.44,2.74a9.1,9.1,0,0,1-6.22,2.11c-4.21,0-7.09-2.84-7.09-8,0-5.36,3.23-8,6.8-8,4.57,0,6.54,3.73,6.54,7.69v.76Zm7-2.42c-.19-1-.6-3.51-3.38-3.51-2.23,0-3.22,2-3.48,3.51Z"/>
      <path class="cls-5" d="M172.57,30.52v-11h3.13v10c0,1.79.57,2.94,2.45,2.94,1.6,0,3.23-1.5,3.87-2.3V19.51h3.12V34.86h-2.68l-.25-2a8.12,8.12,0,0,1-5.08,2.27C174.07,35.18,172.57,33.29,172.57,30.52Z"/>
      <path class="cls-5" d="M169.65,23.69a6.55,6.55,0,0,0-4.47-1.82c-2.14,0-4.24,1.47-4.24,5.3,0,3.63,2,5.33,4.66,5.33a6.7,6.7,0,0,0,4.21-1.82l.45,2.8c-.32.39-2,1.7-5.37,1.7s-7.08-2.4-7.08-8c0-5.4,3.35-8,7.28-8a8.21,8.21,0,0,1,5,1.47Z"/>
      <path class="cls-5" d="M191.16,22.25a6.51,6.51,0,0,1,5.3-3L196.9,22c-2.42,0-4.11,1-5.58,3.35v9.48h-3.13V19.51h2.59Z"/>
    </g>
  </g>
</svg>
